<?xml version="1.0" encoding="UTF-8"?>
<!DOCTYPE svg PUBLIC "-//W3C//DTD SVG 1.1//EN" "http://www.w3.org/Graphics/SVG/1.1/DTD/svg11.dtd">
<svg version="1.2" width="102mm" height="112.01mm" viewBox="250 7350 10200 11201" preserveAspectRatio="xMidYMid" fill-rule="evenodd" stroke-width="28.222" stroke-linejoin="round" xmlns="http://www.w3.org/2000/svg" xmlns:ooo="http://xml.openoffice.org/svg/export" xmlns:xlink="http://www.w3.org/1999/xlink" xmlns:presentation="http://sun.com/xmlns/staroffice/presentation" xmlns:smil="http://www.w3.org/2001/SMIL20/" xmlns:anim="urn:oasis:names:tc:opendocument:xmlns:animation:1.0" xml:space="preserve">
 <defs class="ClipPathGroup">
  <clipPath id="presentation_clip_path" clipPathUnits="userSpaceOnUse">
   <rect x="250" y="7350" width="10200" height="11201"/>
  </clipPath>
  <clipPath id="presentation_clip_path_shrink" clipPathUnits="userSpaceOnUse">
   <rect x="260" y="7361" width="10180" height="11179"/>
  </clipPath>
 </defs>
 <defs class="TextShapeIndex">
  <g ooo:slide="id1" ooo:id-list="id3 id4 id5 id6 id7 id8 id9 id10 id11 id12 id13 id14 id15 id16 id17 id18 id19 id20 id21 id22 id23 id24 id25 id26 id27 id28 id29 id30 id31 id32 id33 id34 id35 id36 id37 id38 id39 id40"/>
 </defs>
 <defs class="EmbeddedBulletChars">
  <g id="bullet-char-template-57356" transform="scale(0.00048828125,-0.00048828125)">
   <path d="M 580,1141 L 1163,571 580,0 -4,571 580,1141 Z"/>
  </g>
  <g id="bullet-char-template-57354" transform="scale(0.00048828125,-0.00048828125)">
   <path d="M 8,1128 L 1137,1128 1137,0 8,0 8,1128 Z"/>
  </g>
  <g id="bullet-char-template-10146" transform="scale(0.00048828125,-0.00048828125)">
   <path d="M 174,0 L 602,739 174,1481 1456,739 174,0 Z M 1358,739 L 309,1346 659,739 1358,739 Z"/>
  </g>
  <g id="bullet-char-template-10132" transform="scale(0.00048828125,-0.00048828125)">
   <path d="M 2015,739 L 1276,0 717,0 1260,543 174,543 174,936 1260,936 717,1481 1274,1481 2015,739 Z"/>
  </g>
  <g id="bullet-char-template-10007" transform="scale(0.00048828125,-0.00048828125)">
   <path d="M 0,-2 C -7,14 -16,27 -25,37 L 356,567 C 262,823 215,952 215,954 215,979 228,992 255,992 264,992 276,990 289,987 310,991 331,999 354,1012 L 381,999 492,748 772,1049 836,1024 860,1049 C 881,1039 901,1025 922,1006 886,937 835,863 770,784 769,783 710,716 594,584 L 774,223 C 774,196 753,168 711,139 L 727,119 C 717,90 699,76 672,76 641,76 570,178 457,381 L 164,-76 C 142,-110 111,-127 72,-127 30,-127 9,-110 8,-76 1,-67 -2,-52 -2,-32 -2,-23 -1,-13 0,-2 Z"/>
  </g>
  <g id="bullet-char-template-10004" transform="scale(0.00048828125,-0.00048828125)">
   <path d="M 285,-33 C 182,-33 111,30 74,156 52,228 41,333 41,471 41,549 55,616 82,672 116,743 169,778 240,778 293,778 328,747 346,684 L 369,508 C 377,444 397,411 428,410 L 1163,1116 C 1174,1127 1196,1133 1229,1133 1271,1133 1292,1118 1292,1087 L 1292,965 C 1292,929 1282,901 1262,881 L 442,47 C 390,-6 338,-33 285,-33 Z"/>
  </g>
  <g id="bullet-char-template-9679" transform="scale(0.00048828125,-0.00048828125)">
   <path d="M 813,0 C 632,0 489,54 383,161 276,268 223,411 223,592 223,773 276,916 383,1023 489,1130 632,1184 813,1184 992,1184 1136,1130 1245,1023 1353,916 1407,772 1407,592 1407,412 1353,268 1245,161 1136,54 992,0 813,0 Z"/>
  </g>
  <g id="bullet-char-template-8226" transform="scale(0.00048828125,-0.00048828125)">
   <path d="M 346,457 C 273,457 209,483 155,535 101,586 74,649 74,723 74,796 101,859 155,911 209,963 273,989 346,989 419,989 480,963 531,910 582,859 608,796 608,723 608,648 583,586 532,535 482,483 420,457 346,457 Z"/>
  </g>
  <g id="bullet-char-template-8211" transform="scale(0.00048828125,-0.00048828125)">
   <path d="M -4,459 L 1135,459 1135,606 -4,606 -4,459 Z"/>
  </g>
  <g id="bullet-char-template-61548" transform="scale(0.00048828125,-0.00048828125)">
   <path d="M 173,740 C 173,903 231,1043 346,1159 462,1274 601,1332 765,1332 928,1332 1067,1274 1183,1159 1299,1043 1357,903 1357,740 1357,577 1299,437 1183,322 1067,206 928,148 765,148 601,148 462,206 346,322 231,437 173,577 173,740 Z"/>
  </g>
 </defs>
 <defs class="TextEmbeddedBitmaps"/>
 <g class="SlideGroup">
  <g>
   <g id="container-id1">
    <g id="id1" class="Slide" clip-path="url(#presentation_clip_path)">
     <g class="Page">
      <g class="com.sun.star.drawing.CustomShape">
       <g id="id3">
        <rect class="BoundingBox" stroke="none" fill="none" x="250" y="10150" width="4902" height="5402"/>
        <path fill="rgb(232,242,161)" stroke="none" d="M 1100,10200 C 700,10200 300,10600 300,11000 L 300,14700 C 300,15100 700,15501 1100,15501 L 4300,15501 C 4700,15501 5101,15100 5101,14700 L 5101,11000 C 5101,10600 4700,10200 4300,10200 L 1100,10200 Z"/>
        <path fill="none" stroke="rgb(128,128,128)" stroke-width="100" stroke-linejoin="round" d="M 1100,10200 C 700,10200 300,10600 300,11000 L 300,14700 C 300,15100 700,15501 1100,15501 L 4300,15501 C 4700,15501 5101,15100 5101,14700 L 5101,11000 C 5101,10600 4700,10200 4300,10200 L 1100,10200 Z"/>
       </g>
      </g>
      <g class="Group">
       <g class="com.sun.star.drawing.CustomShape">
        <g id="id4">
         <rect class="BoundingBox" stroke="none" fill="none" x="649" y="10649" width="1303" height="1303"/>
         <path fill="rgb(255,255,255)" stroke="none" d="M 1300,10700 C 1411,10700 1505,10725 1600,10780 1696,10835 1765,10904 1820,11000 1875,11095 1900,11189 1900,11300 1900,11411 1875,11505 1820,11600 1765,11696 1696,11765 1600,11820 1505,11875 1411,11901 1300,11901 1189,11901 1095,11875 1000,11820 904,11765 835,11696 780,11600 725,11505 700,11411 700,11300 699,11189 725,11095 780,11000 835,10904 904,10835 1000,10780 1095,10725 1189,10700 1300,10700 L 1300,10700 Z"/>
         <path fill="none" stroke="rgb(51,51,51)" stroke-width="100" stroke-linejoin="round" d="M 1300,10700 C 1411,10700 1505,10725 1600,10780 1696,10835 1765,10904 1820,11000 1875,11095 1900,11189 1900,11300 1900,11411 1875,11505 1820,11600 1765,11696 1696,11765 1600,11820 1505,11875 1411,11901 1300,11901 1189,11901 1095,11875 1000,11820 904,11765 835,11696 780,11600 725,11505 700,11411 700,11300 699,11189 725,11095 780,11000 835,10904 904,10835 1000,10780 1095,10725 1189,10700 1300,10700 L 1300,10700 Z"/>
        </g>
       </g>
       <g class="com.sun.star.drawing.CustomShape">
        <g id="id5">
         <rect class="BoundingBox" stroke="none" fill="none" x="649" y="12249" width="1303" height="1303"/>
         <path fill="rgb(255,255,255)" stroke="none" d="M 1300,12300 C 1411,12300 1505,12325 1600,12380 1696,12435 1765,12504 1820,12600 1875,12695 1900,12789 1900,12900 1900,13011 1875,13105 1820,13200 1765,13296 1696,13365 1600,13420 1505,13475 1411,13501 1300,13501 1189,13501 1095,13475 1000,13420 904,13365 835,13296 780,13200 725,13105 700,13011 700,12900 699,12789 725,12695 780,12600 835,12504 904,12435 1000,12380 1095,12325 1189,12300 1300,12300 L 1300,12300 Z"/>
         <path fill="none" stroke="rgb(51,51,51)" stroke-width="100" stroke-linejoin="round" d="M 1300,12300 C 1411,12300 1505,12325 1600,12380 1696,12435 1765,12504 1820,12600 1875,12695 1900,12789 1900,12900 1900,13011 1875,13105 1820,13200 1765,13296 1696,13365 1600,13420 1505,13475 1411,13501 1300,13501 1189,13501 1095,13475 1000,13420 904,13365 835,13296 780,13200 725,13105 700,13011 700,12900 699,12789 725,12695 780,12600 835,12504 904,12435 1000,12380 1095,12325 1189,12300 1300,12300 L 1300,12300 Z"/>
        </g>
       </g>
       <g class="com.sun.star.drawing.CustomShape">
        <g id="id6">
         <rect class="BoundingBox" stroke="none" fill="none" x="649" y="13849" width="1303" height="1303"/>
         <path fill="rgb(255,255,255)" stroke="none" d="M 1300,13900 C 1411,13900 1505,13925 1600,13980 1696,14035 1765,14104 1820,14200 1875,14295 1900,14389 1900,14500 1900,14611 1875,14705 1820,14800 1765,14896 1696,14965 1600,15020 1505,15075 1411,15101 1300,15101 1189,15101 1095,15075 1000,15020 904,14965 835,14896 780,14800 725,14705 700,14611 700,14500 699,14389 725,14295 780,14200 835,14104 904,14035 1000,13980 1095,13925 1189,13900 1300,13900 L 1300,13900 Z"/>
         <path fill="none" stroke="rgb(51,51,51)" stroke-width="100" stroke-linejoin="round" d="M 1300,13900 C 1411,13900 1505,13925 1600,13980 1696,14035 1765,14104 1820,14200 1875,14295 1900,14389 1900,14500 1900,14611 1875,14705 1820,14800 1765,14896 1696,14965 1600,15020 1505,15075 1411,15101 1300,15101 1189,15101 1095,15075 1000,15020 904,14965 835,14896 780,14800 725,14705 700,14611 700,14500 699,14389 725,14295 780,14200 835,14104 904,14035 1000,13980 1095,13925 1189,13900 1300,13900 L 1300,13900 Z"/>
        </g>
       </g>
       <g class="com.sun.star.drawing.CustomShape">
        <g id="id7">
         <rect class="BoundingBox" stroke="none" fill="none" x="3449" y="11450" width="1303" height="1303"/>
         <path fill="rgb(255,255,255)" stroke="none" d="M 4100,11501 C 4211,11501 4305,11526 4400,11581 4496,11636 4565,11705 4620,11801 4675,11896 4701,11990 4701,12101 4701,12212 4675,12306 4620,12401 4565,12497 4496,12566 4400,12621 4305,12676 4211,12702 4100,12702 3989,12702 3895,12676 3800,12621 3704,12566 3635,12497 3580,12401 3525,12306 3500,12212 3500,12101 3500,11990 3525,11896 3580,11801 3635,11705 3704,11636 3800,11581 3895,11526 3989,11501 4100,11501 L 4100,11501 Z"/>
         <path fill="none" stroke="rgb(51,51,51)" stroke-width="100" stroke-linejoin="round" d="M 4100,11501 C 4211,11501 4305,11526 4400,11581 4496,11636 4565,11705 4620,11801 4675,11896 4701,11990 4701,12101 4701,12212 4675,12306 4620,12401 4565,12497 4496,12566 4400,12621 4305,12676 4211,12702 4100,12702 3989,12702 3895,12676 3800,12621 3704,12566 3635,12497 3580,12401 3525,12306 3500,12212 3500,12101 3500,11990 3525,11896 3580,11801 3635,11705 3704,11636 3800,11581 3895,11526 3989,11501 4100,11501 L 4100,11501 Z"/>
        </g>
       </g>
       <g class="com.sun.star.drawing.CustomShape">
        <g id="id8">
         <rect class="BoundingBox" stroke="none" fill="none" x="3449" y="13050" width="1303" height="1303"/>
         <path fill="rgb(255,255,255)" stroke="none" d="M 4100,13101 C 4211,13101 4305,13126 4400,13181 4496,13236 4565,13305 4620,13401 4675,13496 4701,13590 4701,13701 4701,13812 4675,13906 4620,14001 4565,14097 4496,14166 4400,14221 4305,14276 4211,14302 4100,14302 3989,14302 3895,14276 3800,14221 3704,14166 3635,14097 3580,14001 3525,13906 3500,13812 3500,13701 3500,13590 3525,13496 3580,13401 3635,13305 3704,13236 3800,13181 3895,13126 3989,13101 4100,13101 L 4100,13101 Z"/>
         <path fill="none" stroke="rgb(51,51,51)" stroke-width="100" stroke-linejoin="round" d="M 4100,13101 C 4211,13101 4305,13126 4400,13181 4496,13236 4565,13305 4620,13401 4675,13496 4701,13590 4701,13701 4701,13812 4675,13906 4620,14001 4565,14097 4496,14166 4400,14221 4305,14276 4211,14302 4100,14302 3989,14302 3895,14276 3800,14221 3704,14166 3635,14097 3580,14001 3525,13906 3500,13812 3500,13701 3500,13590 3525,13496 3580,13401 3635,13305 3704,13236 3800,13181 3895,13126 3989,13101 4100,13101 L 4100,13101 Z"/>
        </g>
       </g>
       <g class="com.sun.star.drawing.ConnectorShape">
        <g id="id9">
         <rect class="BoundingBox" stroke="none" fill="none" x="1875" y="12101" width="1626" height="825"/>
         <path fill="none" stroke="rgb(128,128,128)" stroke-width="50" stroke-linejoin="round" d="M 1900,12900 L 3244,12229"/>
         <path fill="rgb(128,128,128)" stroke="none" d="M 3500,12101 L 3187,12146 3276,12324 3500,12101 Z"/>
        </g>
       </g>
       <g class="com.sun.star.drawing.ConnectorShape">
        <g id="id10">
         <rect class="BoundingBox" stroke="none" fill="none" x="1875" y="11275" width="1626" height="827"/>
         <path fill="none" stroke="rgb(128,128,128)" stroke-width="50" stroke-linejoin="round" d="M 1900,11300 L 3244,11973"/>
         <path fill="rgb(128,128,128)" stroke="none" d="M 3500,12101 L 3277,11877 3187,12056 3500,12101 Z"/>
        </g>
       </g>
       <g class="com.sun.star.drawing.ConnectorShape">
        <g id="id11">
         <rect class="BoundingBox" stroke="none" fill="none" x="1875" y="11275" width="1626" height="2427"/>
         <path fill="none" stroke="rgb(128,128,128)" stroke-width="50" stroke-linejoin="round" d="M 1900,11300 L 3341,13462"/>
         <path fill="rgb(128,128,128)" stroke="none" d="M 3500,13701 L 3417,13396 3250,13507 3500,13701 Z"/>
        </g>
       </g>
       <g class="com.sun.star.drawing.ConnectorShape">
        <g id="id12">
         <rect class="BoundingBox" stroke="none" fill="none" x="1875" y="12875" width="1626" height="827"/>
         <path fill="none" stroke="rgb(128,128,128)" stroke-width="50" stroke-linejoin="round" d="M 1900,12900 L 3244,13573"/>
         <path fill="rgb(128,128,128)" stroke="none" d="M 3500,13701 L 3277,13477 3187,13656 3500,13701 Z"/>
        </g>
       </g>
       <g class="com.sun.star.drawing.ConnectorShape">
        <g id="id13">
         <rect class="BoundingBox" stroke="none" fill="none" x="1875" y="12101" width="1626" height="2425"/>
         <path fill="none" stroke="rgb(128,128,128)" stroke-width="50" stroke-linejoin="round" d="M 1900,14500 L 3341,12339"/>
         <path fill="rgb(128,128,128)" stroke="none" d="M 3500,12101 L 3250,12295 3417,12406 3500,12101 Z"/>
        </g>
       </g>
       <g class="com.sun.star.drawing.ConnectorShape">
        <g id="id14">
         <rect class="BoundingBox" stroke="none" fill="none" x="1875" y="13701" width="1626" height="825"/>
         <path fill="none" stroke="rgb(128,128,128)" stroke-width="50" stroke-linejoin="round" d="M 1900,14500 L 3244,13829"/>
         <path fill="rgb(128,128,128)" stroke="none" d="M 3500,13701 L 3187,13746 3276,13924 3500,13701 Z"/>
        </g>
       </g>
      </g>
      <g class="com.sun.star.drawing.CustomShape">
       <g id="id15">
        <rect class="BoundingBox" stroke="none" fill="none" x="5549" y="13150" width="4902" height="5402"/>
        <path fill="rgb(180,199,220)" stroke="none" d="M 9600,13200 C 10000,13200 10400,13600 10400,14000 L 10400,17700 C 10400,18100 10000,18501 9600,18501 L 6400,18501 C 6000,18501 5599,18100 5599,17700 L 5599,14000 C 5599,13600 6000,13200 6400,13200 L 9600,13200 Z"/>
        <path fill="none" stroke="rgb(128,128,128)" stroke-width="100" stroke-linejoin="round" d="M 9600,13200 C 10000,13200 10400,13600 10400,14000 L 10400,17700 C 10400,18100 10000,18501 9600,18501 L 6400,18501 C 6000,18501 5599,18100 5599,17700 L 5599,14000 C 5599,13600 6000,13200 6400,13200 L 9600,13200 Z"/>
       </g>
      </g>
      <g class="Group">
       <g class="com.sun.star.drawing.CustomShape">
        <g id="id16">
         <rect class="BoundingBox" stroke="none" fill="none" x="8749" y="13649" width="1303" height="1303"/>
         <path fill="rgb(255,255,255)" stroke="none" d="M 9400,13700 C 9289,13700 9195,13725 9100,13780 9004,13835 8935,13904 8880,14000 8825,14095 8800,14189 8800,14300 8800,14411 8825,14505 8880,14600 8935,14696 9004,14765 9100,14820 9195,14875 9289,14901 9400,14901 9511,14901 9605,14875 9700,14820 9796,14765 9865,14696 9920,14600 9975,14505 10001,14411 10001,14300 10001,14189 9975,14095 9920,14000 9865,13904 9796,13835 9700,13780 9605,13725 9511,13700 9400,13700 L 9400,13700 Z"/>
         <path fill="none" stroke="rgb(51,51,51)" stroke-width="100" stroke-linejoin="round" d="M 9400,13700 C 9289,13700 9195,13725 9100,13780 9004,13835 8935,13904 8880,14000 8825,14095 8800,14189 8800,14300 8800,14411 8825,14505 8880,14600 8935,14696 9004,14765 9100,14820 9195,14875 9289,14901 9400,14901 9511,14901 9605,14875 9700,14820 9796,14765 9865,14696 9920,14600 9975,14505 10001,14411 10001,14300 10001,14189 9975,14095 9920,14000 9865,13904 9796,13835 9700,13780 9605,13725 9511,13700 9400,13700 Z"/>
        </g>
       </g>
       <g class="com.sun.star.drawing.CustomShape">
        <g id="id17">
         <rect class="BoundingBox" stroke="none" fill="none" x="8749" y="15249" width="1303" height="1303"/>
         <path fill="rgb(255,255,255)" stroke="none" d="M 9400,15300 C 9289,15300 9195,15325 9100,15380 9004,15435 8935,15504 8880,15600 8825,15695 8800,15789 8800,15900 8800,16011 8825,16105 8880,16200 8935,16296 9004,16365 9100,16420 9195,16475 9289,16501 9400,16501 9511,16501 9605,16475 9700,16420 9796,16365 9865,16296 9920,16200 9975,16105 10001,16011 10001,15900 10001,15789 9975,15695 9920,15600 9865,15504 9796,15435 9700,15380 9605,15325 9511,15300 9400,15300 L 9400,15300 Z"/>
         <path fill="none" stroke="rgb(51,51,51)" stroke-width="100" stroke-linejoin="round" d="M 9400,15300 C 9289,15300 9195,15325 9100,15380 9004,15435 8935,15504 8880,15600 8825,15695 8800,15789 8800,15900 8800,16011 8825,16105 8880,16200 8935,16296 9004,16365 9100,16420 9195,16475 9289,16501 9400,16501 9511,16501 9605,16475 9700,16420 9796,16365 9865,16296 9920,16200 9975,16105 10001,16011 10001,15900 10001,15789 9975,15695 9920,15600 9865,15504 9796,15435 9700,15380 9605,15325 9511,15300 9400,15300 Z"/>
        </g>
       </g>
       <g class="com.sun.star.drawing.CustomShape">
        <g id="id18">
         <rect class="BoundingBox" stroke="none" fill="none" x="8749" y="16849" width="1303" height="1303"/>
         <path fill="rgb(255,255,255)" stroke="none" d="M 9400,16900 C 9289,16900 9195,16925 9100,16980 9004,17035 8935,17104 8880,17200 8825,17295 8800,17389 8800,17500 8800,17611 8825,17705 8880,17800 8935,17896 9004,17965 9100,18020 9195,18075 9289,18101 9400,18101 9511,18101 9605,18075 9700,18020 9796,17965 9865,17896 9920,17800 9975,17705 10001,17611 10001,17500 10001,17389 9975,17295 9920,17200 9865,17104 9796,17035 9700,16980 9605,16925 9511,16900 9400,16900 L 9400,16900 Z"/>
         <path fill="none" stroke="rgb(51,51,51)" stroke-width="100" stroke-linejoin="round" d="M 9400,16900 C 9289,16900 9195,16925 9100,16980 9004,17035 8935,17104 8880,17200 8825,17295 8800,17389 8800,17500 8800,17611 8825,17705 8880,17800 8935,17896 9004,17965 9100,18020 9195,18075 9289,18101 9400,18101 9511,18101 9605,18075 9700,18020 9796,17965 9865,17896 9920,17800 9975,17705 10001,17611 10001,17500 10001,17389 9975,17295 9920,17200 9865,17104 9796,17035 9700,16980 9605,16925 9511,16900 9400,16900 Z"/>
        </g>
       </g>
       <g class="com.sun.star.drawing.CustomShape">
        <g id="id19">
         <rect class="BoundingBox" stroke="none" fill="none" x="5949" y="14450" width="1303" height="1303"/>
         <path fill="rgb(255,255,255)" stroke="none" d="M 6600,14501 C 6489,14501 6395,14526 6300,14581 6204,14636 6135,14705 6080,14801 6025,14896 6000,14990 6000,15101 6000,15212 6025,15306 6080,15401 6135,15497 6204,15566 6300,15621 6395,15676 6489,15702 6600,15702 6711,15702 6805,15676 6900,15621 6996,15566 7065,15497 7120,15401 7175,15306 7201,15212 7201,15101 7201,14990 7175,14896 7120,14801 7065,14705 6996,14636 6900,14581 6805,14526 6711,14501 6600,14501 L 6600,14501 Z"/>
         <path fill="none" stroke="rgb(51,51,51)" stroke-width="100" stroke-linejoin="round" d="M 6600,14501 C 6489,14501 6395,14526 6300,14581 6204,14636 6135,14705 6080,14801 6025,14896 6000,14990 6000,15101 6000,15212 6025,15306 6080,15401 6135,15497 6204,15566 6300,15621 6395,15676 6489,15702 6600,15702 6711,15702 6805,15676 6900,15621 6996,15566 7065,15497 7120,15401 7175,15306 7201,15212 7201,15101 7201,14990 7175,14896 7120,14801 7065,14705 6996,14636 6900,14581 6805,14526 6711,14501 6600,14501 L 6600,14501 Z"/>
        </g>
       </g>
       <g class="com.sun.star.drawing.CustomShape">
        <g id="id20">
         <rect class="BoundingBox" stroke="none" fill="none" x="5949" y="16050" width="1303" height="1303"/>
         <path fill="rgb(255,255,255)" stroke="none" d="M 6600,16101 C 6489,16101 6395,16126 6300,16181 6204,16236 6135,16305 6080,16401 6025,16496 6000,16590 6000,16701 6000,16812 6025,16906 6080,17001 6135,17097 6204,17166 6300,17221 6395,17276 6489,17302 6600,17302 6711,17302 6805,17276 6900,17221 6996,17166 7065,17097 7120,17001 7175,16906 7201,16812 7201,16701 7201,16590 7175,16496 7120,16401 7065,16305 6996,16236 6900,16181 6805,16126 6711,16101 6600,16101 L 6600,16101 Z"/>
         <path fill="none" stroke="rgb(51,51,51)" stroke-width="100" stroke-linejoin="round" d="M 6600,16101 C 6489,16101 6395,16126 6300,16181 6204,16236 6135,16305 6080,16401 6025,16496 6000,16590 6000,16701 6000,16812 6025,16906 6080,17001 6135,17097 6204,17166 6300,17221 6395,17276 6489,17302 6600,17302 6711,17302 6805,17276 6900,17221 6996,17166 7065,17097 7120,17001 7175,16906 7201,16812 7201,16701 7201,16590 7175,16496 7120,16401 7065,16305 6996,16236 6900,16181 6805,16126 6711,16101 6600,16101 L 6600,16101 Z"/>
        </g>
       </g>
       <g class="com.sun.star.drawing.ConnectorShape">
        <g id="id21">
         <rect class="BoundingBox" stroke="none" fill="none" x="7175" y="15076" width="1626" height="825"/>
         <path fill="none" stroke="rgb(128,128,128)" stroke-width="50" stroke-linejoin="round" d="M 8544,15772 L 7200,15101"/>
         <path fill="rgb(128,128,128)" stroke="none" d="M 8800,15900 L 8576,15677 8487,15855 8800,15900 Z"/>
        </g>
       </g>
       <g class="com.sun.star.drawing.ConnectorShape">
        <g id="id22">
         <rect class="BoundingBox" stroke="none" fill="none" x="7175" y="14300" width="1626" height="827"/>
         <path fill="none" stroke="rgb(128,128,128)" stroke-width="50" stroke-linejoin="round" d="M 8544,14428 L 7200,15101"/>
         <path fill="rgb(128,128,128)" stroke="none" d="M 8800,14300 L 8487,14345 8577,14524 8800,14300 Z"/>
        </g>
       </g>
       <g class="com.sun.star.drawing.ConnectorShape">
        <g id="id23">
         <rect class="BoundingBox" stroke="none" fill="none" x="7175" y="14300" width="1626" height="2427"/>
         <path fill="none" stroke="rgb(128,128,128)" stroke-width="50" stroke-linejoin="round" d="M 8641,14539 L 7200,16701"/>
         <path fill="rgb(128,128,128)" stroke="none" d="M 8800,14300 L 8550,14494 8717,14605 8800,14300 Z"/>
        </g>
       </g>
       <g class="com.sun.star.drawing.ConnectorShape">
        <g id="id24">
         <rect class="BoundingBox" stroke="none" fill="none" x="7175" y="15900" width="1626" height="827"/>
         <path fill="none" stroke="rgb(128,128,128)" stroke-width="50" stroke-linejoin="round" d="M 8544,16028 L 7200,16701"/>
         <path fill="rgb(128,128,128)" stroke="none" d="M 8800,15900 L 8487,15945 8577,16124 8800,15900 Z"/>
        </g>
       </g>
       <g class="com.sun.star.drawing.ConnectorShape">
        <g id="id25">
         <rect class="BoundingBox" stroke="none" fill="none" x="7175" y="15076" width="1626" height="2425"/>
         <path fill="none" stroke="rgb(128,128,128)" stroke-width="50" stroke-linejoin="round" d="M 8641,17262 L 7200,15101"/>
         <path fill="rgb(128,128,128)" stroke="none" d="M 8800,17500 L 8717,17195 8550,17306 8800,17500 Z"/>
        </g>
       </g>
       <g class="com.sun.star.drawing.ConnectorShape">
        <g id="id26">
         <rect class="BoundingBox" stroke="none" fill="none" x="7175" y="16676" width="1626" height="825"/>
         <path fill="none" stroke="rgb(128,128,128)" stroke-width="50" stroke-linejoin="round" d="M 8544,17372 L 7200,16701"/>
         <path fill="rgb(128,128,128)" stroke="none" d="M 8800,17500 L 8576,17277 8487,17455 8800,17500 Z"/>
        </g>
       </g>
      </g>
      <g class="com.sun.star.drawing.CustomShape">
       <g id="id27">
        <rect class="BoundingBox" stroke="none" fill="none" x="5549" y="7349" width="4902" height="5403"/>
        <path fill="rgb(255,182,108)" stroke="none" d="M 9600,7400 C 10000,7400 10400,7800 10400,8200 L 10400,11900 C 10400,12300 10000,12701 9600,12701 L 6400,12701 C 6000,12701 5599,12300 5599,11900 L 5599,8200 C 5599,7800 6000,7400 6400,7400 L 9600,7400 Z"/>
        <path fill="none" stroke="rgb(128,128,128)" stroke-width="100" stroke-linejoin="round" d="M 9600,7400 C 10000,7400 10400,7800 10400,8200 L 10400,11900 C 10400,12300 10000,12701 9600,12701 L 6400,12701 C 6000,12701 5599,12300 5599,11900 L 5599,8200 C 5599,7800 6000,7400 6400,7400 L 9600,7400 Z"/>
       </g>
      </g>
      <g class="Group">
       <g class="com.sun.star.drawing.CustomShape">
        <g id="id28">
         <rect class="BoundingBox" stroke="none" fill="none" x="8749" y="7849" width="1303" height="1303"/>
         <path fill="rgb(255,255,255)" stroke="none" d="M 9400,7900 C 9289,7900 9195,7925 9100,7980 9004,8035 8935,8104 8880,8200 8825,8295 8800,8389 8800,8500 8800,8611 8825,8705 8880,8800 8935,8896 9004,8965 9100,9020 9195,9075 9289,9101 9400,9101 9511,9101 9605,9075 9700,9020 9796,8965 9865,8896 9920,8800 9975,8705 10001,8611 10001,8500 10001,8389 9975,8295 9920,8200 9865,8104 9796,8035 9700,7980 9605,7925 9511,7900 9400,7900 L 9400,7900 Z"/>
         <path fill="none" stroke="rgb(51,51,51)" stroke-width="100" stroke-linejoin="round" d="M 9400,7900 C 9289,7900 9195,7925 9100,7980 9004,8035 8935,8104 8880,8200 8825,8295 8800,8389 8800,8500 8800,8611 8825,8705 8880,8800 8935,8896 9004,8965 9100,9020 9195,9075 9289,9101 9400,9101 9511,9101 9605,9075 9700,9020 9796,8965 9865,8896 9920,8800 9975,8705 10001,8611 10001,8500 10001,8389 9975,8295 9920,8200 9865,8104 9796,8035 9700,7980 9605,7925 9511,7900 9400,7900 Z"/>
        </g>
       </g>
       <g class="com.sun.star.drawing.CustomShape">
        <g id="id29">
         <rect class="BoundingBox" stroke="none" fill="none" x="8749" y="9449" width="1303" height="1303"/>
         <path fill="rgb(255,255,255)" stroke="none" d="M 9400,9500 C 9289,9500 9195,9525 9100,9580 9004,9635 8935,9704 8880,9800 8825,9895 8800,9989 8800,10100 8800,10211 8825,10305 8880,10400 8935,10496 9004,10565 9100,10620 9195,10675 9289,10701 9400,10701 9511,10701 9605,10675 9700,10620 9796,10565 9865,10496 9920,10400 9975,10305 10001,10211 10001,10100 10001,9989 9975,9895 9920,9800 9865,9704 9796,9635 9700,9580 9605,9525 9511,9500 9400,9500 L 9400,9500 Z"/>
         <path fill="none" stroke="rgb(51,51,51)" stroke-width="100" stroke-linejoin="round" d="M 9400,9500 C 9289,9500 9195,9525 9100,9580 9004,9635 8935,9704 8880,9800 8825,9895 8800,9989 8800,10100 8800,10211 8825,10305 8880,10400 8935,10496 9004,10565 9100,10620 9195,10675 9289,10701 9400,10701 9511,10701 9605,10675 9700,10620 9796,10565 9865,10496 9920,10400 9975,10305 10001,10211 10001,10100 10001,9989 9975,9895 9920,9800 9865,9704 9796,9635 9700,9580 9605,9525 9511,9500 9400,9500 Z"/>
        </g>
       </g>
       <g class="com.sun.star.drawing.CustomShape">
        <g id="id30">
         <rect class="BoundingBox" stroke="none" fill="none" x="8749" y="11049" width="1303" height="1303"/>
         <path fill="rgb(255,255,255)" stroke="none" d="M 9400,11100 C 9289,11100 9195,11125 9100,11180 9004,11235 8935,11304 8880,11400 8825,11495 8800,11589 8800,11700 8800,11811 8825,11905 8880,12000 8935,12096 9004,12165 9100,12220 9195,12275 9289,12301 9400,12301 9511,12301 9605,12275 9700,12220 9796,12165 9865,12096 9920,12000 9975,11905 10001,11811 10001,11700 10001,11589 9975,11495 9920,11400 9865,11304 9796,11235 9700,11180 9605,11125 9511,11100 9400,11100 L 9400,11100 Z"/>
         <path fill="none" stroke="rgb(51,51,51)" stroke-width="100" stroke-linejoin="round" d="M 9400,11100 C 9289,11100 9195,11125 9100,11180 9004,11235 8935,11304 8880,11400 8825,11495 8800,11589 8800,11700 8800,11811 8825,11905 8880,12000 8935,12096 9004,12165 9100,12220 9195,12275 9289,12301 9400,12301 9511,12301 9605,12275 9700,12220 9796,12165 9865,12096 9920,12000 9975,11905 10001,11811 10001,11700 10001,11589 9975,11495 9920,11400 9865,11304 9796,11235 9700,11180 9605,11125 9511,11100 9400,11100 Z"/>
        </g>
       </g>
       <g class="com.sun.star.drawing.CustomShape">
        <g id="id31">
         <rect class="BoundingBox" stroke="none" fill="none" x="5949" y="8650" width="1303" height="1303"/>
         <path fill="rgb(255,255,255)" stroke="none" d="M 6600,8701 C 6489,8701 6395,8726 6300,8781 6204,8836 6135,8905 6080,9001 6025,9096 6000,9190 6000,9301 6000,9412 6025,9506 6080,9601 6135,9697 6204,9766 6300,9821 6395,9876 6489,9902 6600,9902 6711,9902 6805,9876 6900,9821 6996,9766 7065,9697 7120,9601 7175,9506 7201,9412 7201,9301 7201,9190 7175,9096 7120,9001 7065,8905 6996,8836 6900,8781 6805,8726 6711,8701 6600,8701 L 6600,8701 Z"/>
         <path fill="none" stroke="rgb(51,51,51)" stroke-width="100" stroke-linejoin="round" d="M 6600,8701 C 6489,8701 6395,8726 6300,8781 6204,8836 6135,8905 6080,9001 6025,9096 6000,9190 6000,9301 6000,9412 6025,9506 6080,9601 6135,9697 6204,9766 6300,9821 6395,9876 6489,9902 6600,9902 6711,9902 6805,9876 6900,9821 6996,9766 7065,9697 7120,9601 7175,9506 7201,9412 7201,9301 7201,9190 7175,9096 7120,9001 7065,8905 6996,8836 6900,8781 6805,8726 6711,8701 6600,8701 L 6600,8701 Z"/>
        </g>
       </g>
       <g class="com.sun.star.drawing.CustomShape">
        <g id="id32">
         <rect class="BoundingBox" stroke="none" fill="none" x="5949" y="10250" width="1303" height="1303"/>
         <path fill="rgb(255,255,255)" stroke="none" d="M 6600,10301 C 6489,10301 6395,10326 6300,10381 6204,10436 6135,10505 6080,10601 6025,10696 6000,10790 6000,10901 6000,11012 6025,11106 6080,11201 6135,11297 6204,11366 6300,11421 6395,11476 6489,11502 6600,11502 6711,11502 6805,11476 6900,11421 6996,11366 7065,11297 7120,11201 7175,11106 7201,11012 7201,10901 7201,10790 7175,10696 7120,10601 7065,10505 6996,10436 6900,10381 6805,10326 6711,10301 6600,10301 L 6600,10301 Z"/>
         <path fill="none" stroke="rgb(51,51,51)" stroke-width="100" stroke-linejoin="round" d="M 6600,10301 C 6489,10301 6395,10326 6300,10381 6204,10436 6135,10505 6080,10601 6025,10696 6000,10790 6000,10901 6000,11012 6025,11106 6080,11201 6135,11297 6204,11366 6300,11421 6395,11476 6489,11502 6600,11502 6711,11502 6805,11476 6900,11421 6996,11366 7065,11297 7120,11201 7175,11106 7201,11012 7201,10901 7201,10790 7175,10696 7120,10601 7065,10505 6996,10436 6900,10381 6805,10326 6711,10301 6600,10301 L 6600,10301 Z"/>
        </g>
       </g>
       <g class="com.sun.star.drawing.ConnectorShape">
        <g id="id33">
         <rect class="BoundingBox" stroke="none" fill="none" x="7175" y="9276" width="1626" height="825"/>
         <path fill="none" stroke="rgb(128,128,128)" stroke-width="50" stroke-linejoin="round" d="M 8544,9972 L 7200,9301"/>
         <path fill="rgb(128,128,128)" stroke="none" d="M 8800,10100 L 8576,9877 8487,10055 8800,10100 Z"/>
        </g>
       </g>
       <g class="com.sun.star.drawing.ConnectorShape">
        <g id="id34">
         <rect class="BoundingBox" stroke="none" fill="none" x="7175" y="8500" width="1626" height="827"/>
         <path fill="none" stroke="rgb(128,128,128)" stroke-width="50" stroke-linejoin="round" d="M 8544,8628 L 7200,9301"/>
         <path fill="rgb(128,128,128)" stroke="none" d="M 8800,8500 L 8487,8545 8577,8724 8800,8500 Z"/>
        </g>
       </g>
       <g class="com.sun.star.drawing.ConnectorShape">
        <g id="id35">
         <rect class="BoundingBox" stroke="none" fill="none" x="7175" y="8500" width="1626" height="2427"/>
         <path fill="none" stroke="rgb(128,128,128)" stroke-width="50" stroke-linejoin="round" d="M 8641,8739 L 7200,10901"/>
         <path fill="rgb(128,128,128)" stroke="none" d="M 8800,8500 L 8550,8694 8717,8805 8800,8500 Z"/>
        </g>
       </g>
       <g class="com.sun.star.drawing.ConnectorShape">
        <g id="id36">
         <rect class="BoundingBox" stroke="none" fill="none" x="7175" y="10100" width="1626" height="827"/>
         <path fill="none" stroke="rgb(128,128,128)" stroke-width="50" stroke-linejoin="round" d="M 8544,10228 L 7200,10901"/>
         <path fill="rgb(128,128,128)" stroke="none" d="M 8800,10100 L 8487,10145 8577,10324 8800,10100 Z"/>
        </g>
       </g>
       <g class="com.sun.star.drawing.ConnectorShape">
        <g id="id37">
         <rect class="BoundingBox" stroke="none" fill="none" x="7175" y="9276" width="1626" height="2425"/>
         <path fill="none" stroke="rgb(128,128,128)" stroke-width="50" stroke-linejoin="round" d="M 8641,11462 L 7200,9301"/>
         <path fill="rgb(128,128,128)" stroke="none" d="M 8800,11700 L 8717,11395 8550,11506 8800,11700 Z"/>
        </g>
       </g>
       <g class="com.sun.star.drawing.ConnectorShape">
        <g id="id38">
         <rect class="BoundingBox" stroke="none" fill="none" x="7175" y="10876" width="1626" height="825"/>
         <path fill="none" stroke="rgb(128,128,128)" stroke-width="50" stroke-linejoin="round" d="M 8544,11572 L 7200,10901"/>
         <path fill="rgb(128,128,128)" stroke="none" d="M 8800,11700 L 8576,11477 8487,11655 8800,11700 Z"/>
        </g>
       </g>
      </g>
      <g class="com.sun.star.drawing.ConnectorShape">
       <g id="id39">
        <rect class="BoundingBox" stroke="none" fill="none" x="5063" y="11075" width="526" height="351"/>
        <path fill="rgb(51,51,51)" stroke="none" d="M 5588,11250 L 5063,11075 5063,11425 5588,11250 Z"/>
       </g>
      </g>
      <g class="com.sun.star.drawing.ConnectorShape">
       <g id="id40">
        <rect class="BoundingBox" stroke="none" fill="none" x="5051" y="14275" width="526" height="351"/>
        <path fill="rgb(51,51,51)" stroke="none" d="M 5576,14450 L 5051,14275 5051,14625 5576,14450 Z"/>
       </g>
      </g>
     </g>
    </g>
   </g>
  </g>
 </g>
</svg>