<?xml version="1.0" encoding="UTF-8"?>
<!DOCTYPE svg PUBLIC "-//W3C//DTD SVG 1.1//EN" "http://www.w3.org/Graphics/SVG/1.1/DTD/svg11.dtd">
<svg version="1.2" width="102mm" height="112.02mm" viewBox="11150 7350 10200 11202" preserveAspectRatio="xMidYMid" fill-rule="evenodd" stroke-width="28.222" stroke-linejoin="round" xmlns="http://www.w3.org/2000/svg" xmlns:ooo="http://xml.openoffice.org/svg/export" xmlns:xlink="http://www.w3.org/1999/xlink" xmlns:presentation="http://sun.com/xmlns/staroffice/presentation" xmlns:smil="http://www.w3.org/2001/SMIL20/" xmlns:anim="urn:oasis:names:tc:opendocument:xmlns:animation:1.0" xml:space="preserve">
 <defs class="ClipPathGroup">
  <clipPath id="presentation_clip_path" clipPathUnits="userSpaceOnUse">
   <rect x="11150" y="7350" width="10200" height="11202"/>
  </clipPath>
  <clipPath id="presentation_clip_path_shrink" clipPathUnits="userSpaceOnUse">
   <rect x="11160" y="7361" width="10180" height="11180"/>
  </clipPath>
 </defs>
 <defs class="TextShapeIndex">
  <g ooo:slide="id1" ooo:id-list="id3 id4 id5 id6 id7 id8 id9 id10 id11 id12 id13 id14 id15 id16 id17 id18 id19 id20 id21 id22 id23 id24 id25 id26 id27 id28 id29 id30 id31 id32 id33 id34 id35 id36 id37 id38 id39 id40"/>
 </defs>
 <defs class="EmbeddedBulletChars">
  <g id="bullet-char-template-57356" transform="scale(0.00048828125,-0.00048828125)">
   <path d="M 580,1141 L 1163,571 580,0 -4,571 580,1141 Z"/>
  </g>
  <g id="bullet-char-template-57354" transform="scale(0.00048828125,-0.00048828125)">
   <path d="M 8,1128 L 1137,1128 1137,0 8,0 8,1128 Z"/>
  </g>
  <g id="bullet-char-template-10146" transform="scale(0.00048828125,-0.00048828125)">
   <path d="M 174,0 L 602,739 174,1481 1456,739 174,0 Z M 1358,739 L 309,1346 659,739 1358,739 Z"/>
  </g>
  <g id="bullet-char-template-10132" transform="scale(0.00048828125,-0.00048828125)">
   <path d="M 2015,739 L 1276,0 717,0 1260,543 174,543 174,936 1260,936 717,1481 1274,1481 2015,739 Z"/>
  </g>
  <g id="bullet-char-template-10007" transform="scale(0.00048828125,-0.00048828125)">
   <path d="M 0,-2 C -7,14 -16,27 -25,37 L 356,567 C 262,823 215,952 215,954 215,979 228,992 255,992 264,992 276,990 289,987 310,991 331,999 354,1012 L 381,999 492,748 772,1049 836,1024 860,1049 C 881,1039 901,1025 922,1006 886,937 835,863 770,784 769,783 710,716 594,584 L 774,223 C 774,196 753,168 711,139 L 727,119 C 717,90 699,76 672,76 641,76 570,178 457,381 L 164,-76 C 142,-110 111,-127 72,-127 30,-127 9,-110 8,-76 1,-67 -2,-52 -2,-32 -2,-23 -1,-13 0,-2 Z"/>
  </g>
  <g id="bullet-char-template-10004" transform="scale(0.00048828125,-0.00048828125)">
   <path d="M 285,-33 C 182,-33 111,30 74,156 52,228 41,333 41,471 41,549 55,616 82,672 116,743 169,778 240,778 293,778 328,747 346,684 L 369,508 C 377,444 397,411 428,410 L 1163,1116 C 1174,1127 1196,1133 1229,1133 1271,1133 1292,1118 1292,1087 L 1292,965 C 1292,929 1282,901 1262,881 L 442,47 C 390,-6 338,-33 285,-33 Z"/>
  </g>
  <g id="bullet-char-template-9679" transform="scale(0.00048828125,-0.00048828125)">
   <path d="M 813,0 C 632,0 489,54 383,161 276,268 223,411 223,592 223,773 276,916 383,1023 489,1130 632,1184 813,1184 992,1184 1136,1130 1245,1023 1353,916 1407,772 1407,592 1407,412 1353,268 1245,161 1136,54 992,0 813,0 Z"/>
  </g>
  <g id="bullet-char-template-8226" transform="scale(0.00048828125,-0.00048828125)">
   <path d="M 346,457 C 273,457 209,483 155,535 101,586 74,649 74,723 74,796 101,859 155,911 209,963 273,989 346,989 419,989 480,963 531,910 582,859 608,796 608,723 608,648 583,586 532,535 482,483 420,457 346,457 Z"/>
  </g>
  <g id="bullet-char-template-8211" transform="scale(0.00048828125,-0.00048828125)">
   <path d="M -4,459 L 1135,459 1135,606 -4,606 -4,459 Z"/>
  </g>
  <g id="bullet-char-template-61548" transform="scale(0.00048828125,-0.00048828125)">
   <path d="M 173,740 C 173,903 231,1043 346,1159 462,1274 601,1332 765,1332 928,1332 1067,1274 1183,1159 1299,1043 1357,903 1357,740 1357,577 1299,437 1183,322 1067,206 928,148 765,148 601,148 462,206 346,322 231,437 173,577 173,740 Z"/>
  </g>
 </defs>
 <defs class="TextEmbeddedBitmaps"/>
 <g class="SlideGroup">
  <g>
   <g id="container-id1">
    <g id="id1" class="Slide" clip-path="url(#presentation_clip_path)">
     <g class="Page">
      <g class="com.sun.star.drawing.CustomShape">
       <g id="id3">
        <rect class="BoundingBox" stroke="none" fill="none" x="11150" y="7349" width="4902" height="5403"/>
        <path fill="rgb(255,166,166)" stroke="none" d="M 12000,7400 C 11600,7400 11200,7800 11200,8200 L 11200,11900 C 11200,12300 11600,12701 12000,12701 L 15200,12701 C 15600,12701 16001,12300 16001,11900 L 16001,8200 C 16001,7800 15600,7400 15200,7400 L 12000,7400 Z"/>
        <path fill="none" stroke="rgb(128,128,128)" stroke-width="100" stroke-linejoin="round" d="M 12000,7400 C 11600,7400 11200,7800 11200,8200 L 11200,11900 C 11200,12300 11600,12701 12000,12701 L 15200,12701 C 15600,12701 16001,12300 16001,11900 L 16001,8200 C 16001,7800 15600,7400 15200,7400 L 12000,7400 Z"/>
       </g>
      </g>
      <g class="Group">
       <g class="com.sun.star.drawing.CustomShape">
        <g id="id4">
         <rect class="BoundingBox" stroke="none" fill="none" x="11549" y="7849" width="1303" height="1303"/>
         <path fill="rgb(255,255,255)" stroke="none" d="M 12200,7900 C 12311,7900 12405,7925 12500,7980 12596,8035 12665,8104 12720,8200 12775,8295 12801,8389 12801,8500 12801,8611 12775,8705 12720,8800 12665,8896 12596,8965 12500,9020 12405,9075 12311,9101 12200,9101 12089,9101 11995,9075 11900,9020 11804,8965 11735,8896 11680,8800 11625,8705 11600,8611 11600,8500 11600,8389 11625,8295 11680,8200 11735,8104 11804,8035 11900,7980 11995,7925 12089,7900 12200,7900 L 12200,7900 Z"/>
         <path fill="none" stroke="rgb(51,51,51)" stroke-width="100" stroke-linejoin="round" d="M 12200,7900 C 12311,7900 12405,7925 12500,7980 12596,8035 12665,8104 12720,8200 12775,8295 12801,8389 12801,8500 12801,8611 12775,8705 12720,8800 12665,8896 12596,8965 12500,9020 12405,9075 12311,9101 12200,9101 12089,9101 11995,9075 11900,9020 11804,8965 11735,8896 11680,8800 11625,8705 11600,8611 11600,8500 11600,8389 11625,8295 11680,8200 11735,8104 11804,8035 11900,7980 11995,7925 12089,7900 12200,7900 Z"/>
        </g>
       </g>
       <g class="com.sun.star.drawing.CustomShape">
        <g id="id5">
         <rect class="BoundingBox" stroke="none" fill="none" x="11549" y="9449" width="1303" height="1303"/>
         <path fill="rgb(255,255,255)" stroke="none" d="M 12200,9500 C 12311,9500 12405,9525 12500,9580 12596,9635 12665,9704 12720,9800 12775,9895 12801,9989 12801,10100 12801,10211 12775,10305 12720,10400 12665,10496 12596,10565 12500,10620 12405,10675 12311,10701 12200,10701 12089,10701 11995,10675 11900,10620 11804,10565 11735,10496 11680,10400 11625,10305 11600,10211 11600,10100 11600,9989 11625,9895 11680,9800 11735,9704 11804,9635 11900,9580 11995,9525 12089,9500 12200,9500 L 12200,9500 Z"/>
         <path fill="none" stroke="rgb(51,51,51)" stroke-width="100" stroke-linejoin="round" d="M 12200,9500 C 12311,9500 12405,9525 12500,9580 12596,9635 12665,9704 12720,9800 12775,9895 12801,9989 12801,10100 12801,10211 12775,10305 12720,10400 12665,10496 12596,10565 12500,10620 12405,10675 12311,10701 12200,10701 12089,10701 11995,10675 11900,10620 11804,10565 11735,10496 11680,10400 11625,10305 11600,10211 11600,10100 11600,9989 11625,9895 11680,9800 11735,9704 11804,9635 11900,9580 11995,9525 12089,9500 12200,9500 Z"/>
        </g>
       </g>
       <g class="com.sun.star.drawing.CustomShape">
        <g id="id6">
         <rect class="BoundingBox" stroke="none" fill="none" x="11549" y="11049" width="1303" height="1303"/>
         <path fill="rgb(255,255,255)" stroke="none" d="M 12200,11100 C 12311,11100 12405,11125 12500,11180 12596,11235 12665,11304 12720,11400 12775,11495 12801,11589 12801,11700 12801,11811 12775,11905 12720,12000 12665,12096 12596,12165 12500,12220 12405,12275 12311,12301 12200,12301 12089,12301 11995,12275 11900,12220 11804,12165 11735,12096 11680,12000 11625,11905 11600,11811 11600,11700 11600,11589 11625,11495 11680,11400 11735,11304 11804,11235 11900,11180 11995,11125 12089,11100 12200,11100 L 12200,11100 Z"/>
         <path fill="none" stroke="rgb(51,51,51)" stroke-width="100" stroke-linejoin="round" d="M 12200,11100 C 12311,11100 12405,11125 12500,11180 12596,11235 12665,11304 12720,11400 12775,11495 12801,11589 12801,11700 12801,11811 12775,11905 12720,12000 12665,12096 12596,12165 12500,12220 12405,12275 12311,12301 12200,12301 12089,12301 11995,12275 11900,12220 11804,12165 11735,12096 11680,12000 11625,11905 11600,11811 11600,11700 11600,11589 11625,11495 11680,11400 11735,11304 11804,11235 11900,11180 11995,11125 12089,11100 12200,11100 Z"/>
        </g>
       </g>
       <g class="com.sun.star.drawing.CustomShape">
        <g id="id7">
         <rect class="BoundingBox" stroke="none" fill="none" x="14349" y="8650" width="1303" height="1303"/>
         <path fill="rgb(255,255,255)" stroke="none" d="M 15000,8701 C 15111,8701 15205,8726 15300,8781 15396,8836 15465,8905 15520,9001 15575,9096 15601,9190 15601,9301 15601,9412 15575,9506 15520,9601 15465,9697 15396,9766 15300,9821 15205,9876 15111,9902 15000,9902 14889,9902 14795,9876 14700,9821 14604,9766 14535,9697 14480,9601 14425,9506 14400,9412 14400,9301 14400,9190 14425,9096 14480,9001 14535,8905 14604,8836 14700,8781 14795,8726 14889,8701 15000,8701 L 15000,8701 Z"/>
         <path fill="none" stroke="rgb(51,51,51)" stroke-width="100" stroke-linejoin="round" d="M 15000,8701 C 15111,8701 15205,8726 15300,8781 15396,8836 15465,8905 15520,9001 15575,9096 15601,9190 15601,9301 15601,9412 15575,9506 15520,9601 15465,9697 15396,9766 15300,9821 15205,9876 15111,9902 15000,9902 14889,9902 14795,9876 14700,9821 14604,9766 14535,9697 14480,9601 14425,9506 14400,9412 14400,9301 14400,9190 14425,9096 14480,9001 14535,8905 14604,8836 14700,8781 14795,8726 14889,8701 15000,8701 Z"/>
        </g>
       </g>
       <g class="com.sun.star.drawing.CustomShape">
        <g id="id8">
         <rect class="BoundingBox" stroke="none" fill="none" x="14349" y="10250" width="1303" height="1303"/>
         <path fill="rgb(255,255,255)" stroke="none" d="M 15000,10301 C 15111,10301 15205,10326 15300,10381 15396,10436 15465,10505 15520,10601 15575,10696 15601,10790 15601,10901 15601,11012 15575,11106 15520,11201 15465,11297 15396,11366 15300,11421 15205,11476 15111,11502 15000,11502 14889,11502 14795,11476 14700,11421 14604,11366 14535,11297 14480,11201 14425,11106 14400,11012 14400,10901 14400,10790 14425,10696 14480,10601 14535,10505 14604,10436 14700,10381 14795,10326 14889,10301 15000,10301 L 15000,10301 Z"/>
         <path fill="none" stroke="rgb(51,51,51)" stroke-width="100" stroke-linejoin="round" d="M 15000,10301 C 15111,10301 15205,10326 15300,10381 15396,10436 15465,10505 15520,10601 15575,10696 15601,10790 15601,10901 15601,11012 15575,11106 15520,11201 15465,11297 15396,11366 15300,11421 15205,11476 15111,11502 15000,11502 14889,11502 14795,11476 14700,11421 14604,11366 14535,11297 14480,11201 14425,11106 14400,11012 14400,10901 14400,10790 14425,10696 14480,10601 14535,10505 14604,10436 14700,10381 14795,10326 14889,10301 15000,10301 Z"/>
        </g>
       </g>
       <g class="com.sun.star.drawing.ConnectorShape">
        <g id="id9">
         <rect class="BoundingBox" stroke="none" fill="none" x="12775" y="9301" width="1626" height="825"/>
         <path fill="none" stroke="rgb(128,128,128)" stroke-width="50" stroke-linejoin="round" d="M 12800,10100 L 14144,9429"/>
         <path fill="rgb(128,128,128)" stroke="none" d="M 14400,9301 L 14087,9346 14176,9524 14400,9301 Z"/>
        </g>
       </g>
       <g class="com.sun.star.drawing.ConnectorShape">
        <g id="id10">
         <rect class="BoundingBox" stroke="none" fill="none" x="12775" y="8475" width="1626" height="827"/>
         <path fill="none" stroke="rgb(128,128,128)" stroke-width="50" stroke-linejoin="round" d="M 12800,8500 L 14144,9173"/>
         <path fill="rgb(128,128,128)" stroke="none" d="M 14400,9301 L 14177,9077 14087,9256 14400,9301 Z"/>
        </g>
       </g>
       <g class="com.sun.star.drawing.ConnectorShape">
        <g id="id11">
         <rect class="BoundingBox" stroke="none" fill="none" x="12775" y="8475" width="1626" height="2427"/>
         <path fill="none" stroke="rgb(128,128,128)" stroke-width="50" stroke-linejoin="round" d="M 12800,8500 L 14241,10662"/>
         <path fill="rgb(128,128,128)" stroke="none" d="M 14400,10901 L 14317,10596 14150,10707 14400,10901 Z"/>
        </g>
       </g>
       <g class="com.sun.star.drawing.ConnectorShape">
        <g id="id12">
         <rect class="BoundingBox" stroke="none" fill="none" x="12775" y="10075" width="1626" height="827"/>
         <path fill="none" stroke="rgb(128,128,128)" stroke-width="50" stroke-linejoin="round" d="M 12800,10100 L 14144,10773"/>
         <path fill="rgb(128,128,128)" stroke="none" d="M 14400,10901 L 14177,10677 14087,10856 14400,10901 Z"/>
        </g>
       </g>
       <g class="com.sun.star.drawing.ConnectorShape">
        <g id="id13">
         <rect class="BoundingBox" stroke="none" fill="none" x="12775" y="9301" width="1626" height="2425"/>
         <path fill="none" stroke="rgb(128,128,128)" stroke-width="50" stroke-linejoin="round" d="M 12800,11700 L 14241,9539"/>
         <path fill="rgb(128,128,128)" stroke="none" d="M 14400,9301 L 14150,9495 14317,9606 14400,9301 Z"/>
        </g>
       </g>
       <g class="com.sun.star.drawing.ConnectorShape">
        <g id="id14">
         <rect class="BoundingBox" stroke="none" fill="none" x="12775" y="10901" width="1626" height="825"/>
         <path fill="none" stroke="rgb(128,128,128)" stroke-width="50" stroke-linejoin="round" d="M 12800,11700 L 14144,11029"/>
         <path fill="rgb(128,128,128)" stroke="none" d="M 14400,10901 L 14087,10946 14176,11124 14400,10901 Z"/>
        </g>
       </g>
      </g>
      <g class="com.sun.star.drawing.CustomShape">
       <g id="id15">
        <rect class="BoundingBox" stroke="none" fill="none" x="11151" y="13151" width="4902" height="5402"/>
        <path fill="rgb(175,208,149)" stroke="none" d="M 12001,13201 C 11601,13201 11201,13601 11201,14001 L 11201,17701 C 11201,18101 11601,18502 12001,18502 L 15201,18502 C 15601,18502 16002,18101 16002,17701 L 16002,14001 C 16002,13601 15601,13201 15201,13201 L 12001,13201 Z"/>
        <path fill="none" stroke="rgb(128,128,128)" stroke-width="100" stroke-linejoin="round" d="M 12001,13201 C 11601,13201 11201,13601 11201,14001 L 11201,17701 C 11201,18101 11601,18502 12001,18502 L 15201,18502 C 15601,18502 16002,18101 16002,17701 L 16002,14001 C 16002,13601 15601,13201 15201,13201 L 12001,13201 Z"/>
       </g>
      </g>
      <g class="Group">
       <g class="com.sun.star.drawing.CustomShape">
        <g id="id16">
         <rect class="BoundingBox" stroke="none" fill="none" x="11550" y="13650" width="1303" height="1303"/>
         <path fill="rgb(255,255,255)" stroke="none" d="M 12201,13701 C 12312,13701 12406,13726 12501,13781 12597,13836 12666,13905 12721,14001 12776,14096 12802,14190 12802,14301 12802,14412 12776,14506 12721,14601 12666,14697 12597,14766 12501,14821 12406,14876 12312,14902 12201,14902 12090,14902 11996,14876 11901,14821 11805,14766 11736,14697 11681,14601 11626,14506 11601,14412 11601,14301 11601,14190 11626,14096 11681,14001 11736,13905 11805,13836 11901,13781 11996,13726 12090,13701 12201,13701 L 12201,13701 Z"/>
         <path fill="none" stroke="rgb(51,51,51)" stroke-width="100" stroke-linejoin="round" d="M 12201,13701 C 12312,13701 12406,13726 12501,13781 12597,13836 12666,13905 12721,14001 12776,14096 12802,14190 12802,14301 12802,14412 12776,14506 12721,14601 12666,14697 12597,14766 12501,14821 12406,14876 12312,14902 12201,14902 12090,14902 11996,14876 11901,14821 11805,14766 11736,14697 11681,14601 11626,14506 11601,14412 11601,14301 11601,14190 11626,14096 11681,14001 11736,13905 11805,13836 11901,13781 11996,13726 12090,13701 12201,13701 Z"/>
        </g>
       </g>
       <g class="com.sun.star.drawing.CustomShape">
        <g id="id17">
         <rect class="BoundingBox" stroke="none" fill="none" x="11550" y="15250" width="1303" height="1303"/>
         <path fill="rgb(255,255,255)" stroke="none" d="M 12201,15301 C 12312,15301 12406,15326 12501,15381 12597,15436 12666,15505 12721,15601 12776,15696 12802,15790 12802,15901 12802,16012 12776,16106 12721,16201 12666,16297 12597,16366 12501,16421 12406,16476 12312,16502 12201,16502 12090,16502 11996,16476 11901,16421 11805,16366 11736,16297 11681,16201 11626,16106 11601,16012 11601,15901 11601,15790 11626,15696 11681,15601 11736,15505 11805,15436 11901,15381 11996,15326 12090,15301 12201,15301 L 12201,15301 Z"/>
         <path fill="none" stroke="rgb(51,51,51)" stroke-width="100" stroke-linejoin="round" d="M 12201,15301 C 12312,15301 12406,15326 12501,15381 12597,15436 12666,15505 12721,15601 12776,15696 12802,15790 12802,15901 12802,16012 12776,16106 12721,16201 12666,16297 12597,16366 12501,16421 12406,16476 12312,16502 12201,16502 12090,16502 11996,16476 11901,16421 11805,16366 11736,16297 11681,16201 11626,16106 11601,16012 11601,15901 11601,15790 11626,15696 11681,15601 11736,15505 11805,15436 11901,15381 11996,15326 12090,15301 12201,15301 Z"/>
        </g>
       </g>
       <g class="com.sun.star.drawing.CustomShape">
        <g id="id18">
         <rect class="BoundingBox" stroke="none" fill="none" x="11550" y="16850" width="1303" height="1303"/>
         <path fill="rgb(255,255,255)" stroke="none" d="M 12201,16901 C 12312,16901 12406,16926 12501,16981 12597,17036 12666,17105 12721,17201 12776,17296 12802,17390 12802,17501 12802,17612 12776,17706 12721,17801 12666,17897 12597,17966 12501,18021 12406,18076 12312,18102 12201,18102 12090,18102 11996,18076 11901,18021 11805,17966 11736,17897 11681,17801 11626,17706 11601,17612 11601,17501 11601,17390 11626,17296 11681,17201 11736,17105 11805,17036 11901,16981 11996,16926 12090,16901 12201,16901 L 12201,16901 Z"/>
         <path fill="none" stroke="rgb(51,51,51)" stroke-width="100" stroke-linejoin="round" d="M 12201,16901 C 12312,16901 12406,16926 12501,16981 12597,17036 12666,17105 12721,17201 12776,17296 12802,17390 12802,17501 12802,17612 12776,17706 12721,17801 12666,17897 12597,17966 12501,18021 12406,18076 12312,18102 12201,18102 12090,18102 11996,18076 11901,18021 11805,17966 11736,17897 11681,17801 11626,17706 11601,17612 11601,17501 11601,17390 11626,17296 11681,17201 11736,17105 11805,17036 11901,16981 11996,16926 12090,16901 12201,16901 Z"/>
        </g>
       </g>
       <g class="com.sun.star.drawing.CustomShape">
        <g id="id19">
         <rect class="BoundingBox" stroke="none" fill="none" x="14350" y="14451" width="1303" height="1303"/>
         <path fill="rgb(255,255,255)" stroke="none" d="M 15001,14502 C 15112,14502 15206,14527 15301,14582 15397,14637 15466,14706 15521,14802 15576,14897 15602,14991 15602,15102 15602,15213 15576,15307 15521,15402 15466,15498 15397,15567 15301,15622 15206,15677 15112,15703 15001,15703 14890,15703 14796,15677 14701,15622 14605,15567 14536,15498 14481,15402 14426,15307 14401,15213 14401,15102 14401,14991 14426,14897 14481,14802 14536,14706 14605,14637 14701,14582 14796,14527 14890,14502 15001,14502 L 15001,14502 Z"/>
         <path fill="none" stroke="rgb(51,51,51)" stroke-width="100" stroke-linejoin="round" d="M 15001,14502 C 15112,14502 15206,14527 15301,14582 15397,14637 15466,14706 15521,14802 15576,14897 15602,14991 15602,15102 15602,15213 15576,15307 15521,15402 15466,15498 15397,15567 15301,15622 15206,15677 15112,15703 15001,15703 14890,15703 14796,15677 14701,15622 14605,15567 14536,15498 14481,15402 14426,15307 14401,15213 14401,15102 14401,14991 14426,14897 14481,14802 14536,14706 14605,14637 14701,14582 14796,14527 14890,14502 15001,14502 Z"/>
        </g>
       </g>
       <g class="com.sun.star.drawing.CustomShape">
        <g id="id20">
         <rect class="BoundingBox" stroke="none" fill="none" x="14350" y="16051" width="1303" height="1303"/>
         <path fill="rgb(255,255,255)" stroke="none" d="M 15001,16102 C 15112,16102 15206,16127 15301,16182 15397,16237 15466,16306 15521,16402 15576,16497 15602,16591 15602,16702 15602,16813 15576,16907 15521,17002 15466,17098 15397,17167 15301,17222 15206,17277 15112,17303 15001,17303 14890,17303 14796,17277 14701,17222 14605,17167 14536,17098 14481,17002 14426,16907 14401,16813 14401,16702 14401,16591 14426,16497 14481,16402 14536,16306 14605,16237 14701,16182 14796,16127 14890,16102 15001,16102 L 15001,16102 Z"/>
         <path fill="none" stroke="rgb(51,51,51)" stroke-width="100" stroke-linejoin="round" d="M 15001,16102 C 15112,16102 15206,16127 15301,16182 15397,16237 15466,16306 15521,16402 15576,16497 15602,16591 15602,16702 15602,16813 15576,16907 15521,17002 15466,17098 15397,17167 15301,17222 15206,17277 15112,17303 15001,17303 14890,17303 14796,17277 14701,17222 14605,17167 14536,17098 14481,17002 14426,16907 14401,16813 14401,16702 14401,16591 14426,16497 14481,16402 14536,16306 14605,16237 14701,16182 14796,16127 14890,16102 15001,16102 Z"/>
        </g>
       </g>
       <g class="com.sun.star.drawing.ConnectorShape">
        <g id="id21">
         <rect class="BoundingBox" stroke="none" fill="none" x="12776" y="15102" width="1626" height="825"/>
         <path fill="none" stroke="rgb(128,128,128)" stroke-width="50" stroke-linejoin="round" d="M 12801,15901 L 14145,15230"/>
         <path fill="rgb(128,128,128)" stroke="none" d="M 14401,15102 L 14088,15147 14177,15325 14401,15102 Z"/>
        </g>
       </g>
       <g class="com.sun.star.drawing.ConnectorShape">
        <g id="id22">
         <rect class="BoundingBox" stroke="none" fill="none" x="12776" y="14276" width="1626" height="827"/>
         <path fill="none" stroke="rgb(128,128,128)" stroke-width="50" stroke-linejoin="round" d="M 12801,14301 L 14145,14974"/>
         <path fill="rgb(128,128,128)" stroke="none" d="M 14401,15102 L 14178,14878 14088,15057 14401,15102 Z"/>
        </g>
       </g>
       <g class="com.sun.star.drawing.ConnectorShape">
        <g id="id23">
         <rect class="BoundingBox" stroke="none" fill="none" x="12776" y="14276" width="1626" height="2427"/>
         <path fill="none" stroke="rgb(128,128,128)" stroke-width="50" stroke-linejoin="round" d="M 12801,14301 L 14242,16463"/>
         <path fill="rgb(128,128,128)" stroke="none" d="M 14401,16702 L 14318,16397 14151,16508 14401,16702 Z"/>
        </g>
       </g>
       <g class="com.sun.star.drawing.ConnectorShape">
        <g id="id24">
         <rect class="BoundingBox" stroke="none" fill="none" x="12776" y="15876" width="1626" height="827"/>
         <path fill="none" stroke="rgb(128,128,128)" stroke-width="50" stroke-linejoin="round" d="M 12801,15901 L 14145,16574"/>
         <path fill="rgb(128,128,128)" stroke="none" d="M 14401,16702 L 14178,16478 14088,16657 14401,16702 Z"/>
        </g>
       </g>
       <g class="com.sun.star.drawing.ConnectorShape">
        <g id="id25">
         <rect class="BoundingBox" stroke="none" fill="none" x="12776" y="15102" width="1626" height="2425"/>
         <path fill="none" stroke="rgb(128,128,128)" stroke-width="50" stroke-linejoin="round" d="M 12801,17501 L 14242,15340"/>
         <path fill="rgb(128,128,128)" stroke="none" d="M 14401,15102 L 14151,15296 14318,15407 14401,15102 Z"/>
        </g>
       </g>
       <g class="com.sun.star.drawing.ConnectorShape">
        <g id="id26">
         <rect class="BoundingBox" stroke="none" fill="none" x="12776" y="16702" width="1626" height="825"/>
         <path fill="none" stroke="rgb(128,128,128)" stroke-width="50" stroke-linejoin="round" d="M 12801,17501 L 14145,16830"/>
         <path fill="rgb(128,128,128)" stroke="none" d="M 14401,16702 L 14088,16747 14177,16925 14401,16702 Z"/>
        </g>
       </g>
      </g>
      <g class="com.sun.star.drawing.CustomShape">
       <g id="id27">
        <rect class="BoundingBox" stroke="none" fill="none" x="16449" y="10250" width="4902" height="5402"/>
        <path fill="rgb(183,179,202)" stroke="none" d="M 20500,10300 C 20900,10300 21300,10700 21300,11100 L 21300,14800 C 21300,15200 20900,15601 20500,15601 L 17300,15601 C 16900,15601 16499,15200 16499,14800 L 16499,11100 C 16499,10700 16900,10300 17300,10300 L 20500,10300 Z"/>
        <path fill="none" stroke="rgb(128,128,128)" stroke-width="100" stroke-linejoin="round" d="M 20500,10300 C 20900,10300 21300,10700 21300,11100 L 21300,14800 C 21300,15200 20900,15601 20500,15601 L 17300,15601 C 16900,15601 16499,15200 16499,14800 L 16499,11100 C 16499,10700 16900,10300 17300,10300 L 20500,10300 Z"/>
       </g>
      </g>
      <g class="Group">
       <g class="com.sun.star.drawing.CustomShape">
        <g id="id28">
         <rect class="BoundingBox" stroke="none" fill="none" x="19649" y="10749" width="1303" height="1303"/>
         <path fill="rgb(255,255,255)" stroke="none" d="M 20300,10800 C 20189,10800 20095,10825 20000,10880 19904,10935 19835,11004 19780,11100 19725,11195 19700,11289 19700,11400 19700,11511 19725,11605 19780,11700 19835,11796 19904,11865 20000,11920 20095,11975 20189,12001 20300,12001 20411,12001 20505,11975 20600,11920 20696,11865 20765,11796 20820,11700 20875,11605 20901,11511 20901,11400 20901,11289 20875,11195 20820,11100 20765,11004 20696,10935 20600,10880 20505,10825 20411,10800 20300,10800 L 20300,10800 Z"/>
         <path fill="none" stroke="rgb(51,51,51)" stroke-width="100" stroke-linejoin="round" d="M 20300,10800 C 20189,10800 20095,10825 20000,10880 19904,10935 19835,11004 19780,11100 19725,11195 19700,11289 19700,11400 19700,11511 19725,11605 19780,11700 19835,11796 19904,11865 20000,11920 20095,11975 20189,12001 20300,12001 20411,12001 20505,11975 20600,11920 20696,11865 20765,11796 20820,11700 20875,11605 20901,11511 20901,11400 20901,11289 20875,11195 20820,11100 20765,11004 20696,10935 20600,10880 20505,10825 20411,10800 20300,10800 Z"/>
        </g>
       </g>
       <g class="com.sun.star.drawing.CustomShape">
        <g id="id29">
         <rect class="BoundingBox" stroke="none" fill="none" x="19649" y="12349" width="1303" height="1303"/>
         <path fill="rgb(255,255,255)" stroke="none" d="M 20300,12400 C 20189,12400 20095,12425 20000,12480 19904,12535 19835,12604 19780,12700 19725,12795 19700,12889 19700,13000 19700,13111 19725,13205 19780,13300 19835,13396 19904,13465 20000,13520 20095,13575 20189,13601 20300,13601 20411,13601 20505,13575 20600,13520 20696,13465 20765,13396 20820,13300 20875,13205 20901,13111 20901,13000 20901,12889 20875,12795 20820,12700 20765,12604 20696,12535 20600,12480 20505,12425 20411,12400 20300,12400 L 20300,12400 Z"/>
         <path fill="none" stroke="rgb(51,51,51)" stroke-width="100" stroke-linejoin="round" d="M 20300,12400 C 20189,12400 20095,12425 20000,12480 19904,12535 19835,12604 19780,12700 19725,12795 19700,12889 19700,13000 19700,13111 19725,13205 19780,13300 19835,13396 19904,13465 20000,13520 20095,13575 20189,13601 20300,13601 20411,13601 20505,13575 20600,13520 20696,13465 20765,13396 20820,13300 20875,13205 20901,13111 20901,13000 20901,12889 20875,12795 20820,12700 20765,12604 20696,12535 20600,12480 20505,12425 20411,12400 20300,12400 Z"/>
        </g>
       </g>
       <g class="com.sun.star.drawing.CustomShape">
        <g id="id30">
         <rect class="BoundingBox" stroke="none" fill="none" x="19649" y="13949" width="1303" height="1303"/>
         <path fill="rgb(255,255,255)" stroke="none" d="M 20300,14000 C 20189,14000 20095,14025 20000,14080 19904,14135 19835,14204 19780,14300 19725,14395 19700,14489 19700,14600 19700,14711 19725,14805 19780,14900 19835,14996 19904,15065 20000,15120 20095,15175 20189,15201 20300,15201 20411,15201 20505,15175 20600,15120 20696,15065 20765,14996 20820,14900 20875,14805 20901,14711 20901,14600 20901,14489 20875,14395 20820,14300 20765,14204 20696,14135 20600,14080 20505,14025 20411,14000 20300,14000 L 20300,14000 Z"/>
         <path fill="none" stroke="rgb(51,51,51)" stroke-width="100" stroke-linejoin="round" d="M 20300,14000 C 20189,14000 20095,14025 20000,14080 19904,14135 19835,14204 19780,14300 19725,14395 19700,14489 19700,14600 19700,14711 19725,14805 19780,14900 19835,14996 19904,15065 20000,15120 20095,15175 20189,15201 20300,15201 20411,15201 20505,15175 20600,15120 20696,15065 20765,14996 20820,14900 20875,14805 20901,14711 20901,14600 20901,14489 20875,14395 20820,14300 20765,14204 20696,14135 20600,14080 20505,14025 20411,14000 20300,14000 Z"/>
        </g>
       </g>
       <g class="com.sun.star.drawing.CustomShape">
        <g id="id31">
         <rect class="BoundingBox" stroke="none" fill="none" x="16849" y="11550" width="1303" height="1303"/>
         <path fill="rgb(255,255,255)" stroke="none" d="M 17500,11601 C 17389,11601 17295,11626 17200,11681 17104,11736 17035,11805 16980,11901 16925,11996 16900,12090 16900,12201 16900,12312 16925,12406 16980,12501 17035,12597 17104,12666 17200,12721 17295,12776 17389,12802 17500,12802 17611,12802 17705,12776 17800,12721 17896,12666 17965,12597 18020,12501 18075,12406 18101,12312 18101,12201 18101,12090 18075,11996 18020,11901 17965,11805 17896,11736 17800,11681 17705,11626 17611,11601 17500,11601 L 17500,11601 Z"/>
         <path fill="none" stroke="rgb(51,51,51)" stroke-width="100" stroke-linejoin="round" d="M 17500,11601 C 17389,11601 17295,11626 17200,11681 17104,11736 17035,11805 16980,11901 16925,11996 16900,12090 16900,12201 16900,12312 16925,12406 16980,12501 17035,12597 17104,12666 17200,12721 17295,12776 17389,12802 17500,12802 17611,12802 17705,12776 17800,12721 17896,12666 17965,12597 18020,12501 18075,12406 18101,12312 18101,12201 18101,12090 18075,11996 18020,11901 17965,11805 17896,11736 17800,11681 17705,11626 17611,11601 17500,11601 Z"/>
        </g>
       </g>
       <g class="com.sun.star.drawing.CustomShape">
        <g id="id32">
         <rect class="BoundingBox" stroke="none" fill="none" x="16849" y="13150" width="1303" height="1303"/>
         <path fill="rgb(255,255,255)" stroke="none" d="M 17500,13201 C 17389,13201 17295,13226 17200,13281 17104,13336 17035,13405 16980,13501 16925,13596 16900,13690 16900,13801 16900,13912 16925,14006 16980,14101 17035,14197 17104,14266 17200,14321 17295,14376 17389,14402 17500,14402 17611,14402 17705,14376 17800,14321 17896,14266 17965,14197 18020,14101 18075,14006 18101,13912 18101,13801 18101,13690 18075,13596 18020,13501 17965,13405 17896,13336 17800,13281 17705,13226 17611,13201 17500,13201 L 17500,13201 Z"/>
         <path fill="none" stroke="rgb(51,51,51)" stroke-width="100" stroke-linejoin="round" d="M 17500,13201 C 17389,13201 17295,13226 17200,13281 17104,13336 17035,13405 16980,13501 16925,13596 16900,13690 16900,13801 16900,13912 16925,14006 16980,14101 17035,14197 17104,14266 17200,14321 17295,14376 17389,14402 17500,14402 17611,14402 17705,14376 17800,14321 17896,14266 17965,14197 18020,14101 18075,14006 18101,13912 18101,13801 18101,13690 18075,13596 18020,13501 17965,13405 17896,13336 17800,13281 17705,13226 17611,13201 17500,13201 Z"/>
        </g>
       </g>
       <g class="com.sun.star.drawing.ConnectorShape">
        <g id="id33">
         <rect class="BoundingBox" stroke="none" fill="none" x="18075" y="12176" width="1626" height="825"/>
         <path fill="none" stroke="rgb(128,128,128)" stroke-width="50" stroke-linejoin="round" d="M 19444,12872 L 18100,12201"/>
         <path fill="rgb(128,128,128)" stroke="none" d="M 19700,13000 L 19476,12777 19387,12955 19700,13000 Z"/>
        </g>
       </g>
       <g class="com.sun.star.drawing.ConnectorShape">
        <g id="id34">
         <rect class="BoundingBox" stroke="none" fill="none" x="18075" y="11400" width="1626" height="827"/>
         <path fill="none" stroke="rgb(128,128,128)" stroke-width="50" stroke-linejoin="round" d="M 19444,11528 L 18100,12201"/>
         <path fill="rgb(128,128,128)" stroke="none" d="M 19700,11400 L 19387,11445 19477,11624 19700,11400 Z"/>
        </g>
       </g>
       <g class="com.sun.star.drawing.ConnectorShape">
        <g id="id35">
         <rect class="BoundingBox" stroke="none" fill="none" x="18075" y="11400" width="1626" height="2427"/>
         <path fill="none" stroke="rgb(128,128,128)" stroke-width="50" stroke-linejoin="round" d="M 19541,11639 L 18100,13801"/>
         <path fill="rgb(128,128,128)" stroke="none" d="M 19700,11400 L 19450,11594 19617,11705 19700,11400 Z"/>
        </g>
       </g>
       <g class="com.sun.star.drawing.ConnectorShape">
        <g id="id36">
         <rect class="BoundingBox" stroke="none" fill="none" x="18075" y="13000" width="1626" height="827"/>
         <path fill="none" stroke="rgb(128,128,128)" stroke-width="50" stroke-linejoin="round" d="M 19444,13128 L 18100,13801"/>
         <path fill="rgb(128,128,128)" stroke="none" d="M 19700,13000 L 19387,13045 19477,13224 19700,13000 Z"/>
        </g>
       </g>
       <g class="com.sun.star.drawing.ConnectorShape">
        <g id="id37">
         <rect class="BoundingBox" stroke="none" fill="none" x="18075" y="12176" width="1626" height="2425"/>
         <path fill="none" stroke="rgb(128,128,128)" stroke-width="50" stroke-linejoin="round" d="M 19541,14362 L 18100,12201"/>
         <path fill="rgb(128,128,128)" stroke="none" d="M 19700,14600 L 19617,14295 19450,14406 19700,14600 Z"/>
        </g>
       </g>
       <g class="com.sun.star.drawing.ConnectorShape">
        <g id="id38">
         <rect class="BoundingBox" stroke="none" fill="none" x="18075" y="13776" width="1626" height="825"/>
         <path fill="none" stroke="rgb(128,128,128)" stroke-width="50" stroke-linejoin="round" d="M 19444,14472 L 18100,13801"/>
         <path fill="rgb(128,128,128)" stroke="none" d="M 19700,14600 L 19476,14377 19387,14555 19700,14600 Z"/>
        </g>
       </g>
      </g>
      <g class="com.sun.star.drawing.ConnectorShape">
       <g id="id39">
        <rect class="BoundingBox" stroke="none" fill="none" x="15951" y="11075" width="526" height="351"/>
        <path fill="rgb(51,51,51)" stroke="none" d="M 16476,11250 L 15951,11075 15951,11425 16476,11250 Z"/>
       </g>
      </g>
      <g class="com.sun.star.drawing.ConnectorShape">
       <g id="id40">
        <rect class="BoundingBox" stroke="none" fill="none" x="15939" y="14275" width="526" height="351"/>
        <path fill="rgb(51,51,51)" stroke="none" d="M 16464,14450 L 15939,14275 15939,14625 16464,14450 Z"/>
       </g>
      </g>
     </g>
    </g>
   </g>
  </g>
 </g>
</svg>