<?xml version="1.0" encoding="UTF-8"?>
<!DOCTYPE svg PUBLIC "-//W3C//DTD SVG 1.1//EN" "http://www.w3.org/Graphics/SVG/1.1/DTD/svg11.dtd">
<svg version="1.2" width="102mm" height="54.01mm" viewBox="650 1350 10200 5401" preserveAspectRatio="xMidYMid" fill-rule="evenodd" stroke-width="28.222" stroke-linejoin="round" xmlns="http://www.w3.org/2000/svg" xmlns:ooo="http://xml.openoffice.org/svg/export" xmlns:xlink="http://www.w3.org/1999/xlink" xmlns:presentation="http://sun.com/xmlns/staroffice/presentation" xmlns:smil="http://www.w3.org/2001/SMIL20/" xmlns:anim="urn:oasis:names:tc:opendocument:xmlns:animation:1.0" xml:space="preserve">
 <defs class="ClipPathGroup">
  <clipPath id="presentation_clip_path" clipPathUnits="userSpaceOnUse">
   <rect x="650" y="1350" width="10200" height="5401"/>
  </clipPath>
  <clipPath id="presentation_clip_path_shrink" clipPathUnits="userSpaceOnUse">
   <rect x="660" y="1355" width="10180" height="5391"/>
  </clipPath>
 </defs>
 <defs class="TextShapeIndex">
  <g ooo:slide="id1" ooo:id-list="id3 id4 id5 id6 id7 id8 id9 id10 id11 id12 id13 id14 id15 id16 id17 id18 id19 id20 id21 id22 id23 id24 id25 id26 id27"/>
 </defs>
 <defs class="EmbeddedBulletChars">
  <g id="bullet-char-template-57356" transform="scale(0.00048828125,-0.00048828125)">
   <path d="M 580,1141 L 1163,571 580,0 -4,571 580,1141 Z"/>
  </g>
  <g id="bullet-char-template-57354" transform="scale(0.00048828125,-0.00048828125)">
   <path d="M 8,1128 L 1137,1128 1137,0 8,0 8,1128 Z"/>
  </g>
  <g id="bullet-char-template-10146" transform="scale(0.00048828125,-0.00048828125)">
   <path d="M 174,0 L 602,739 174,1481 1456,739 174,0 Z M 1358,739 L 309,1346 659,739 1358,739 Z"/>
  </g>
  <g id="bullet-char-template-10132" transform="scale(0.00048828125,-0.00048828125)">
   <path d="M 2015,739 L 1276,0 717,0 1260,543 174,543 174,936 1260,936 717,1481 1274,1481 2015,739 Z"/>
  </g>
  <g id="bullet-char-template-10007" transform="scale(0.00048828125,-0.00048828125)">
   <path d="M 0,-2 C -7,14 -16,27 -25,37 L 356,567 C 262,823 215,952 215,954 215,979 228,992 255,992 264,992 276,990 289,987 310,991 331,999 354,1012 L 381,999 492,748 772,1049 836,1024 860,1049 C 881,1039 901,1025 922,1006 886,937 835,863 770,784 769,783 710,716 594,584 L 774,223 C 774,196 753,168 711,139 L 727,119 C 717,90 699,76 672,76 641,76 570,178 457,381 L 164,-76 C 142,-110 111,-127 72,-127 30,-127 9,-110 8,-76 1,-67 -2,-52 -2,-32 -2,-23 -1,-13 0,-2 Z"/>
  </g>
  <g id="bullet-char-template-10004" transform="scale(0.00048828125,-0.00048828125)">
   <path d="M 285,-33 C 182,-33 111,30 74,156 52,228 41,333 41,471 41,549 55,616 82,672 116,743 169,778 240,778 293,778 328,747 346,684 L 369,508 C 377,444 397,411 428,410 L 1163,1116 C 1174,1127 1196,1133 1229,1133 1271,1133 1292,1118 1292,1087 L 1292,965 C 1292,929 1282,901 1262,881 L 442,47 C 390,-6 338,-33 285,-33 Z"/>
  </g>
  <g id="bullet-char-template-9679" transform="scale(0.00048828125,-0.00048828125)">
   <path d="M 813,0 C 632,0 489,54 383,161 276,268 223,411 223,592 223,773 276,916 383,1023 489,1130 632,1184 813,1184 992,1184 1136,1130 1245,1023 1353,916 1407,772 1407,592 1407,412 1353,268 1245,161 1136,54 992,0 813,0 Z"/>
  </g>
  <g id="bullet-char-template-8226" transform="scale(0.00048828125,-0.00048828125)">
   <path d="M 346,457 C 273,457 209,483 155,535 101,586 74,649 74,723 74,796 101,859 155,911 209,963 273,989 346,989 419,989 480,963 531,910 582,859 608,796 608,723 608,648 583,586 532,535 482,483 420,457 346,457 Z"/>
  </g>
  <g id="bullet-char-template-8211" transform="scale(0.00048828125,-0.00048828125)">
   <path d="M -4,459 L 1135,459 1135,606 -4,606 -4,459 Z"/>
  </g>
  <g id="bullet-char-template-61548" transform="scale(0.00048828125,-0.00048828125)">
   <path d="M 173,740 C 173,903 231,1043 346,1159 462,1274 601,1332 765,1332 928,1332 1067,1274 1183,1159 1299,1043 1357,903 1357,740 1357,577 1299,437 1183,322 1067,206 928,148 765,148 601,148 462,206 346,322 231,437 173,577 173,740 Z"/>
  </g>
 </defs>
 <defs class="TextEmbeddedBitmaps"/>
 <g class="SlideGroup">
  <g>
   <g id="container-id1">
    <g id="id1" class="Slide" clip-path="url(#presentation_clip_path)">
     <g class="Page">
      <g class="com.sun.star.drawing.CustomShape">
       <g id="id3">
        <rect class="BoundingBox" stroke="none" fill="none" x="650" y="1350" width="4902" height="5402"/>
        <path fill="rgb(232,242,161)" stroke="none" d="M 1500,1400 C 1100,1400 700,1800 700,2200 L 700,5900 C 700,6300 1100,6701 1500,6701 L 4700,6701 C 5100,6701 5501,6300 5501,5900 L 5501,2200 C 5501,1800 5100,1400 4700,1400 L 1500,1400 Z"/>
        <path fill="none" stroke="rgb(128,128,128)" stroke-width="100" stroke-linejoin="round" d="M 1500,1400 C 1100,1400 700,1800 700,2200 L 700,5900 C 700,6300 1100,6701 1500,6701 L 4700,6701 C 5100,6701 5501,6300 5501,5900 L 5501,2200 C 5501,1800 5100,1400 4700,1400 L 1500,1400 Z"/>
       </g>
      </g>
      <g class="Group">
       <g class="com.sun.star.drawing.CustomShape">
        <g id="id4">
         <rect class="BoundingBox" stroke="none" fill="none" x="1049" y="1849" width="1303" height="1303"/>
         <path fill="rgb(255,255,255)" stroke="none" d="M 1700,1900 C 1811,1900 1905,1925 2000,1980 2096,2035 2165,2104 2220,2200 2275,2295 2301,2389 2301,2500 2301,2611 2275,2705 2220,2800 2165,2896 2096,2965 2000,3020 1905,3075 1811,3101 1700,3101 1589,3101 1495,3075 1400,3020 1304,2965 1235,2896 1180,2800 1125,2705 1100,2611 1100,2500 1099,2389 1125,2295 1180,2200 1235,2104 1304,2035 1400,1980 1495,1925 1589,1900 1700,1900 L 1700,1900 Z"/>
         <path fill="none" stroke="rgb(51,51,51)" stroke-width="100" stroke-linejoin="round" d="M 1700,1900 C 1811,1900 1905,1925 2000,1980 2096,2035 2165,2104 2220,2200 2275,2295 2301,2389 2301,2500 2301,2611 2275,2705 2220,2800 2165,2896 2096,2965 2000,3020 1905,3075 1811,3101 1700,3101 1589,3101 1495,3075 1400,3020 1304,2965 1235,2896 1180,2800 1125,2705 1100,2611 1100,2500 1099,2389 1125,2295 1180,2200 1235,2104 1304,2035 1400,1980 1495,1925 1589,1900 1700,1900 L 1700,1900 Z"/>
        </g>
       </g>
       <g class="com.sun.star.drawing.CustomShape">
        <g id="id5">
         <rect class="BoundingBox" stroke="none" fill="none" x="1049" y="3449" width="1303" height="1303"/>
         <path fill="rgb(255,255,255)" stroke="none" d="M 1700,3500 C 1811,3500 1905,3525 2000,3580 2096,3635 2165,3704 2220,3800 2275,3895 2301,3989 2301,4100 2301,4211 2275,4305 2220,4400 2165,4496 2096,4565 2000,4620 1905,4675 1811,4701 1700,4701 1589,4701 1495,4675 1400,4620 1304,4565 1235,4496 1180,4400 1125,4305 1100,4211 1100,4100 1099,3989 1125,3895 1180,3800 1235,3704 1304,3635 1400,3580 1495,3525 1589,3500 1700,3500 L 1700,3500 Z"/>
         <path fill="none" stroke="rgb(51,51,51)" stroke-width="100" stroke-linejoin="round" d="M 1700,3500 C 1811,3500 1905,3525 2000,3580 2096,3635 2165,3704 2220,3800 2275,3895 2301,3989 2301,4100 2301,4211 2275,4305 2220,4400 2165,4496 2096,4565 2000,4620 1905,4675 1811,4701 1700,4701 1589,4701 1495,4675 1400,4620 1304,4565 1235,4496 1180,4400 1125,4305 1100,4211 1100,4100 1099,3989 1125,3895 1180,3800 1235,3704 1304,3635 1400,3580 1495,3525 1589,3500 1700,3500 L 1700,3500 Z"/>
        </g>
       </g>
       <g class="com.sun.star.drawing.CustomShape">
        <g id="id6">
         <rect class="BoundingBox" stroke="none" fill="none" x="1049" y="5049" width="1303" height="1303"/>
         <path fill="rgb(255,255,255)" stroke="none" d="M 1700,5100 C 1811,5100 1905,5125 2000,5180 2096,5235 2165,5304 2220,5400 2275,5495 2301,5589 2301,5700 2301,5811 2275,5905 2220,6000 2165,6096 2096,6165 2000,6220 1905,6275 1811,6301 1700,6301 1589,6301 1495,6275 1400,6220 1304,6165 1235,6096 1180,6000 1125,5905 1100,5811 1100,5700 1099,5589 1125,5495 1180,5400 1235,5304 1304,5235 1400,5180 1495,5125 1589,5100 1700,5100 L 1700,5100 Z"/>
         <path fill="none" stroke="rgb(51,51,51)" stroke-width="100" stroke-linejoin="round" d="M 1700,5100 C 1811,5100 1905,5125 2000,5180 2096,5235 2165,5304 2220,5400 2275,5495 2301,5589 2301,5700 2301,5811 2275,5905 2220,6000 2165,6096 2096,6165 2000,6220 1905,6275 1811,6301 1700,6301 1589,6301 1495,6275 1400,6220 1304,6165 1235,6096 1180,6000 1125,5905 1100,5811 1100,5700 1099,5589 1125,5495 1180,5400 1235,5304 1304,5235 1400,5180 1495,5125 1589,5100 1700,5100 L 1700,5100 Z"/>
        </g>
       </g>
       <g class="com.sun.star.drawing.CustomShape">
        <g id="id7">
         <rect class="BoundingBox" stroke="none" fill="none" x="3849" y="2650" width="1303" height="1303"/>
         <path fill="rgb(255,255,255)" stroke="none" d="M 4500,2701 C 4611,2701 4705,2726 4800,2781 4896,2836 4965,2905 5020,3001 5075,3096 5101,3190 5101,3301 5101,3412 5075,3506 5020,3601 4965,3697 4896,3766 4800,3821 4705,3876 4611,3902 4500,3902 4389,3902 4295,3876 4200,3821 4104,3766 4035,3697 3980,3601 3925,3506 3900,3412 3900,3301 3900,3190 3925,3096 3980,3001 4035,2905 4104,2836 4200,2781 4295,2726 4389,2701 4500,2701 L 4500,2701 Z"/>
         <path fill="none" stroke="rgb(51,51,51)" stroke-width="100" stroke-linejoin="round" d="M 4500,2701 C 4611,2701 4705,2726 4800,2781 4896,2836 4965,2905 5020,3001 5075,3096 5101,3190 5101,3301 5101,3412 5075,3506 5020,3601 4965,3697 4896,3766 4800,3821 4705,3876 4611,3902 4500,3902 4389,3902 4295,3876 4200,3821 4104,3766 4035,3697 3980,3601 3925,3506 3900,3412 3900,3301 3900,3190 3925,3096 3980,3001 4035,2905 4104,2836 4200,2781 4295,2726 4389,2701 4500,2701 L 4500,2701 Z"/>
        </g>
       </g>
       <g class="com.sun.star.drawing.CustomShape">
        <g id="id8">
         <rect class="BoundingBox" stroke="none" fill="none" x="3849" y="4250" width="1303" height="1303"/>
         <path fill="rgb(255,255,255)" stroke="none" d="M 4500,4301 C 4611,4301 4705,4326 4800,4381 4896,4436 4965,4505 5020,4601 5075,4696 5101,4790 5101,4901 5101,5012 5075,5106 5020,5201 4965,5297 4896,5366 4800,5421 4705,5476 4611,5502 4500,5502 4389,5502 4295,5476 4200,5421 4104,5366 4035,5297 3980,5201 3925,5106 3900,5012 3900,4901 3900,4790 3925,4696 3980,4601 4035,4505 4104,4436 4200,4381 4295,4326 4389,4301 4500,4301 L 4500,4301 Z"/>
         <path fill="none" stroke="rgb(51,51,51)" stroke-width="100" stroke-linejoin="round" d="M 4500,4301 C 4611,4301 4705,4326 4800,4381 4896,4436 4965,4505 5020,4601 5075,4696 5101,4790 5101,4901 5101,5012 5075,5106 5020,5201 4965,5297 4896,5366 4800,5421 4705,5476 4611,5502 4500,5502 4389,5502 4295,5476 4200,5421 4104,5366 4035,5297 3980,5201 3925,5106 3900,5012 3900,4901 3900,4790 3925,4696 3980,4601 4035,4505 4104,4436 4200,4381 4295,4326 4389,4301 4500,4301 L 4500,4301 Z"/>
        </g>
       </g>
       <g class="com.sun.star.drawing.ConnectorShape">
        <g id="id9">
         <rect class="BoundingBox" stroke="none" fill="none" x="2275" y="3301" width="1626" height="825"/>
         <path fill="none" stroke="rgb(128,128,128)" stroke-width="50" stroke-linejoin="round" d="M 2300,4100 L 3644,3429"/>
         <path fill="rgb(128,128,128)" stroke="none" d="M 3900,3301 L 3587,3346 3676,3524 3900,3301 Z"/>
        </g>
       </g>
       <g class="com.sun.star.drawing.ConnectorShape">
        <g id="id10">
         <rect class="BoundingBox" stroke="none" fill="none" x="2275" y="2475" width="1626" height="827"/>
         <path fill="none" stroke="rgb(128,128,128)" stroke-width="50" stroke-linejoin="round" d="M 2300,2500 L 3644,3173"/>
         <path fill="rgb(128,128,128)" stroke="none" d="M 3900,3301 L 3677,3077 3587,3256 3900,3301 Z"/>
        </g>
       </g>
       <g class="com.sun.star.drawing.ConnectorShape">
        <g id="id11">
         <rect class="BoundingBox" stroke="none" fill="none" x="2275" y="2475" width="1626" height="2427"/>
         <path fill="none" stroke="rgb(128,128,128)" stroke-width="50" stroke-linejoin="round" d="M 2300,2500 L 3741,4662"/>
         <path fill="rgb(128,128,128)" stroke="none" d="M 3900,4901 L 3817,4596 3650,4707 3900,4901 Z"/>
        </g>
       </g>
       <g class="com.sun.star.drawing.ConnectorShape">
        <g id="id12">
         <rect class="BoundingBox" stroke="none" fill="none" x="2275" y="4075" width="1626" height="827"/>
         <path fill="none" stroke="rgb(128,128,128)" stroke-width="50" stroke-linejoin="round" d="M 2300,4100 L 3644,4773"/>
         <path fill="rgb(128,128,128)" stroke="none" d="M 3900,4901 L 3677,4677 3587,4856 3900,4901 Z"/>
        </g>
       </g>
       <g class="com.sun.star.drawing.ConnectorShape">
        <g id="id13">
         <rect class="BoundingBox" stroke="none" fill="none" x="2275" y="3301" width="1626" height="2425"/>
         <path fill="none" stroke="rgb(128,128,128)" stroke-width="50" stroke-linejoin="round" d="M 2300,5700 L 3741,3539"/>
         <path fill="rgb(128,128,128)" stroke="none" d="M 3900,3301 L 3650,3495 3817,3606 3900,3301 Z"/>
        </g>
       </g>
       <g class="com.sun.star.drawing.ConnectorShape">
        <g id="id14">
         <rect class="BoundingBox" stroke="none" fill="none" x="2275" y="4901" width="1626" height="825"/>
         <path fill="none" stroke="rgb(128,128,128)" stroke-width="50" stroke-linejoin="round" d="M 2300,5700 L 3644,5029"/>
         <path fill="rgb(128,128,128)" stroke="none" d="M 3900,4901 L 3587,4946 3676,5124 3900,4901 Z"/>
        </g>
       </g>
      </g>
      <g class="com.sun.star.drawing.CustomShape">
       <g id="id15">
        <rect class="BoundingBox" stroke="none" fill="none" x="5949" y="1350" width="4902" height="5402"/>
        <path fill="rgb(232,242,161)" stroke="none" d="M 10000,1400 C 10400,1400 10800,1800 10800,2200 L 10800,5900 C 10800,6300 10400,6701 10000,6701 L 6800,6701 C 6400,6701 5999,6300 5999,5900 L 5999,2200 C 5999,1800 6400,1400 6800,1400 L 10000,1400 Z"/>
        <path fill="none" stroke="rgb(128,128,128)" stroke-width="100" stroke-linejoin="round" d="M 10000,1400 C 10400,1400 10800,1800 10800,2200 L 10800,5900 C 10800,6300 10400,6701 10000,6701 L 6800,6701 C 6400,6701 5999,6300 5999,5900 L 5999,2200 C 5999,1800 6400,1400 6800,1400 L 10000,1400 Z"/>
       </g>
      </g>
      <g class="Group">
       <g class="com.sun.star.drawing.CustomShape">
        <g id="id16">
         <rect class="BoundingBox" stroke="none" fill="none" x="9149" y="1849" width="1303" height="1303"/>
         <path fill="rgb(255,255,255)" stroke="none" d="M 9800,1900 C 9689,1900 9595,1925 9500,1980 9404,2035 9335,2104 9280,2200 9225,2295 9200,2389 9200,2500 9200,2611 9225,2705 9280,2800 9335,2896 9404,2965 9500,3020 9595,3075 9689,3101 9800,3101 9911,3101 10005,3075 10100,3020 10196,2965 10265,2896 10320,2800 10375,2705 10401,2611 10401,2500 10401,2389 10375,2295 10320,2200 10265,2104 10196,2035 10100,1980 10005,1925 9911,1900 9800,1900 L 9800,1900 Z"/>
         <path fill="none" stroke="rgb(51,51,51)" stroke-width="100" stroke-linejoin="round" d="M 9800,1900 C 9689,1900 9595,1925 9500,1980 9404,2035 9335,2104 9280,2200 9225,2295 9200,2389 9200,2500 9200,2611 9225,2705 9280,2800 9335,2896 9404,2965 9500,3020 9595,3075 9689,3101 9800,3101 9911,3101 10005,3075 10100,3020 10196,2965 10265,2896 10320,2800 10375,2705 10401,2611 10401,2500 10401,2389 10375,2295 10320,2200 10265,2104 10196,2035 10100,1980 10005,1925 9911,1900 9800,1900 Z"/>
        </g>
       </g>
       <g class="com.sun.star.drawing.CustomShape">
        <g id="id17">
         <rect class="BoundingBox" stroke="none" fill="none" x="9149" y="3449" width="1303" height="1303"/>
         <path fill="rgb(255,255,255)" stroke="none" d="M 9800,3500 C 9689,3500 9595,3525 9500,3580 9404,3635 9335,3704 9280,3800 9225,3895 9200,3989 9200,4100 9200,4211 9225,4305 9280,4400 9335,4496 9404,4565 9500,4620 9595,4675 9689,4701 9800,4701 9911,4701 10005,4675 10100,4620 10196,4565 10265,4496 10320,4400 10375,4305 10401,4211 10401,4100 10401,3989 10375,3895 10320,3800 10265,3704 10196,3635 10100,3580 10005,3525 9911,3500 9800,3500 L 9800,3500 Z"/>
         <path fill="none" stroke="rgb(51,51,51)" stroke-width="100" stroke-linejoin="round" d="M 9800,3500 C 9689,3500 9595,3525 9500,3580 9404,3635 9335,3704 9280,3800 9225,3895 9200,3989 9200,4100 9200,4211 9225,4305 9280,4400 9335,4496 9404,4565 9500,4620 9595,4675 9689,4701 9800,4701 9911,4701 10005,4675 10100,4620 10196,4565 10265,4496 10320,4400 10375,4305 10401,4211 10401,4100 10401,3989 10375,3895 10320,3800 10265,3704 10196,3635 10100,3580 10005,3525 9911,3500 9800,3500 Z"/>
        </g>
       </g>
       <g class="com.sun.star.drawing.CustomShape">
        <g id="id18">
         <rect class="BoundingBox" stroke="none" fill="none" x="9149" y="5049" width="1303" height="1303"/>
         <path fill="rgb(255,255,255)" stroke="none" d="M 9800,5100 C 9689,5100 9595,5125 9500,5180 9404,5235 9335,5304 9280,5400 9225,5495 9200,5589 9200,5700 9200,5811 9225,5905 9280,6000 9335,6096 9404,6165 9500,6220 9595,6275 9689,6301 9800,6301 9911,6301 10005,6275 10100,6220 10196,6165 10265,6096 10320,6000 10375,5905 10401,5811 10401,5700 10401,5589 10375,5495 10320,5400 10265,5304 10196,5235 10100,5180 10005,5125 9911,5100 9800,5100 L 9800,5100 Z"/>
         <path fill="none" stroke="rgb(51,51,51)" stroke-width="100" stroke-linejoin="round" d="M 9800,5100 C 9689,5100 9595,5125 9500,5180 9404,5235 9335,5304 9280,5400 9225,5495 9200,5589 9200,5700 9200,5811 9225,5905 9280,6000 9335,6096 9404,6165 9500,6220 9595,6275 9689,6301 9800,6301 9911,6301 10005,6275 10100,6220 10196,6165 10265,6096 10320,6000 10375,5905 10401,5811 10401,5700 10401,5589 10375,5495 10320,5400 10265,5304 10196,5235 10100,5180 10005,5125 9911,5100 9800,5100 Z"/>
        </g>
       </g>
       <g class="com.sun.star.drawing.CustomShape">
        <g id="id19">
         <rect class="BoundingBox" stroke="none" fill="none" x="6349" y="2650" width="1303" height="1303"/>
         <path fill="rgb(255,255,255)" stroke="none" d="M 7000,2701 C 6889,2701 6795,2726 6700,2781 6604,2836 6535,2905 6480,3001 6425,3096 6400,3190 6400,3301 6400,3412 6425,3506 6480,3601 6535,3697 6604,3766 6700,3821 6795,3876 6889,3902 7000,3902 7111,3902 7205,3876 7300,3821 7396,3766 7465,3697 7520,3601 7575,3506 7601,3412 7601,3301 7601,3190 7575,3096 7520,3001 7465,2905 7396,2836 7300,2781 7205,2726 7111,2701 7000,2701 L 7000,2701 Z"/>
         <path fill="none" stroke="rgb(51,51,51)" stroke-width="100" stroke-linejoin="round" d="M 7000,2701 C 6889,2701 6795,2726 6700,2781 6604,2836 6535,2905 6480,3001 6425,3096 6400,3190 6400,3301 6400,3412 6425,3506 6480,3601 6535,3697 6604,3766 6700,3821 6795,3876 6889,3902 7000,3902 7111,3902 7205,3876 7300,3821 7396,3766 7465,3697 7520,3601 7575,3506 7601,3412 7601,3301 7601,3190 7575,3096 7520,3001 7465,2905 7396,2836 7300,2781 7205,2726 7111,2701 7000,2701 L 7000,2701 Z"/>
        </g>
       </g>
       <g class="com.sun.star.drawing.CustomShape">
        <g id="id20">
         <rect class="BoundingBox" stroke="none" fill="none" x="6349" y="4250" width="1303" height="1303"/>
         <path fill="rgb(255,255,255)" stroke="none" d="M 7000,4301 C 6889,4301 6795,4326 6700,4381 6604,4436 6535,4505 6480,4601 6425,4696 6400,4790 6400,4901 6400,5012 6425,5106 6480,5201 6535,5297 6604,5366 6700,5421 6795,5476 6889,5502 7000,5502 7111,5502 7205,5476 7300,5421 7396,5366 7465,5297 7520,5201 7575,5106 7601,5012 7601,4901 7601,4790 7575,4696 7520,4601 7465,4505 7396,4436 7300,4381 7205,4326 7111,4301 7000,4301 L 7000,4301 Z"/>
         <path fill="none" stroke="rgb(51,51,51)" stroke-width="100" stroke-linejoin="round" d="M 7000,4301 C 6889,4301 6795,4326 6700,4381 6604,4436 6535,4505 6480,4601 6425,4696 6400,4790 6400,4901 6400,5012 6425,5106 6480,5201 6535,5297 6604,5366 6700,5421 6795,5476 6889,5502 7000,5502 7111,5502 7205,5476 7300,5421 7396,5366 7465,5297 7520,5201 7575,5106 7601,5012 7601,4901 7601,4790 7575,4696 7520,4601 7465,4505 7396,4436 7300,4381 7205,4326 7111,4301 7000,4301 L 7000,4301 Z"/>
        </g>
       </g>
       <g class="com.sun.star.drawing.ConnectorShape">
        <g id="id21">
         <rect class="BoundingBox" stroke="none" fill="none" x="7575" y="3276" width="1626" height="825"/>
         <path fill="none" stroke="rgb(128,128,128)" stroke-width="50" stroke-linejoin="round" d="M 8944,3972 L 7600,3301"/>
         <path fill="rgb(128,128,128)" stroke="none" d="M 9200,4100 L 8976,3877 8887,4055 9200,4100 Z"/>
        </g>
       </g>
       <g class="com.sun.star.drawing.ConnectorShape">
        <g id="id22">
         <rect class="BoundingBox" stroke="none" fill="none" x="7575" y="2500" width="1626" height="827"/>
         <path fill="none" stroke="rgb(128,128,128)" stroke-width="50" stroke-linejoin="round" d="M 8944,2628 L 7600,3301"/>
         <path fill="rgb(128,128,128)" stroke="none" d="M 9200,2500 L 8887,2545 8977,2724 9200,2500 Z"/>
        </g>
       </g>
       <g class="com.sun.star.drawing.ConnectorShape">
        <g id="id23">
         <rect class="BoundingBox" stroke="none" fill="none" x="7575" y="2500" width="1626" height="2427"/>
         <path fill="none" stroke="rgb(128,128,128)" stroke-width="50" stroke-linejoin="round" d="M 9041,2739 L 7600,4901"/>
         <path fill="rgb(128,128,128)" stroke="none" d="M 9200,2500 L 8950,2694 9117,2805 9200,2500 Z"/>
        </g>
       </g>
       <g class="com.sun.star.drawing.ConnectorShape">
        <g id="id24">
         <rect class="BoundingBox" stroke="none" fill="none" x="7575" y="4100" width="1626" height="827"/>
         <path fill="none" stroke="rgb(128,128,128)" stroke-width="50" stroke-linejoin="round" d="M 8944,4228 L 7600,4901"/>
         <path fill="rgb(128,128,128)" stroke="none" d="M 9200,4100 L 8887,4145 8977,4324 9200,4100 Z"/>
        </g>
       </g>
       <g class="com.sun.star.drawing.ConnectorShape">
        <g id="id25">
         <rect class="BoundingBox" stroke="none" fill="none" x="7575" y="3276" width="1626" height="2425"/>
         <path fill="none" stroke="rgb(128,128,128)" stroke-width="50" stroke-linejoin="round" d="M 9041,5462 L 7600,3301"/>
         <path fill="rgb(128,128,128)" stroke="none" d="M 9200,5700 L 9117,5395 8950,5506 9200,5700 Z"/>
        </g>
       </g>
       <g class="com.sun.star.drawing.ConnectorShape">
        <g id="id26">
         <rect class="BoundingBox" stroke="none" fill="none" x="7575" y="4876" width="1626" height="825"/>
         <path fill="none" stroke="rgb(128,128,128)" stroke-width="50" stroke-linejoin="round" d="M 8944,5572 L 7600,4901"/>
         <path fill="rgb(128,128,128)" stroke="none" d="M 9200,5700 L 8976,5477 8887,5655 9200,5700 Z"/>
        </g>
       </g>
      </g>
      <g class="com.sun.star.drawing.ConnectorShape">
       <g id="id27">
        <rect class="BoundingBox" stroke="none" fill="none" x="5475" y="3875" width="526" height="351"/>
        <path fill="rgb(51,51,51)" stroke="none" d="M 6000,4050 L 5475,3875 5475,4225 6000,4050 Z"/>
       </g>
      </g>
     </g>
    </g>
   </g>
  </g>
 </g>
</svg>