<?xml version="1.0" encoding="UTF-8"?>
<!DOCTYPE svg PUBLIC "-//W3C//DTD SVG 1.1//EN" "http://www.w3.org/Graphics/SVG/1.1/DTD/svg11.dtd">
<svg version="1.2" width="102mm" height="124.02mm" viewBox="2250 1351 10200 12402" preserveAspectRatio="xMidYMid" fill-rule="evenodd" stroke-width="28.222" stroke-linejoin="round" xmlns="http://www.w3.org/2000/svg" xmlns:ooo="http://xml.openoffice.org/svg/export" xmlns:xlink="http://www.w3.org/1999/xlink" xmlns:presentation="http://sun.com/xmlns/staroffice/presentation" xmlns:smil="http://www.w3.org/2001/SMIL20/" xmlns:anim="urn:oasis:names:tc:opendocument:xmlns:animation:1.0" xml:space="preserve">
 <defs class="ClipPathGroup">
  <clipPath id="presentation_clip_path" clipPathUnits="userSpaceOnUse">
   <rect x="2250" y="1351" width="10200" height="12402"/>
  </clipPath>
  <clipPath id="presentation_clip_path_shrink" clipPathUnits="userSpaceOnUse">
   <rect x="2260" y="1363" width="10180" height="12378"/>
  </clipPath>
 </defs>
 <defs class="TextShapeIndex">
  <g ooo:slide="id1" ooo:id-list="id3 id4 id5 id6 id7 id8 id9 id10 id11 id12 id13 id14 id15 id16 id17 id18 id19 id20 id21 id22 id23 id24 id25 id26 id27 id28 id29 id30 id31 id32 id33 id34 id35 id36 id37 id38 id39 id40 id41 id42 id43 id44 id45 id46 id47 id48 id49 id50 id51 id52 id53"/>
 </defs>
 <defs class="EmbeddedBulletChars">
  <g id="bullet-char-template-57356" transform="scale(0.00048828125,-0.00048828125)">
   <path d="M 580,1141 L 1163,571 580,0 -4,571 580,1141 Z"/>
  </g>
  <g id="bullet-char-template-57354" transform="scale(0.00048828125,-0.00048828125)">
   <path d="M 8,1128 L 1137,1128 1137,0 8,0 8,1128 Z"/>
  </g>
  <g id="bullet-char-template-10146" transform="scale(0.00048828125,-0.00048828125)">
   <path d="M 174,0 L 602,739 174,1481 1456,739 174,0 Z M 1358,739 L 309,1346 659,739 1358,739 Z"/>
  </g>
  <g id="bullet-char-template-10132" transform="scale(0.00048828125,-0.00048828125)">
   <path d="M 2015,739 L 1276,0 717,0 1260,543 174,543 174,936 1260,936 717,1481 1274,1481 2015,739 Z"/>
  </g>
  <g id="bullet-char-template-10007" transform="scale(0.00048828125,-0.00048828125)">
   <path d="M 0,-2 C -7,14 -16,27 -25,37 L 356,567 C 262,823 215,952 215,954 215,979 228,992 255,992 264,992 276,990 289,987 310,991 331,999 354,1012 L 381,999 492,748 772,1049 836,1024 860,1049 C 881,1039 901,1025 922,1006 886,937 835,863 770,784 769,783 710,716 594,584 L 774,223 C 774,196 753,168 711,139 L 727,119 C 717,90 699,76 672,76 641,76 570,178 457,381 L 164,-76 C 142,-110 111,-127 72,-127 30,-127 9,-110 8,-76 1,-67 -2,-52 -2,-32 -2,-23 -1,-13 0,-2 Z"/>
  </g>
  <g id="bullet-char-template-10004" transform="scale(0.00048828125,-0.00048828125)">
   <path d="M 285,-33 C 182,-33 111,30 74,156 52,228 41,333 41,471 41,549 55,616 82,672 116,743 169,778 240,778 293,778 328,747 346,684 L 369,508 C 377,444 397,411 428,410 L 1163,1116 C 1174,1127 1196,1133 1229,1133 1271,1133 1292,1118 1292,1087 L 1292,965 C 1292,929 1282,901 1262,881 L 442,47 C 390,-6 338,-33 285,-33 Z"/>
  </g>
  <g id="bullet-char-template-9679" transform="scale(0.00048828125,-0.00048828125)">
   <path d="M 813,0 C 632,0 489,54 383,161 276,268 223,411 223,592 223,773 276,916 383,1023 489,1130 632,1184 813,1184 992,1184 1136,1130 1245,1023 1353,916 1407,772 1407,592 1407,412 1353,268 1245,161 1136,54 992,0 813,0 Z"/>
  </g>
  <g id="bullet-char-template-8226" transform="scale(0.00048828125,-0.00048828125)">
   <path d="M 346,457 C 273,457 209,483 155,535 101,586 74,649 74,723 74,796 101,859 155,911 209,963 273,989 346,989 419,989 480,963 531,910 582,859 608,796 608,723 608,648 583,586 532,535 482,483 420,457 346,457 Z"/>
  </g>
  <g id="bullet-char-template-8211" transform="scale(0.00048828125,-0.00048828125)">
   <path d="M -4,459 L 1135,459 1135,606 -4,606 -4,459 Z"/>
  </g>
  <g id="bullet-char-template-61548" transform="scale(0.00048828125,-0.00048828125)">
   <path d="M 173,740 C 173,903 231,1043 346,1159 462,1274 601,1332 765,1332 928,1332 1067,1274 1183,1159 1299,1043 1357,903 1357,740 1357,577 1299,437 1183,322 1067,206 928,148 765,148 601,148 462,206 346,322 231,437 173,577 173,740 Z"/>
  </g>
 </defs>
 <defs class="TextEmbeddedBitmaps"/>
 <g class="SlideGroup">
  <g>
   <g id="container-id1">
    <g id="id1" class="Slide" clip-path="url(#presentation_clip_path)">
     <g class="Page">
      <g class="com.sun.star.drawing.CustomShape">
       <g id="id3">
        <rect class="BoundingBox" stroke="none" fill="none" x="2250" y="1351" width="4902" height="5402"/>
        <path fill="rgb(232,242,161)" stroke="none" d="M 3100,1401 C 2700,1401 2300,1801 2300,2201 L 2300,5901 C 2300,6301 2700,6702 3100,6702 L 6300,6702 C 6700,6702 7101,6301 7101,5901 L 7101,2201 C 7101,1801 6700,1401 6300,1401 L 3100,1401 Z"/>
        <path fill="none" stroke="rgb(128,128,128)" stroke-width="100" stroke-linejoin="round" d="M 3100,1401 C 2700,1401 2300,1801 2300,2201 L 2300,5901 C 2300,6301 2700,6702 3100,6702 L 6300,6702 C 6700,6702 7101,6301 7101,5901 L 7101,2201 C 7101,1801 6700,1401 6300,1401 L 3100,1401 Z"/>
       </g>
      </g>
      <g class="Group">
       <g class="com.sun.star.drawing.CustomShape">
        <g id="id4">
         <rect class="BoundingBox" stroke="none" fill="none" x="2649" y="1850" width="1303" height="1303"/>
         <path fill="rgb(255,255,255)" stroke="none" d="M 3300,1901 C 3411,1901 3505,1926 3600,1981 3696,2036 3765,2105 3820,2201 3875,2296 3901,2390 3901,2501 3901,2612 3875,2706 3820,2801 3765,2897 3696,2966 3600,3021 3505,3076 3411,3102 3300,3102 3189,3102 3095,3076 3000,3021 2904,2966 2835,2897 2780,2801 2725,2706 2700,2612 2700,2501 2700,2390 2725,2296 2780,2201 2835,2105 2904,2036 3000,1981 3095,1926 3189,1901 3300,1901 L 3300,1901 Z"/>
         <path fill="none" stroke="rgb(51,51,51)" stroke-width="100" stroke-linejoin="round" d="M 3300,1901 C 3411,1901 3505,1926 3600,1981 3696,2036 3765,2105 3820,2201 3875,2296 3901,2390 3901,2501 3901,2612 3875,2706 3820,2801 3765,2897 3696,2966 3600,3021 3505,3076 3411,3102 3300,3102 3189,3102 3095,3076 3000,3021 2904,2966 2835,2897 2780,2801 2725,2706 2700,2612 2700,2501 2700,2390 2725,2296 2780,2201 2835,2105 2904,2036 3000,1981 3095,1926 3189,1901 3300,1901 L 3300,1901 Z"/>
        </g>
       </g>
       <g class="com.sun.star.drawing.CustomShape">
        <g id="id5">
         <rect class="BoundingBox" stroke="none" fill="none" x="2649" y="3450" width="1303" height="1303"/>
         <path fill="rgb(255,255,255)" stroke="none" d="M 3300,3501 C 3411,3501 3505,3526 3600,3581 3696,3636 3765,3705 3820,3801 3875,3896 3901,3990 3901,4101 3901,4212 3875,4306 3820,4401 3765,4497 3696,4566 3600,4621 3505,4676 3411,4702 3300,4702 3189,4702 3095,4676 3000,4621 2904,4566 2835,4497 2780,4401 2725,4306 2700,4212 2700,4101 2700,3990 2725,3896 2780,3801 2835,3705 2904,3636 3000,3581 3095,3526 3189,3501 3300,3501 L 3300,3501 Z"/>
         <path fill="none" stroke="rgb(51,51,51)" stroke-width="100" stroke-linejoin="round" d="M 3300,3501 C 3411,3501 3505,3526 3600,3581 3696,3636 3765,3705 3820,3801 3875,3896 3901,3990 3901,4101 3901,4212 3875,4306 3820,4401 3765,4497 3696,4566 3600,4621 3505,4676 3411,4702 3300,4702 3189,4702 3095,4676 3000,4621 2904,4566 2835,4497 2780,4401 2725,4306 2700,4212 2700,4101 2700,3990 2725,3896 2780,3801 2835,3705 2904,3636 3000,3581 3095,3526 3189,3501 3300,3501 L 3300,3501 Z"/>
        </g>
       </g>
       <g class="com.sun.star.drawing.CustomShape">
        <g id="id6">
         <rect class="BoundingBox" stroke="none" fill="none" x="2649" y="5050" width="1303" height="1303"/>
         <path fill="rgb(255,255,255)" stroke="none" d="M 3300,5101 C 3411,5101 3505,5126 3600,5181 3696,5236 3765,5305 3820,5401 3875,5496 3901,5590 3901,5701 3901,5812 3875,5906 3820,6001 3765,6097 3696,6166 3600,6221 3505,6276 3411,6302 3300,6302 3189,6302 3095,6276 3000,6221 2904,6166 2835,6097 2780,6001 2725,5906 2700,5812 2700,5701 2700,5590 2725,5496 2780,5401 2835,5305 2904,5236 3000,5181 3095,5126 3189,5101 3300,5101 L 3300,5101 Z"/>
         <path fill="none" stroke="rgb(51,51,51)" stroke-width="100" stroke-linejoin="round" d="M 3300,5101 C 3411,5101 3505,5126 3600,5181 3696,5236 3765,5305 3820,5401 3875,5496 3901,5590 3901,5701 3901,5812 3875,5906 3820,6001 3765,6097 3696,6166 3600,6221 3505,6276 3411,6302 3300,6302 3189,6302 3095,6276 3000,6221 2904,6166 2835,6097 2780,6001 2725,5906 2700,5812 2700,5701 2700,5590 2725,5496 2780,5401 2835,5305 2904,5236 3000,5181 3095,5126 3189,5101 3300,5101 L 3300,5101 Z"/>
        </g>
       </g>
       <g class="com.sun.star.drawing.CustomShape">
        <g id="id7">
         <rect class="BoundingBox" stroke="none" fill="none" x="5449" y="2651" width="1303" height="1303"/>
         <path fill="rgb(255,255,255)" stroke="none" d="M 6100,2702 C 6211,2702 6305,2727 6400,2782 6496,2837 6565,2906 6620,3002 6675,3097 6701,3191 6701,3302 6701,3413 6675,3507 6620,3602 6565,3698 6496,3767 6400,3822 6305,3877 6211,3903 6100,3903 5989,3903 5895,3877 5800,3822 5704,3767 5635,3698 5580,3602 5525,3507 5500,3413 5500,3302 5500,3191 5525,3097 5580,3002 5635,2906 5704,2837 5800,2782 5895,2727 5989,2702 6100,2702 L 6100,2702 Z"/>
         <path fill="none" stroke="rgb(51,51,51)" stroke-width="100" stroke-linejoin="round" d="M 6100,2702 C 6211,2702 6305,2727 6400,2782 6496,2837 6565,2906 6620,3002 6675,3097 6701,3191 6701,3302 6701,3413 6675,3507 6620,3602 6565,3698 6496,3767 6400,3822 6305,3877 6211,3903 6100,3903 5989,3903 5895,3877 5800,3822 5704,3767 5635,3698 5580,3602 5525,3507 5500,3413 5500,3302 5500,3191 5525,3097 5580,3002 5635,2906 5704,2837 5800,2782 5895,2727 5989,2702 6100,2702 L 6100,2702 Z"/>
        </g>
       </g>
       <g class="com.sun.star.drawing.CustomShape">
        <g id="id8">
         <rect class="BoundingBox" stroke="none" fill="none" x="5449" y="4251" width="1303" height="1303"/>
         <path fill="rgb(255,255,255)" stroke="none" d="M 6100,4302 C 6211,4302 6305,4327 6400,4382 6496,4437 6565,4506 6620,4602 6675,4697 6701,4791 6701,4902 6701,5013 6675,5107 6620,5202 6565,5298 6496,5367 6400,5422 6305,5477 6211,5503 6100,5503 5989,5503 5895,5477 5800,5422 5704,5367 5635,5298 5580,5202 5525,5107 5500,5013 5500,4902 5500,4791 5525,4697 5580,4602 5635,4506 5704,4437 5800,4382 5895,4327 5989,4302 6100,4302 L 6100,4302 Z"/>
         <path fill="none" stroke="rgb(51,51,51)" stroke-width="100" stroke-linejoin="round" d="M 6100,4302 C 6211,4302 6305,4327 6400,4382 6496,4437 6565,4506 6620,4602 6675,4697 6701,4791 6701,4902 6701,5013 6675,5107 6620,5202 6565,5298 6496,5367 6400,5422 6305,5477 6211,5503 6100,5503 5989,5503 5895,5477 5800,5422 5704,5367 5635,5298 5580,5202 5525,5107 5500,5013 5500,4902 5500,4791 5525,4697 5580,4602 5635,4506 5704,4437 5800,4382 5895,4327 5989,4302 6100,4302 L 6100,4302 Z"/>
        </g>
       </g>
       <g class="com.sun.star.drawing.ConnectorShape">
        <g id="id9">
         <rect class="BoundingBox" stroke="none" fill="none" x="3875" y="3302" width="1626" height="825"/>
         <path fill="none" stroke="rgb(128,128,128)" stroke-width="50" stroke-linejoin="round" d="M 3900,4101 L 5244,3430"/>
         <path fill="rgb(128,128,128)" stroke="none" d="M 5500,3302 L 5187,3347 5276,3525 5500,3302 Z"/>
        </g>
       </g>
       <g class="com.sun.star.drawing.ConnectorShape">
        <g id="id10">
         <rect class="BoundingBox" stroke="none" fill="none" x="3875" y="2476" width="1626" height="827"/>
         <path fill="none" stroke="rgb(128,128,128)" stroke-width="50" stroke-linejoin="round" d="M 3900,2501 L 5244,3174"/>
         <path fill="rgb(128,128,128)" stroke="none" d="M 5500,3302 L 5277,3078 5187,3257 5500,3302 Z"/>
        </g>
       </g>
       <g class="com.sun.star.drawing.ConnectorShape">
        <g id="id11">
         <rect class="BoundingBox" stroke="none" fill="none" x="3875" y="2476" width="1626" height="2427"/>
         <path fill="none" stroke="rgb(128,128,128)" stroke-width="50" stroke-linejoin="round" d="M 3900,2501 L 5341,4663"/>
         <path fill="rgb(128,128,128)" stroke="none" d="M 5500,4902 L 5417,4597 5250,4708 5500,4902 Z"/>
        </g>
       </g>
       <g class="com.sun.star.drawing.ConnectorShape">
        <g id="id12">
         <rect class="BoundingBox" stroke="none" fill="none" x="3875" y="4076" width="1626" height="827"/>
         <path fill="none" stroke="rgb(128,128,128)" stroke-width="50" stroke-linejoin="round" d="M 3900,4101 L 5244,4774"/>
         <path fill="rgb(128,128,128)" stroke="none" d="M 5500,4902 L 5277,4678 5187,4857 5500,4902 Z"/>
        </g>
       </g>
       <g class="com.sun.star.drawing.ConnectorShape">
        <g id="id13">
         <rect class="BoundingBox" stroke="none" fill="none" x="3875" y="3302" width="1626" height="2425"/>
         <path fill="none" stroke="rgb(128,128,128)" stroke-width="50" stroke-linejoin="round" d="M 3900,5701 L 5341,3540"/>
         <path fill="rgb(128,128,128)" stroke="none" d="M 5500,3302 L 5250,3496 5417,3607 5500,3302 Z"/>
        </g>
       </g>
       <g class="com.sun.star.drawing.ConnectorShape">
        <g id="id14">
         <rect class="BoundingBox" stroke="none" fill="none" x="3875" y="4902" width="1626" height="825"/>
         <path fill="none" stroke="rgb(128,128,128)" stroke-width="50" stroke-linejoin="round" d="M 3900,5701 L 5244,5030"/>
         <path fill="rgb(128,128,128)" stroke="none" d="M 5500,4902 L 5187,4947 5276,5125 5500,4902 Z"/>
        </g>
       </g>
      </g>
      <g class="com.sun.star.drawing.CustomShape">
       <g id="id15">
        <rect class="BoundingBox" stroke="none" fill="none" x="7549" y="1351" width="4902" height="5402"/>
        <path fill="rgb(232,242,161)" stroke="none" d="M 11600,1401 C 12000,1401 12400,1801 12400,2201 L 12400,5901 C 12400,6301 12000,6702 11600,6702 L 8400,6702 C 8000,6702 7599,6301 7599,5901 L 7599,2201 C 7599,1801 8000,1401 8400,1401 L 11600,1401 Z"/>
        <path fill="none" stroke="rgb(128,128,128)" stroke-width="100" stroke-linejoin="round" d="M 11600,1401 C 12000,1401 12400,1801 12400,2201 L 12400,5901 C 12400,6301 12000,6702 11600,6702 L 8400,6702 C 8000,6702 7599,6301 7599,5901 L 7599,2201 C 7599,1801 8000,1401 8400,1401 L 11600,1401 Z"/>
       </g>
      </g>
      <g class="Group">
       <g class="com.sun.star.drawing.CustomShape">
        <g id="id16">
         <rect class="BoundingBox" stroke="none" fill="none" x="10749" y="1850" width="1303" height="1303"/>
         <path fill="rgb(255,255,255)" stroke="none" d="M 11400,1901 C 11289,1901 11195,1926 11100,1981 11004,2036 10935,2105 10880,2201 10825,2296 10800,2390 10800,2501 10800,2612 10825,2706 10880,2801 10935,2897 11004,2966 11100,3021 11195,3076 11289,3102 11400,3102 11511,3102 11605,3076 11700,3021 11796,2966 11865,2897 11920,2801 11975,2706 12001,2612 12001,2501 12001,2390 11975,2296 11920,2201 11865,2105 11796,2036 11700,1981 11605,1926 11511,1901 11400,1901 L 11400,1901 Z"/>
         <path fill="none" stroke="rgb(51,51,51)" stroke-width="100" stroke-linejoin="round" d="M 11400,1901 C 11289,1901 11195,1926 11100,1981 11004,2036 10935,2105 10880,2201 10825,2296 10800,2390 10800,2501 10800,2612 10825,2706 10880,2801 10935,2897 11004,2966 11100,3021 11195,3076 11289,3102 11400,3102 11511,3102 11605,3076 11700,3021 11796,2966 11865,2897 11920,2801 11975,2706 12001,2612 12001,2501 12001,2390 11975,2296 11920,2201 11865,2105 11796,2036 11700,1981 11605,1926 11511,1901 11400,1901 Z"/>
        </g>
       </g>
       <g class="com.sun.star.drawing.CustomShape">
        <g id="id17">
         <rect class="BoundingBox" stroke="none" fill="none" x="10749" y="3450" width="1303" height="1303"/>
         <path fill="rgb(255,255,255)" stroke="none" d="M 11400,3501 C 11289,3501 11195,3526 11100,3581 11004,3636 10935,3705 10880,3801 10825,3896 10800,3990 10800,4101 10800,4212 10825,4306 10880,4401 10935,4497 11004,4566 11100,4621 11195,4676 11289,4702 11400,4702 11511,4702 11605,4676 11700,4621 11796,4566 11865,4497 11920,4401 11975,4306 12001,4212 12001,4101 12001,3990 11975,3896 11920,3801 11865,3705 11796,3636 11700,3581 11605,3526 11511,3501 11400,3501 L 11400,3501 Z"/>
         <path fill="none" stroke="rgb(51,51,51)" stroke-width="100" stroke-linejoin="round" d="M 11400,3501 C 11289,3501 11195,3526 11100,3581 11004,3636 10935,3705 10880,3801 10825,3896 10800,3990 10800,4101 10800,4212 10825,4306 10880,4401 10935,4497 11004,4566 11100,4621 11195,4676 11289,4702 11400,4702 11511,4702 11605,4676 11700,4621 11796,4566 11865,4497 11920,4401 11975,4306 12001,4212 12001,4101 12001,3990 11975,3896 11920,3801 11865,3705 11796,3636 11700,3581 11605,3526 11511,3501 11400,3501 Z"/>
        </g>
       </g>
       <g class="com.sun.star.drawing.CustomShape">
        <g id="id18">
         <rect class="BoundingBox" stroke="none" fill="none" x="10749" y="5050" width="1303" height="1303"/>
         <path fill="rgb(255,255,255)" stroke="none" d="M 11400,5101 C 11289,5101 11195,5126 11100,5181 11004,5236 10935,5305 10880,5401 10825,5496 10800,5590 10800,5701 10800,5812 10825,5906 10880,6001 10935,6097 11004,6166 11100,6221 11195,6276 11289,6302 11400,6302 11511,6302 11605,6276 11700,6221 11796,6166 11865,6097 11920,6001 11975,5906 12001,5812 12001,5701 12001,5590 11975,5496 11920,5401 11865,5305 11796,5236 11700,5181 11605,5126 11511,5101 11400,5101 L 11400,5101 Z"/>
         <path fill="none" stroke="rgb(51,51,51)" stroke-width="100" stroke-linejoin="round" d="M 11400,5101 C 11289,5101 11195,5126 11100,5181 11004,5236 10935,5305 10880,5401 10825,5496 10800,5590 10800,5701 10800,5812 10825,5906 10880,6001 10935,6097 11004,6166 11100,6221 11195,6276 11289,6302 11400,6302 11511,6302 11605,6276 11700,6221 11796,6166 11865,6097 11920,6001 11975,5906 12001,5812 12001,5701 12001,5590 11975,5496 11920,5401 11865,5305 11796,5236 11700,5181 11605,5126 11511,5101 11400,5101 Z"/>
        </g>
       </g>
       <g class="com.sun.star.drawing.CustomShape">
        <g id="id19">
         <rect class="BoundingBox" stroke="none" fill="none" x="7949" y="2651" width="1303" height="1303"/>
         <path fill="rgb(255,255,255)" stroke="none" d="M 8600,2702 C 8489,2702 8395,2727 8300,2782 8204,2837 8135,2906 8080,3002 8025,3097 8000,3191 8000,3302 8000,3413 8025,3507 8080,3602 8135,3698 8204,3767 8300,3822 8395,3877 8489,3903 8600,3903 8711,3903 8805,3877 8900,3822 8996,3767 9065,3698 9120,3602 9175,3507 9201,3413 9201,3302 9201,3191 9175,3097 9120,3002 9065,2906 8996,2837 8900,2782 8805,2727 8711,2702 8600,2702 L 8600,2702 Z"/>
         <path fill="none" stroke="rgb(51,51,51)" stroke-width="100" stroke-linejoin="round" d="M 8600,2702 C 8489,2702 8395,2727 8300,2782 8204,2837 8135,2906 8080,3002 8025,3097 8000,3191 8000,3302 8000,3413 8025,3507 8080,3602 8135,3698 8204,3767 8300,3822 8395,3877 8489,3903 8600,3903 8711,3903 8805,3877 8900,3822 8996,3767 9065,3698 9120,3602 9175,3507 9201,3413 9201,3302 9201,3191 9175,3097 9120,3002 9065,2906 8996,2837 8900,2782 8805,2727 8711,2702 8600,2702 Z"/>
        </g>
       </g>
       <g class="com.sun.star.drawing.CustomShape">
        <g id="id20">
         <rect class="BoundingBox" stroke="none" fill="none" x="7949" y="4251" width="1303" height="1303"/>
         <path fill="rgb(255,255,255)" stroke="none" d="M 8600,4302 C 8489,4302 8395,4327 8300,4382 8204,4437 8135,4506 8080,4602 8025,4697 8000,4791 8000,4902 8000,5013 8025,5107 8080,5202 8135,5298 8204,5367 8300,5422 8395,5477 8489,5503 8600,5503 8711,5503 8805,5477 8900,5422 8996,5367 9065,5298 9120,5202 9175,5107 9201,5013 9201,4902 9201,4791 9175,4697 9120,4602 9065,4506 8996,4437 8900,4382 8805,4327 8711,4302 8600,4302 L 8600,4302 Z"/>
         <path fill="none" stroke="rgb(51,51,51)" stroke-width="100" stroke-linejoin="round" d="M 8600,4302 C 8489,4302 8395,4327 8300,4382 8204,4437 8135,4506 8080,4602 8025,4697 8000,4791 8000,4902 8000,5013 8025,5107 8080,5202 8135,5298 8204,5367 8300,5422 8395,5477 8489,5503 8600,5503 8711,5503 8805,5477 8900,5422 8996,5367 9065,5298 9120,5202 9175,5107 9201,5013 9201,4902 9201,4791 9175,4697 9120,4602 9065,4506 8996,4437 8900,4382 8805,4327 8711,4302 8600,4302 Z"/>
        </g>
       </g>
       <g class="com.sun.star.drawing.ConnectorShape">
        <g id="id21">
         <rect class="BoundingBox" stroke="none" fill="none" x="9175" y="3277" width="1626" height="825"/>
         <path fill="none" stroke="rgb(128,128,128)" stroke-width="50" stroke-linejoin="round" d="M 10544,3973 L 9200,3302"/>
         <path fill="rgb(128,128,128)" stroke="none" d="M 10800,4101 L 10576,3878 10487,4056 10800,4101 Z"/>
        </g>
       </g>
       <g class="com.sun.star.drawing.ConnectorShape">
        <g id="id22">
         <rect class="BoundingBox" stroke="none" fill="none" x="9175" y="2501" width="1626" height="827"/>
         <path fill="none" stroke="rgb(128,128,128)" stroke-width="50" stroke-linejoin="round" d="M 10544,2629 L 9200,3302"/>
         <path fill="rgb(128,128,128)" stroke="none" d="M 10800,2501 L 10487,2546 10577,2725 10800,2501 Z"/>
        </g>
       </g>
       <g class="com.sun.star.drawing.ConnectorShape">
        <g id="id23">
         <rect class="BoundingBox" stroke="none" fill="none" x="9175" y="2501" width="1626" height="2427"/>
         <path fill="none" stroke="rgb(128,128,128)" stroke-width="50" stroke-linejoin="round" d="M 10641,2740 L 9200,4902"/>
         <path fill="rgb(128,128,128)" stroke="none" d="M 10800,2501 L 10550,2695 10717,2806 10800,2501 Z"/>
        </g>
       </g>
       <g class="com.sun.star.drawing.ConnectorShape">
        <g id="id24">
         <rect class="BoundingBox" stroke="none" fill="none" x="9175" y="4101" width="1626" height="827"/>
         <path fill="none" stroke="rgb(128,128,128)" stroke-width="50" stroke-linejoin="round" d="M 10544,4229 L 9200,4902"/>
         <path fill="rgb(128,128,128)" stroke="none" d="M 10800,4101 L 10487,4146 10577,4325 10800,4101 Z"/>
        </g>
       </g>
       <g class="com.sun.star.drawing.ConnectorShape">
        <g id="id25">
         <rect class="BoundingBox" stroke="none" fill="none" x="9175" y="3277" width="1626" height="2425"/>
         <path fill="none" stroke="rgb(128,128,128)" stroke-width="50" stroke-linejoin="round" d="M 10641,5463 L 9200,3302"/>
         <path fill="rgb(128,128,128)" stroke="none" d="M 10800,5701 L 10717,5396 10550,5507 10800,5701 Z"/>
        </g>
       </g>
       <g class="com.sun.star.drawing.ConnectorShape">
        <g id="id26">
         <rect class="BoundingBox" stroke="none" fill="none" x="9175" y="4877" width="1626" height="825"/>
         <path fill="none" stroke="rgb(128,128,128)" stroke-width="50" stroke-linejoin="round" d="M 10544,5573 L 9200,4902"/>
         <path fill="rgb(128,128,128)" stroke="none" d="M 10800,5701 L 10576,5478 10487,5656 10800,5701 Z"/>
        </g>
       </g>
      </g>
      <g class="com.sun.star.drawing.CustomShape">
       <g id="id27">
        <rect class="BoundingBox" stroke="none" fill="none" x="2250" y="8352" width="4902" height="5402"/>
        <path fill="rgb(232,242,161)" stroke="none" d="M 3100,8402 C 2700,8402 2300,8802 2300,9202 L 2300,12902 C 2300,13302 2700,13703 3100,13703 L 6300,13703 C 6700,13703 7101,13302 7101,12902 L 7101,9202 C 7101,8802 6700,8402 6300,8402 L 3100,8402 Z"/>
        <path fill="none" stroke="rgb(128,128,128)" stroke-width="100" stroke-linejoin="round" d="M 3100,8402 C 2700,8402 2300,8802 2300,9202 L 2300,12902 C 2300,13302 2700,13703 3100,13703 L 6300,13703 C 6700,13703 7101,13302 7101,12902 L 7101,9202 C 7101,8802 6700,8402 6300,8402 L 3100,8402 Z"/>
       </g>
      </g>
      <g class="com.sun.star.drawing.CustomShape">
       <g id="id28">
        <rect class="BoundingBox" stroke="none" fill="none" x="2649" y="8851" width="1303" height="1303"/>
        <path fill="rgb(255,255,255)" stroke="none" d="M 3300,8902 C 3411,8902 3505,8927 3600,8982 3696,9037 3765,9106 3820,9202 3875,9297 3901,9391 3901,9502 3901,9613 3875,9707 3820,9802 3765,9898 3696,9967 3600,10022 3505,10077 3411,10103 3300,10103 3189,10103 3095,10077 3000,10022 2904,9967 2835,9898 2780,9802 2725,9707 2700,9613 2700,9502 2700,9391 2725,9297 2780,9202 2835,9106 2904,9037 3000,8982 3095,8927 3189,8902 3300,8902 L 3300,8902 Z"/>
        <path fill="none" stroke="rgb(51,51,51)" stroke-width="100" stroke-linejoin="round" d="M 3300,8902 C 3411,8902 3505,8927 3600,8982 3696,9037 3765,9106 3820,9202 3875,9297 3901,9391 3901,9502 3901,9613 3875,9707 3820,9802 3765,9898 3696,9967 3600,10022 3505,10077 3411,10103 3300,10103 3189,10103 3095,10077 3000,10022 2904,9967 2835,9898 2780,9802 2725,9707 2700,9613 2700,9502 2700,9391 2725,9297 2780,9202 2835,9106 2904,9037 3000,8982 3095,8927 3189,8902 3300,8902 L 3300,8902 Z"/>
       </g>
      </g>
      <g class="com.sun.star.drawing.CustomShape">
       <g id="id29">
        <rect class="BoundingBox" stroke="none" fill="none" x="2649" y="10451" width="1303" height="1303"/>
        <path fill="rgb(255,255,255)" stroke="none" d="M 3300,10502 C 3411,10502 3505,10527 3600,10582 3696,10637 3765,10706 3820,10802 3875,10897 3901,10991 3901,11102 3901,11213 3875,11307 3820,11402 3765,11498 3696,11567 3600,11622 3505,11677 3411,11703 3300,11703 3189,11703 3095,11677 3000,11622 2904,11567 2835,11498 2780,11402 2725,11307 2700,11213 2700,11102 2700,10991 2725,10897 2780,10802 2835,10706 2904,10637 3000,10582 3095,10527 3189,10502 3300,10502 L 3300,10502 Z"/>
        <path fill="none" stroke="rgb(51,51,51)" stroke-width="100" stroke-linejoin="round" d="M 3300,10502 C 3411,10502 3505,10527 3600,10582 3696,10637 3765,10706 3820,10802 3875,10897 3901,10991 3901,11102 3901,11213 3875,11307 3820,11402 3765,11498 3696,11567 3600,11622 3505,11677 3411,11703 3300,11703 3189,11703 3095,11677 3000,11622 2904,11567 2835,11498 2780,11402 2725,11307 2700,11213 2700,11102 2700,10991 2725,10897 2780,10802 2835,10706 2904,10637 3000,10582 3095,10527 3189,10502 3300,10502 L 3300,10502 Z"/>
       </g>
      </g>
      <g class="com.sun.star.drawing.CustomShape">
       <g id="id30">
        <rect class="BoundingBox" stroke="none" fill="none" x="2649" y="12051" width="1303" height="1303"/>
        <path fill="rgb(255,255,255)" stroke="none" d="M 3300,12102 C 3411,12102 3505,12127 3600,12182 3696,12237 3765,12306 3820,12402 3875,12497 3901,12591 3901,12702 3901,12813 3875,12907 3820,13002 3765,13098 3696,13167 3600,13222 3505,13277 3411,13303 3300,13303 3189,13303 3095,13277 3000,13222 2904,13167 2835,13098 2780,13002 2725,12907 2700,12813 2700,12702 2700,12591 2725,12497 2780,12402 2835,12306 2904,12237 3000,12182 3095,12127 3189,12102 3300,12102 L 3300,12102 Z"/>
        <path fill="none" stroke="rgb(51,51,51)" stroke-width="100" stroke-linejoin="round" d="M 3300,12102 C 3411,12102 3505,12127 3600,12182 3696,12237 3765,12306 3820,12402 3875,12497 3901,12591 3901,12702 3901,12813 3875,12907 3820,13002 3765,13098 3696,13167 3600,13222 3505,13277 3411,13303 3300,13303 3189,13303 3095,13277 3000,13222 2904,13167 2835,13098 2780,13002 2725,12907 2700,12813 2700,12702 2700,12591 2725,12497 2780,12402 2835,12306 2904,12237 3000,12182 3095,12127 3189,12102 3300,12102 L 3300,12102 Z"/>
       </g>
      </g>
      <g class="com.sun.star.drawing.CustomShape">
       <g id="id31">
        <rect class="BoundingBox" stroke="none" fill="none" x="5449" y="9652" width="1303" height="1303"/>
        <path fill="rgb(255,255,255)" stroke="none" d="M 6100,9703 C 6211,9703 6305,9728 6400,9783 6496,9838 6565,9907 6620,10003 6675,10098 6701,10192 6701,10303 6701,10414 6675,10508 6620,10603 6565,10699 6496,10768 6400,10823 6305,10878 6211,10904 6100,10904 5989,10904 5895,10878 5800,10823 5704,10768 5635,10699 5580,10603 5525,10508 5500,10414 5500,10303 5500,10192 5525,10098 5580,10003 5635,9907 5704,9838 5800,9783 5895,9728 5989,9703 6100,9703 L 6100,9703 Z"/>
        <path fill="none" stroke="rgb(51,51,51)" stroke-width="100" stroke-linejoin="round" d="M 6100,9703 C 6211,9703 6305,9728 6400,9783 6496,9838 6565,9907 6620,10003 6675,10098 6701,10192 6701,10303 6701,10414 6675,10508 6620,10603 6565,10699 6496,10768 6400,10823 6305,10878 6211,10904 6100,10904 5989,10904 5895,10878 5800,10823 5704,10768 5635,10699 5580,10603 5525,10508 5500,10414 5500,10303 5500,10192 5525,10098 5580,10003 5635,9907 5704,9838 5800,9783 5895,9728 5989,9703 6100,9703 L 6100,9703 Z"/>
       </g>
      </g>
      <g class="com.sun.star.drawing.CustomShape">
       <g id="id32">
        <rect class="BoundingBox" stroke="none" fill="none" x="5449" y="11252" width="1303" height="1303"/>
        <path fill="rgb(255,255,255)" stroke="none" d="M 6100,11303 C 6211,11303 6305,11328 6400,11383 6496,11438 6565,11507 6620,11603 6675,11698 6701,11792 6701,11903 6701,12014 6675,12108 6620,12203 6565,12299 6496,12368 6400,12423 6305,12478 6211,12504 6100,12504 5989,12504 5895,12478 5800,12423 5704,12368 5635,12299 5580,12203 5525,12108 5500,12014 5500,11903 5500,11792 5525,11698 5580,11603 5635,11507 5704,11438 5800,11383 5895,11328 5989,11303 6100,11303 L 6100,11303 Z"/>
        <path fill="none" stroke="rgb(51,51,51)" stroke-width="100" stroke-linejoin="round" d="M 6100,11303 C 6211,11303 6305,11328 6400,11383 6496,11438 6565,11507 6620,11603 6675,11698 6701,11792 6701,11903 6701,12014 6675,12108 6620,12203 6565,12299 6496,12368 6400,12423 6305,12478 6211,12504 6100,12504 5989,12504 5895,12478 5800,12423 5704,12368 5635,12299 5580,12203 5525,12108 5500,12014 5500,11903 5500,11792 5525,11698 5580,11603 5635,11507 5704,11438 5800,11383 5895,11328 5989,11303 6100,11303 L 6100,11303 Z"/>
       </g>
      </g>
      <g class="com.sun.star.drawing.ConnectorShape">
       <g id="id33">
        <rect class="BoundingBox" stroke="none" fill="none" x="3875" y="10303" width="1626" height="825"/>
        <path fill="none" stroke="rgb(128,128,128)" stroke-width="50" stroke-linejoin="round" d="M 3900,11102 L 5244,10431"/>
        <path fill="rgb(128,128,128)" stroke="none" d="M 5500,10303 L 5187,10348 5276,10526 5500,10303 Z"/>
       </g>
      </g>
      <g class="com.sun.star.drawing.ConnectorShape">
       <g id="id34">
        <rect class="BoundingBox" stroke="none" fill="none" x="3875" y="9477" width="1626" height="827"/>
        <path fill="none" stroke="rgb(128,128,128)" stroke-width="50" stroke-linejoin="round" d="M 3900,9502 L 5244,10175"/>
        <path fill="rgb(128,128,128)" stroke="none" d="M 5500,10303 L 5277,10079 5187,10258 5500,10303 Z"/>
       </g>
      </g>
      <g class="com.sun.star.drawing.ConnectorShape">
       <g id="id35">
        <rect class="BoundingBox" stroke="none" fill="none" x="3875" y="9477" width="1626" height="2427"/>
        <path fill="none" stroke="rgb(128,128,128)" stroke-width="50" stroke-linejoin="round" d="M 3900,9502 L 5341,11664"/>
        <path fill="rgb(128,128,128)" stroke="none" d="M 5500,11903 L 5417,11598 5250,11709 5500,11903 Z"/>
       </g>
      </g>
      <g class="com.sun.star.drawing.ConnectorShape">
       <g id="id36">
        <rect class="BoundingBox" stroke="none" fill="none" x="3875" y="11077" width="1626" height="827"/>
        <path fill="none" stroke="rgb(128,128,128)" stroke-width="50" stroke-linejoin="round" d="M 3900,11102 L 5244,11775"/>
        <path fill="rgb(128,128,128)" stroke="none" d="M 5500,11903 L 5277,11679 5187,11858 5500,11903 Z"/>
       </g>
      </g>
      <g class="com.sun.star.drawing.ConnectorShape">
       <g id="id37">
        <rect class="BoundingBox" stroke="none" fill="none" x="3875" y="10303" width="1626" height="2425"/>
        <path fill="none" stroke="rgb(128,128,128)" stroke-width="50" stroke-linejoin="round" d="M 3900,12702 L 5341,10541"/>
        <path fill="rgb(128,128,128)" stroke="none" d="M 5500,10303 L 5250,10497 5417,10608 5500,10303 Z"/>
       </g>
      </g>
      <g class="com.sun.star.drawing.ConnectorShape">
       <g id="id38">
        <rect class="BoundingBox" stroke="none" fill="none" x="3875" y="11903" width="1626" height="825"/>
        <path fill="none" stroke="rgb(128,128,128)" stroke-width="50" stroke-linejoin="round" d="M 3900,12702 L 5244,12031"/>
        <path fill="rgb(128,128,128)" stroke="none" d="M 5500,11903 L 5187,11948 5276,12126 5500,11903 Z"/>
       </g>
      </g>
      <g class="com.sun.star.drawing.ConnectorShape">
       <g id="id39">
        <rect class="BoundingBox" stroke="none" fill="none" x="4525" y="6626" width="351" height="1777"/>
        <path fill="none" stroke="rgb(28,28,28)" stroke-width="150" stroke-linejoin="round" d="M 4700,6701 L 4700,7900"/>
        <path fill="rgb(28,28,28)" stroke="none" d="M 4700,8402 L 4875,7877 4525,7877 4700,8402 Z"/>
       </g>
      </g>
      <g class="com.sun.star.drawing.CustomShape">
       <g id="id40">
        <rect class="BoundingBox" stroke="none" fill="none" x="7549" y="8351" width="4902" height="5403"/>
        <path fill="rgb(180,199,220)" stroke="none" d="M 11600,8402 C 12000,8402 12400,8802 12400,9202 L 12400,12902 C 12400,13302 12000,13703 11600,13703 L 8400,13703 C 8000,13703 7599,13302 7599,12902 L 7599,9202 C 7599,8802 8000,8402 8400,8402 L 11600,8402 Z"/>
        <path fill="none" stroke="rgb(128,128,128)" stroke-width="100" stroke-linejoin="round" d="M 11600,8402 C 12000,8402 12400,8802 12400,9202 L 12400,12902 C 12400,13302 12000,13703 11600,13703 L 8400,13703 C 8000,13703 7599,13302 7599,12902 L 7599,9202 C 7599,8802 8000,8402 8400,8402 L 11600,8402 Z"/>
       </g>
      </g>
      <g class="Group">
       <g class="com.sun.star.drawing.CustomShape">
        <g id="id41">
         <rect class="BoundingBox" stroke="none" fill="none" x="10749" y="8851" width="1303" height="1303"/>
         <path fill="rgb(255,255,255)" stroke="none" d="M 11400,8902 C 11289,8902 11195,8927 11100,8982 11004,9037 10935,9106 10880,9202 10825,9297 10800,9391 10800,9502 10800,9613 10825,9707 10880,9802 10935,9898 11004,9967 11100,10022 11195,10077 11289,10103 11400,10103 11511,10103 11605,10077 11700,10022 11796,9967 11865,9898 11920,9802 11975,9707 12001,9613 12001,9502 12001,9391 11975,9297 11920,9202 11865,9106 11796,9037 11700,8982 11605,8927 11511,8902 11400,8902 L 11400,8902 Z"/>
         <path fill="none" stroke="rgb(51,51,51)" stroke-width="100" stroke-linejoin="round" d="M 11400,8902 C 11289,8902 11195,8927 11100,8982 11004,9037 10935,9106 10880,9202 10825,9297 10800,9391 10800,9502 10800,9613 10825,9707 10880,9802 10935,9898 11004,9967 11100,10022 11195,10077 11289,10103 11400,10103 11511,10103 11605,10077 11700,10022 11796,9967 11865,9898 11920,9802 11975,9707 12001,9613 12001,9502 12001,9391 11975,9297 11920,9202 11865,9106 11796,9037 11700,8982 11605,8927 11511,8902 11400,8902 Z"/>
        </g>
       </g>
       <g class="com.sun.star.drawing.CustomShape">
        <g id="id42">
         <rect class="BoundingBox" stroke="none" fill="none" x="10749" y="10451" width="1303" height="1303"/>
         <path fill="rgb(255,255,255)" stroke="none" d="M 11400,10502 C 11289,10502 11195,10527 11100,10582 11004,10637 10935,10706 10880,10802 10825,10897 10800,10991 10800,11102 10800,11213 10825,11307 10880,11402 10935,11498 11004,11567 11100,11622 11195,11677 11289,11703 11400,11703 11511,11703 11605,11677 11700,11622 11796,11567 11865,11498 11920,11402 11975,11307 12001,11213 12001,11102 12001,10991 11975,10897 11920,10802 11865,10706 11796,10637 11700,10582 11605,10527 11511,10502 11400,10502 L 11400,10502 Z"/>
         <path fill="none" stroke="rgb(51,51,51)" stroke-width="100" stroke-linejoin="round" d="M 11400,10502 C 11289,10502 11195,10527 11100,10582 11004,10637 10935,10706 10880,10802 10825,10897 10800,10991 10800,11102 10800,11213 10825,11307 10880,11402 10935,11498 11004,11567 11100,11622 11195,11677 11289,11703 11400,11703 11511,11703 11605,11677 11700,11622 11796,11567 11865,11498 11920,11402 11975,11307 12001,11213 12001,11102 12001,10991 11975,10897 11920,10802 11865,10706 11796,10637 11700,10582 11605,10527 11511,10502 11400,10502 Z"/>
        </g>
       </g>
       <g class="com.sun.star.drawing.CustomShape">
        <g id="id43">
         <rect class="BoundingBox" stroke="none" fill="none" x="10749" y="12051" width="1303" height="1303"/>
         <path fill="rgb(255,255,255)" stroke="none" d="M 11400,12102 C 11289,12102 11195,12127 11100,12182 11004,12237 10935,12306 10880,12402 10825,12497 10800,12591 10800,12702 10800,12813 10825,12907 10880,13002 10935,13098 11004,13167 11100,13222 11195,13277 11289,13303 11400,13303 11511,13303 11605,13277 11700,13222 11796,13167 11865,13098 11920,13002 11975,12907 12001,12813 12001,12702 12001,12591 11975,12497 11920,12402 11865,12306 11796,12237 11700,12182 11605,12127 11511,12102 11400,12102 L 11400,12102 Z"/>
         <path fill="none" stroke="rgb(51,51,51)" stroke-width="100" stroke-linejoin="round" d="M 11400,12102 C 11289,12102 11195,12127 11100,12182 11004,12237 10935,12306 10880,12402 10825,12497 10800,12591 10800,12702 10800,12813 10825,12907 10880,13002 10935,13098 11004,13167 11100,13222 11195,13277 11289,13303 11400,13303 11511,13303 11605,13277 11700,13222 11796,13167 11865,13098 11920,13002 11975,12907 12001,12813 12001,12702 12001,12591 11975,12497 11920,12402 11865,12306 11796,12237 11700,12182 11605,12127 11511,12102 11400,12102 Z"/>
        </g>
       </g>
       <g class="com.sun.star.drawing.CustomShape">
        <g id="id44">
         <rect class="BoundingBox" stroke="none" fill="none" x="7949" y="9652" width="1303" height="1303"/>
         <path fill="rgb(255,255,255)" stroke="none" d="M 8600,9703 C 8489,9703 8395,9728 8300,9783 8204,9838 8135,9907 8080,10003 8025,10098 8000,10192 8000,10303 8000,10414 8025,10508 8080,10603 8135,10699 8204,10768 8300,10823 8395,10878 8489,10904 8600,10904 8711,10904 8805,10878 8900,10823 8996,10768 9065,10699 9120,10603 9175,10508 9201,10414 9201,10303 9201,10192 9175,10098 9120,10003 9065,9907 8996,9838 8900,9783 8805,9728 8711,9703 8600,9703 L 8600,9703 Z"/>
         <path fill="none" stroke="rgb(51,51,51)" stroke-width="100" stroke-linejoin="round" d="M 8600,9703 C 8489,9703 8395,9728 8300,9783 8204,9838 8135,9907 8080,10003 8025,10098 8000,10192 8000,10303 8000,10414 8025,10508 8080,10603 8135,10699 8204,10768 8300,10823 8395,10878 8489,10904 8600,10904 8711,10904 8805,10878 8900,10823 8996,10768 9065,10699 9120,10603 9175,10508 9201,10414 9201,10303 9201,10192 9175,10098 9120,10003 9065,9907 8996,9838 8900,9783 8805,9728 8711,9703 8600,9703 Z"/>
        </g>
       </g>
       <g class="com.sun.star.drawing.CustomShape">
        <g id="id45">
         <rect class="BoundingBox" stroke="none" fill="none" x="7949" y="11252" width="1303" height="1303"/>
         <path fill="rgb(255,255,255)" stroke="none" d="M 8600,11303 C 8489,11303 8395,11328 8300,11383 8204,11438 8135,11507 8080,11603 8025,11698 8000,11792 8000,11903 8000,12014 8025,12108 8080,12203 8135,12299 8204,12368 8300,12423 8395,12478 8489,12504 8600,12504 8711,12504 8805,12478 8900,12423 8996,12368 9065,12299 9120,12203 9175,12108 9201,12014 9201,11903 9201,11792 9175,11698 9120,11603 9065,11507 8996,11438 8900,11383 8805,11328 8711,11303 8600,11303 L 8600,11303 Z"/>
         <path fill="none" stroke="rgb(51,51,51)" stroke-width="100" stroke-linejoin="round" d="M 8600,11303 C 8489,11303 8395,11328 8300,11383 8204,11438 8135,11507 8080,11603 8025,11698 8000,11792 8000,11903 8000,12014 8025,12108 8080,12203 8135,12299 8204,12368 8300,12423 8395,12478 8489,12504 8600,12504 8711,12504 8805,12478 8900,12423 8996,12368 9065,12299 9120,12203 9175,12108 9201,12014 9201,11903 9201,11792 9175,11698 9120,11603 9065,11507 8996,11438 8900,11383 8805,11328 8711,11303 8600,11303 Z"/>
        </g>
       </g>
       <g class="com.sun.star.drawing.ConnectorShape">
        <g id="id46">
         <rect class="BoundingBox" stroke="none" fill="none" x="9175" y="10278" width="1626" height="825"/>
         <path fill="none" stroke="rgb(128,128,128)" stroke-width="50" stroke-linejoin="round" d="M 10544,10974 L 9200,10303"/>
         <path fill="rgb(128,128,128)" stroke="none" d="M 10800,11102 L 10576,10879 10487,11057 10800,11102 Z"/>
        </g>
       </g>
       <g class="com.sun.star.drawing.ConnectorShape">
        <g id="id47">
         <rect class="BoundingBox" stroke="none" fill="none" x="9175" y="9502" width="1626" height="827"/>
         <path fill="none" stroke="rgb(128,128,128)" stroke-width="50" stroke-linejoin="round" d="M 10544,9630 L 9200,10303"/>
         <path fill="rgb(128,128,128)" stroke="none" d="M 10800,9502 L 10487,9547 10577,9726 10800,9502 Z"/>
        </g>
       </g>
       <g class="com.sun.star.drawing.ConnectorShape">
        <g id="id48">
         <rect class="BoundingBox" stroke="none" fill="none" x="9175" y="9502" width="1626" height="2427"/>
         <path fill="none" stroke="rgb(128,128,128)" stroke-width="50" stroke-linejoin="round" d="M 10641,9741 L 9200,11903"/>
         <path fill="rgb(128,128,128)" stroke="none" d="M 10800,9502 L 10550,9696 10717,9807 10800,9502 Z"/>
        </g>
       </g>
       <g class="com.sun.star.drawing.ConnectorShape">
        <g id="id49">
         <rect class="BoundingBox" stroke="none" fill="none" x="9175" y="11102" width="1626" height="827"/>
         <path fill="none" stroke="rgb(128,128,128)" stroke-width="50" stroke-linejoin="round" d="M 10544,11230 L 9200,11903"/>
         <path fill="rgb(128,128,128)" stroke="none" d="M 10800,11102 L 10487,11147 10577,11326 10800,11102 Z"/>
        </g>
       </g>
       <g class="com.sun.star.drawing.ConnectorShape">
        <g id="id50">
         <rect class="BoundingBox" stroke="none" fill="none" x="9175" y="10278" width="1626" height="2425"/>
         <path fill="none" stroke="rgb(128,128,128)" stroke-width="50" stroke-linejoin="round" d="M 10641,12464 L 9200,10303"/>
         <path fill="rgb(128,128,128)" stroke="none" d="M 10800,12702 L 10717,12397 10550,12508 10800,12702 Z"/>
        </g>
       </g>
       <g class="com.sun.star.drawing.ConnectorShape">
        <g id="id51">
         <rect class="BoundingBox" stroke="none" fill="none" x="9175" y="11878" width="1626" height="825"/>
         <path fill="none" stroke="rgb(128,128,128)" stroke-width="50" stroke-linejoin="round" d="M 10544,12574 L 9200,11903"/>
         <path fill="rgb(128,128,128)" stroke="none" d="M 10800,12702 L 10576,12479 10487,12657 10800,12702 Z"/>
        </g>
       </g>
      </g>
      <g class="com.sun.star.drawing.ConnectorShape">
       <g id="id52">
        <rect class="BoundingBox" stroke="none" fill="none" x="7075" y="10877" width="526" height="351"/>
        <path fill="rgb(51,51,51)" stroke="none" d="M 7600,11052 L 7075,10877 7075,11227 7600,11052 Z"/>
       </g>
      </g>
      <g class="com.sun.star.drawing.ConnectorShape">
       <g id="id53">
        <rect class="BoundingBox" stroke="none" fill="none" x="7075" y="3876" width="526" height="351"/>
        <path fill="rgb(51,51,51)" stroke="none" d="M 7600,4051 L 7075,3876 7075,4226 7600,4051 Z"/>
       </g>
      </g>
     </g>
    </g>
   </g>
  </g>
 </g>
</svg>