<?xml version="1.0" encoding="UTF-8"?>
<!DOCTYPE svg PUBLIC "-//W3C//DTD SVG 1.1//EN" "http://www.w3.org/Graphics/SVG/1.1/DTD/svg11.dtd">
<svg version="1.2" width="111.03mm" height="45.03mm" viewBox="1849 6349 11103 4503" preserveAspectRatio="xMidYMid" fill-rule="evenodd" stroke-width="28.222" stroke-linejoin="round" xmlns="http://www.w3.org/2000/svg" xmlns:ooo="http://xml.openoffice.org/svg/export" xmlns:xlink="http://www.w3.org/1999/xlink" xmlns:presentation="http://sun.com/xmlns/staroffice/presentation" xmlns:smil="http://www.w3.org/2001/SMIL20/" xmlns:anim="urn:oasis:names:tc:opendocument:xmlns:animation:1.0" xml:space="preserve">
 <defs class="EmbeddedBulletChars">
  <g id="bullet-char-template-57356" transform="scale(0.00048828125,-0.00048828125)">
   <path d="M 580,1141 L 1163,571 580,0 -4,571 580,1141 Z"/>
  </g>
  <g id="bullet-char-template-57354" transform="scale(0.00048828125,-0.00048828125)">
   <path d="M 8,1128 L 1137,1128 1137,0 8,0 8,1128 Z"/>
  </g>
  <g id="bullet-char-template-10146" transform="scale(0.00048828125,-0.00048828125)">
   <path d="M 174,0 L 602,739 174,1481 1456,739 174,0 Z M 1358,739 L 309,1346 659,739 1358,739 Z"/>
  </g>
  <g id="bullet-char-template-10132" transform="scale(0.00048828125,-0.00048828125)">
   <path d="M 2015,739 L 1276,0 717,0 1260,543 174,543 174,936 1260,936 717,1481 1274,1481 2015,739 Z"/>
  </g>
  <g id="bullet-char-template-10007" transform="scale(0.00048828125,-0.00048828125)">
   <path d="M 0,-2 C -7,14 -16,27 -25,37 L 356,567 C 262,823 215,952 215,954 215,979 228,992 255,992 264,992 276,990 289,987 310,991 331,999 354,1012 L 381,999 492,748 772,1049 836,1024 860,1049 C 881,1039 901,1025 922,1006 886,937 835,863 770,784 769,783 710,716 594,584 L 774,223 C 774,196 753,168 711,139 L 727,119 C 717,90 699,76 672,76 641,76 570,178 457,381 L 164,-76 C 142,-110 111,-127 72,-127 30,-127 9,-110 8,-76 1,-67 -2,-52 -2,-32 -2,-23 -1,-13 0,-2 Z"/>
  </g>
  <g id="bullet-char-template-10004" transform="scale(0.00048828125,-0.00048828125)">
   <path d="M 285,-33 C 182,-33 111,30 74,156 52,228 41,333 41,471 41,549 55,616 82,672 116,743 169,778 240,778 293,778 328,747 346,684 L 369,508 C 377,444 397,411 428,410 L 1163,1116 C 1174,1127 1196,1133 1229,1133 1271,1133 1292,1118 1292,1087 L 1292,965 C 1292,929 1282,901 1262,881 L 442,47 C 390,-6 338,-33 285,-33 Z"/>
  </g>
  <g id="bullet-char-template-9679" transform="scale(0.00048828125,-0.00048828125)">
   <path d="M 813,0 C 632,0 489,54 383,161 276,268 223,411 223,592 223,773 276,916 383,1023 489,1130 632,1184 813,1184 992,1184 1136,1130 1245,1023 1353,916 1407,772 1407,592 1407,412 1353,268 1245,161 1136,54 992,0 813,0 Z"/>
  </g>
  <g id="bullet-char-template-8226" transform="scale(0.00048828125,-0.00048828125)">
   <path d="M 346,457 C 273,457 209,483 155,535 101,586 74,649 74,723 74,796 101,859 155,911 209,963 273,989 346,989 419,989 480,963 531,910 582,859 608,796 608,723 608,648 583,586 532,535 482,483 420,457 346,457 Z"/>
  </g>
  <g id="bullet-char-template-8211" transform="scale(0.00048828125,-0.00048828125)">
   <path d="M -4,459 L 1135,459 1135,606 -4,606 -4,459 Z"/>
  </g>
  <g id="bullet-char-template-61548" transform="scale(0.00048828125,-0.00048828125)">
   <path d="M 173,740 C 173,903 231,1043 346,1159 462,1274 601,1332 765,1332 928,1332 1067,1274 1183,1159 1299,1043 1357,903 1357,740 1357,577 1299,437 1183,322 1067,206 928,148 765,148 601,148 462,206 346,322 231,437 173,577 173,740 Z"/>
  </g>
 </defs>
 <g class="Page">
  <g class="com.sun.star.drawing.ConnectorShape">
   <g id="id3">
    <rect class="BoundingBox" stroke="none" fill="none" x="3732" y="7623" width="1892" height="1078"/>
    <path fill="none" stroke="rgb(128,128,128)" stroke-width="100" stroke-linejoin="round" d="M 5573,7673 C 4357,7673 4130,7853 3888,8212"/>
    <path fill="rgb(128,128,128)" stroke="none" d="M 3750,8700 L 4077,8234 3732,8131 3750,8700 Z"/>
   </g>
  </g>
  <g class="com.sun.star.drawing.ConnectorShape">
   <g id="id4">
    <rect class="BoundingBox" stroke="none" fill="none" x="9877" y="7277" width="347" height="547"/>
    <path fill="none" stroke="rgb(128,128,128)" stroke-width="100" stroke-linejoin="round" d="M 10173,7327 L 9927,7773"/>
   </g>
  </g>
  <g class="com.sun.star.drawing.ConnectorShape">
   <g id="id5">
    <rect class="BoundingBox" stroke="none" fill="none" x="8350" y="8700" width="1201" height="301"/>
    <path fill="none" stroke="rgb(128,128,128)" stroke-width="100" stroke-linejoin="round" d="M 9500,8950 L 8400,8750"/>
   </g>
  </g>
  <g class="com.sun.star.drawing.ConnectorShape">
   <g id="id6">
    <rect class="BoundingBox" stroke="none" fill="none" x="9877" y="7777" width="1847" height="1047"/>
    <path fill="none" stroke="rgb(128,128,128)" stroke-width="100" stroke-linejoin="round" d="M 9927,8773 L 11673,7827"/>
   </g>
  </g>
  <g class="com.sun.star.drawing.ConnectorShape">
   <g id="id7">
    <rect class="BoundingBox" stroke="none" fill="none" x="9877" y="9077" width="847" height="1047"/>
    <path fill="none" stroke="rgb(128,128,128)" stroke-width="100" stroke-linejoin="round" d="M 9927,9127 L 10673,10073"/>
   </g>
  </g>
  <g class="com.sun.star.drawing.ConnectorShape">
   <g id="id8">
    <rect class="BoundingBox" stroke="none" fill="none" x="11277" y="9377" width="1174" height="324"/>
    <path fill="none" stroke="rgb(128,128,128)" stroke-width="100" stroke-linejoin="round" d="M 11327,9427 L 12400,9650"/>
   </g>
  </g>
  <g class="com.sun.star.drawing.ConnectorShape">
   <g id="id9">
    <rect class="BoundingBox" stroke="none" fill="none" x="9950" y="8900" width="1001" height="401"/>
    <path fill="none" stroke="rgb(128,128,128)" stroke-width="100" stroke-linejoin="round" d="M 10900,9250 L 10000,8950"/>
   </g>
  </g>
  <g class="com.sun.star.drawing.ConnectorShape">
   <g id="id10">
    <rect class="BoundingBox" stroke="none" fill="none" x="9500" y="9150" width="301" height="1201"/>
    <path fill="none" stroke="rgb(128,128,128)" stroke-width="100" stroke-linejoin="round" d="M 9750,9200 L 9550,10300"/>
   </g>
  </g>
  <g class="com.sun.star.drawing.ConnectorShape">
   <g id="id11">
    <rect class="BoundingBox" stroke="none" fill="none" x="8377" y="9977" width="1047" height="447"/>
    <path fill="none" stroke="rgb(128,128,128)" stroke-width="100" stroke-linejoin="round" d="M 9373,10373 L 8427,10027"/>
   </g>
  </g>
  <g class="com.sun.star.drawing.ConnectorShape">
   <g id="id12">
    <rect class="BoundingBox" stroke="none" fill="none" x="8100" y="8950" width="201" height="701"/>
    <path fill="none" stroke="rgb(128,128,128)" stroke-width="100" stroke-linejoin="round" d="M 8250,9600 L 8150,9000"/>
   </g>
  </g>
  <g class="com.sun.star.drawing.ConnectorShape">
   <g id="id13">
    <rect class="BoundingBox" stroke="none" fill="none" x="8100" y="7650" width="101" height="901"/>
    <path fill="none" stroke="rgb(128,128,128)" stroke-width="100" stroke-linejoin="round" d="M 8150,8500 L 8150,7700"/>
   </g>
  </g>
  <g class="com.sun.star.drawing.CustomShape">
   <g id="id14">
    <rect class="BoundingBox" stroke="none" fill="none" x="7950" y="9550" width="602" height="602"/>
    <path fill="none" stroke="rgb(28,28,28)" stroke-width="100" stroke-linejoin="round" d="M 8501,9851 C 8501,9894 8489,9938 8467,9976 8445,10014 8414,10045 8376,10067 8338,10089 8294,10101 8251,10101 8207,10101 8163,10089 8125,10067 8087,10045 8056,10014 8034,9976 8012,9938 8000,9894 8000,9851 8000,9807 8012,9763 8034,9725 8056,9687 8087,9656 8125,9634 8163,9612 8207,9600 8251,9600 8294,9600 8338,9612 8376,9634 8414,9656 8445,9687 8467,9725 8489,9763 8501,9807 8501,9851 Z"/>
   </g>
  </g>
  <g class="com.sun.star.drawing.CustomShape">
   <g id="id15">
    <rect class="BoundingBox" stroke="none" fill="none" x="10049" y="6849" width="603" height="603"/>
    <path fill="none" stroke="rgb(28,28,28)" stroke-width="100" stroke-linejoin="round" d="M 10601,7150 C 10601,7194 10589,7238 10567,7276 10545,7314 10514,7345 10476,7367 10438,7389 10394,7401 10350,7401 10307,7401 10263,7389 10225,7367 10187,7345 10156,7314 10134,7276 10112,7238 10100,7194 10100,7150 10100,7107 10112,7063 10134,7025 10156,6987 10187,6956 10225,6934 10263,6912 10307,6900 10350,6900 10394,6900 10438,6912 10476,6934 10514,6956 10545,6987 10567,7025 10589,7063 10601,7107 10601,7150 Z"/>
   </g>
  </g>
  <g class="com.sun.star.drawing.CustomShape">
   <g id="id16">
    <rect class="BoundingBox" stroke="none" fill="none" x="7849" y="8449" width="603" height="603"/>
    <path fill="none" stroke="rgb(28,28,28)" stroke-width="100" stroke-linejoin="round" d="M 8401,8750 C 8401,8794 8389,8838 8367,8876 8345,8914 8314,8945 8276,8967 8238,8989 8194,9001 8151,9001 8107,9001 8063,8989 8025,8967 7987,8945 7956,8914 7934,8876 7912,8838 7900,8794 7900,8750 7900,8707 7912,8663 7934,8625 7956,8587 7987,8556 8025,8534 8063,8512 8107,8500 8151,8500 8194,8500 8238,8512 8276,8534 8314,8556 8345,8587 8367,8625 8389,8663 8401,8707 8401,8750 Z"/>
   </g>
  </g>
  <g class="com.sun.star.drawing.ConnectorShape">
   <g id="id17">
    <rect class="BoundingBox" stroke="none" fill="none" x="9700" y="8150" width="101" height="601"/>
    <path fill="none" stroke="rgb(128,128,128)" stroke-width="100" stroke-linejoin="round" d="M 9750,8200 L 9750,8700"/>
   </g>
  </g>
  <g class="com.sun.star.drawing.CustomShape">
   <g id="id18">
    <rect class="BoundingBox" stroke="none" fill="none" x="9450" y="8650" width="602" height="602"/>
    <path fill="none" stroke="rgb(28,28,28)" stroke-width="100" stroke-linejoin="round" d="M 10001,8951 C 10001,8994 9989,9038 9967,9076 9945,9114 9914,9145 9876,9167 9838,9189 9794,9201 9751,9201 9707,9201 9663,9189 9625,9167 9587,9145 9556,9114 9534,9076 9512,9038 9500,8994 9500,8951 9500,8907 9512,8863 9534,8825 9556,8787 9587,8756 9625,8734 9663,8712 9707,8700 9751,8700 9794,8700 9838,8712 9876,8734 9914,8756 9945,8787 9967,8825 9989,8863 10001,8907 10001,8951 Z"/>
   </g>
  </g>
  <g class="com.sun.star.drawing.CustomShape">
   <g id="id19">
    <rect class="BoundingBox" stroke="none" fill="none" x="10849" y="8949" width="603" height="603"/>
    <path fill="none" stroke="rgb(28,28,28)" stroke-width="100" stroke-linejoin="round" d="M 11401,9250 C 11401,9294 11389,9338 11367,9376 11345,9414 11314,9445 11276,9467 11238,9489 11194,9501 11150,9501 11107,9501 11063,9489 11025,9467 10987,9445 10956,9414 10934,9376 10912,9338 10900,9294 10900,9250 10900,9207 10912,9163 10934,9125 10956,9087 10987,9056 11025,9034 11063,9012 11107,9000 11150,9000 11194,9000 11238,9012 11276,9034 11314,9056 11345,9087 11367,9125 11389,9163 11401,9207 11401,9250 Z"/>
   </g>
  </g>
  <g class="com.sun.star.drawing.CustomShape">
   <g id="id20">
    <rect class="BoundingBox" stroke="none" fill="none" x="10550" y="9949" width="602" height="603"/>
    <path fill="none" stroke="rgb(28,28,28)" stroke-width="100" stroke-linejoin="round" d="M 11101,10250 C 11101,10294 11089,10338 11067,10376 11045,10414 11014,10445 10976,10467 10938,10489 10894,10501 10851,10501 10807,10501 10763,10489 10725,10467 10687,10445 10656,10414 10634,10376 10612,10338 10600,10294 10600,10250 10600,10207 10612,10163 10634,10125 10656,10087 10687,10056 10725,10034 10763,10012 10807,10000 10851,10000 10894,10000 10938,10012 10976,10034 11014,10056 11045,10087 11067,10125 11089,10163 11101,10207 11101,10250 Z"/>
   </g>
  </g>
  <g class="com.sun.star.drawing.CustomShape">
   <g id="id21">
    <rect class="BoundingBox" stroke="none" fill="none" x="9249" y="10250" width="603" height="602"/>
    <path fill="none" stroke="rgb(28,28,28)" stroke-width="100" stroke-linejoin="round" d="M 9801,10551 C 9801,10594 9789,10638 9767,10676 9745,10714 9714,10745 9676,10767 9638,10789 9594,10801 9550,10801 9507,10801 9463,10789 9425,10767 9387,10745 9356,10714 9334,10676 9312,10638 9300,10594 9300,10551 9300,10507 9312,10463 9334,10425 9356,10387 9387,10356 9425,10334 9463,10312 9507,10300 9550,10300 9594,10300 9638,10312 9676,10334 9714,10356 9745,10387 9767,10425 9789,10463 9801,10507 9801,10551 Z"/>
   </g>
  </g>
  <g class="com.sun.star.drawing.CustomShape">
   <g id="id22">
    <rect class="BoundingBox" stroke="none" fill="none" x="12349" y="9350" width="603" height="602"/>
    <path fill="none" stroke="rgb(28,28,28)" stroke-width="100" stroke-linejoin="round" d="M 12901,9650 C 12901,9694 12889,9738 12867,9776 12845,9814 12814,9845 12776,9867 12738,9889 12694,9901 12650,9901 12607,9901 12563,9889 12525,9867 12487,9845 12456,9814 12434,9776 12412,9738 12400,9694 12400,9650 12400,9607 12412,9563 12434,9525 12456,9487 12487,9456 12525,9434 12563,9412 12607,9400 12650,9400 12694,9400 12738,9412 12776,9434 12814,9456 12845,9487 12867,9525 12889,9563 12901,9607 12901,9650 Z"/>
   </g>
  </g>
  <g class="com.sun.star.drawing.CustomShape">
   <g id="id23">
    <rect class="BoundingBox" stroke="none" fill="none" x="11549" y="7350" width="603" height="602"/>
    <path fill="none" stroke="rgb(28,28,28)" stroke-width="100" stroke-linejoin="round" d="M 12101,7651 C 12101,7694 12089,7738 12067,7776 12045,7814 12014,7845 11976,7867 11938,7889 11894,7901 11850,7901 11807,7901 11763,7889 11725,7867 11687,7845 11656,7814 11634,7776 11612,7738 11600,7694 11600,7651 11600,7607 11612,7563 11634,7525 11656,7487 11687,7456 11725,7434 11763,7412 11807,7400 11850,7400 11894,7400 11938,7412 11976,7434 12014,7456 12045,7487 12067,7525 12089,7563 12101,7607 12101,7651 Z"/>
   </g>
  </g>
  <g class="com.sun.star.drawing.CustomShape">
   <g id="id24">
    <rect class="BoundingBox" stroke="none" fill="none" x="7849" y="7150" width="603" height="602"/>
    <path fill="none" stroke="rgb(28,28,28)" stroke-width="100" stroke-linejoin="round" d="M 8401,7451 C 8401,7494 8389,7538 8367,7576 8345,7614 8314,7645 8276,7667 8238,7689 8194,7701 8151,7701 8107,7701 8063,7689 8025,7667 7987,7645 7956,7614 7934,7576 7912,7538 7900,7494 7900,7451 7900,7407 7912,7363 7934,7325 7956,7287 7987,7256 8025,7234 8063,7212 8107,7200 8151,7200 8194,7200 8238,7212 8276,7234 8314,7256 8345,7287 8367,7325 8389,7363 8401,7407 8401,7451 Z"/>
   </g>
  </g>
  <g class="com.sun.star.drawing.CustomShape">
   <g id="id25">
    <rect class="BoundingBox" stroke="none" fill="none" x="9450" y="7649" width="602" height="603"/>
    <path fill="none" stroke="rgb(28,28,28)" stroke-width="100" stroke-linejoin="round" d="M 10001,7950 C 10001,7994 9989,8038 9967,8076 9945,8114 9914,8145 9876,8167 9838,8189 9794,8201 9751,8201 9707,8201 9663,8189 9625,8167 9587,8145 9556,8114 9534,8076 9512,8038 9500,7994 9500,7950 9500,7907 9512,7863 9534,7825 9556,7787 9587,7756 9625,7734 9663,7712 9707,7700 9751,7700 9794,7700 9838,7712 9876,7734 9914,7756 9945,7787 9967,7825 9989,7863 10001,7907 10001,7950 Z"/>
   </g>
  </g>
  <g class="com.sun.star.drawing.ConnectorShape">
   <g id="id26">
    <rect class="BoundingBox" stroke="none" fill="none" x="3527" y="6777" width="1097" height="597"/>
    <path fill="none" stroke="rgb(128,128,128)" stroke-width="100" stroke-linejoin="round" d="M 4573,6827 L 3984,7134"/>
    <path fill="rgb(128,128,128)" stroke="none" d="M 3527,7373 L 4089,7283 3922,6964 3527,7373 Z"/>
   </g>
  </g>
  <g class="com.sun.star.drawing.ConnectorShape">
   <g id="id27">
    <rect class="BoundingBox" stroke="none" fill="none" x="2400" y="8669" width="1151" height="356"/>
    <path fill="none" stroke="rgb(128,128,128)" stroke-width="100" stroke-linejoin="round" d="M 3500,8950 L 2908,8842"/>
    <path fill="rgb(128,128,128)" stroke="none" d="M 2400,8750 L 2899,9024 2963,8670 2400,8750 Z"/>
   </g>
  </g>
  <g class="com.sun.star.drawing.ConnectorShape">
   <g id="id28">
    <rect class="BoundingBox" stroke="none" fill="none" x="3950" y="8100" width="1801" height="901"/>
    <path fill="none" stroke="rgb(128,128,128)" stroke-width="100" stroke-linejoin="round" d="M 4000,8950 C 5167,8950 5308,8821 5564,8564"/>
    <path fill="rgb(128,128,128)" stroke="none" d="M 5750,8100 L 5374,8527 5706,8667 5750,8100 Z"/>
   </g>
  </g>
  <g class="com.sun.star.drawing.ConnectorShape">
   <g id="id29">
    <rect class="BoundingBox" stroke="none" fill="none" x="3877" y="9077" width="797" height="997"/>
    <path fill="none" stroke="rgb(128,128,128)" stroke-width="100" stroke-linejoin="round" d="M 3927,9127 L 4353,9668"/>
    <path fill="rgb(128,128,128)" stroke="none" d="M 4673,10073 L 4480,9538 4197,9760 4673,10073 Z"/>
   </g>
  </g>
  <g class="com.sun.star.drawing.ConnectorShape">
   <g id="id30">
    <rect class="BoundingBox" stroke="none" fill="none" x="5277" y="9458" width="1124" height="362"/>
    <path fill="none" stroke="rgb(128,128,128)" stroke-width="100" stroke-linejoin="round" d="M 5327,9627 L 5884,9639"/>
    <path fill="rgb(128,128,128)" stroke="none" d="M 6400,9650 L 5864,9458 5856,9818 6400,9650 Z"/>
   </g>
  </g>
  <g class="com.sun.star.drawing.ConnectorShape">
   <g id="id31">
    <rect class="BoundingBox" stroke="none" fill="none" x="4000" y="8950" width="951" height="551"/>
    <path fill="none" stroke="rgb(128,128,128)" stroke-width="100" stroke-linejoin="round" d="M 4900,9450 L 4451,9201"/>
    <path fill="rgb(128,128,128)" stroke="none" d="M 4000,8950 L 4385,9370 4559,9055 4000,8950 Z"/>
   </g>
  </g>
  <g class="com.sun.star.drawing.ConnectorShape">
   <g id="id32">
    <rect class="BoundingBox" stroke="none" fill="none" x="3469" y="9150" width="356" height="1151"/>
    <path fill="none" stroke="rgb(128,128,128)" stroke-width="100" stroke-linejoin="round" d="M 3750,9200 L 3642,9792"/>
    <path fill="rgb(128,128,128)" stroke="none" d="M 3550,10300 L 3824,9801 3470,9737 3550,10300 Z"/>
   </g>
  </g>
  <g class="com.sun.star.drawing.ConnectorShape">
   <g id="id33">
    <rect class="BoundingBox" stroke="none" fill="none" x="2427" y="10027" width="997" height="397"/>
    <path fill="none" stroke="rgb(128,128,128)" stroke-width="100" stroke-linejoin="round" d="M 3373,10373 L 2912,10204"/>
    <path fill="rgb(128,128,128)" stroke="none" d="M 2427,10027 L 2872,10382 2996,10043 2427,10027 Z"/>
   </g>
  </g>
  <g class="com.sun.star.drawing.ConnectorShape">
   <g id="id34">
    <rect class="BoundingBox" stroke="none" fill="none" x="2061" y="9000" width="357" height="651"/>
    <path fill="none" stroke="rgb(128,128,128)" stroke-width="100" stroke-linejoin="round" d="M 2250,9600 L 2235,9509"/>
    <path fill="rgb(128,128,128)" stroke="none" d="M 2150,9000 L 2061,9562 2416,9503 2150,9000 Z"/>
   </g>
  </g>
  <g class="com.sun.star.drawing.ConnectorShape">
   <g id="id35">
    <rect class="BoundingBox" stroke="none" fill="none" x="1970" y="7700" width="361" height="851"/>
    <path fill="none" stroke="rgb(128,128,128)" stroke-width="100" stroke-linejoin="round" d="M 2150,8500 L 2150,8216"/>
    <path fill="rgb(128,128,128)" stroke="none" d="M 2150,7700 L 1970,8240 2330,8240 2150,7700 Z"/>
   </g>
  </g>
  <g class="com.sun.star.drawing.CustomShape">
   <g id="id36">
    <rect class="BoundingBox" stroke="none" fill="none" x="1950" y="9550" width="602" height="602"/>
    <path fill="none" stroke="rgb(28,28,28)" stroke-width="100" stroke-linejoin="round" d="M 2501,9851 C 2501,9894 2489,9938 2467,9976 2445,10014 2414,10045 2376,10067 2338,10089 2294,10101 2251,10101 2207,10101 2163,10089 2125,10067 2087,10045 2056,10014 2034,9976 2012,9938 2000,9894 2000,9851 2000,9807 2012,9763 2034,9725 2056,9687 2087,9656 2125,9634 2163,9612 2207,9600 2251,9600 2294,9600 2338,9612 2376,9634 2414,9656 2445,9687 2467,9725 2489,9763 2501,9807 2501,9851 Z"/>
   </g>
  </g>
  <g class="com.sun.star.drawing.CustomShape">
   <g id="id37">
    <rect class="BoundingBox" stroke="none" fill="none" x="4449" y="6349" width="603" height="603"/>
    <path fill="none" stroke="rgb(28,28,28)" stroke-width="100" stroke-linejoin="round" d="M 5001,6650 C 5001,6694 4989,6738 4967,6776 4945,6814 4914,6845 4876,6867 4838,6889 4794,6901 4750,6901 4707,6901 4663,6889 4625,6867 4587,6845 4556,6814 4534,6776 4512,6738 4500,6694 4500,6650 4500,6607 4512,6563 4534,6525 4556,6487 4587,6456 4625,6434 4663,6412 4707,6400 4750,6400 4794,6400 4838,6412 4876,6434 4914,6456 4945,6487 4967,6525 4989,6563 5001,6607 5001,6650 Z"/>
   </g>
  </g>
  <g class="com.sun.star.drawing.CustomShape">
   <g id="id38">
    <rect class="BoundingBox" stroke="none" fill="none" x="1849" y="8449" width="603" height="603"/>
    <path fill="none" stroke="rgb(28,28,28)" stroke-width="100" stroke-linejoin="round" d="M 2401,8750 C 2401,8794 2389,8838 2367,8876 2345,8914 2314,8945 2276,8967 2238,8989 2194,9001 2151,9001 2107,9001 2063,8989 2025,8967 1987,8945 1956,8914 1934,8876 1912,8838 1900,8794 1900,8750 1900,8707 1912,8663 1934,8625 1956,8587 1987,8556 2025,8534 2063,8512 2107,8500 2151,8500 2194,8500 2238,8512 2276,8534 2314,8556 2345,8587 2367,8625 2389,8663 2401,8707 2401,8750 Z"/>
   </g>
  </g>
  <g class="com.sun.star.drawing.ConnectorShape">
   <g id="id39">
    <rect class="BoundingBox" stroke="none" fill="none" x="3276" y="7750" width="353" height="1024"/>
    <path fill="none" stroke="rgb(128,128,128)" stroke-width="100" stroke-linejoin="round" d="M 3350,7800 L 3458,8270"/>
    <path fill="rgb(128,128,128)" stroke="none" d="M 3573,8773 L 3628,8206 3277,8287 3573,8773 Z"/>
   </g>
  </g>
  <g class="com.sun.star.drawing.CustomShape">
   <g id="id40">
    <rect class="BoundingBox" stroke="none" fill="none" x="3450" y="8650" width="602" height="602"/>
    <path fill="none" stroke="rgb(28,28,28)" stroke-width="100" stroke-linejoin="round" d="M 4001,8951 C 4001,8994 3989,9038 3967,9076 3945,9114 3914,9145 3876,9167 3838,9189 3794,9201 3750,9201 3707,9201 3663,9189 3625,9167 3587,9145 3556,9114 3534,9076 3512,9038 3500,8994 3500,8951 3500,8907 3512,8863 3534,8825 3556,8787 3587,8756 3625,8734 3663,8712 3707,8700 3750,8700 3794,8700 3838,8712 3876,8734 3914,8756 3945,8787 3967,8825 3989,8863 4001,8907 4001,8951 Z"/>
   </g>
  </g>
  <g class="com.sun.star.drawing.CustomShape">
   <g id="id41">
    <rect class="BoundingBox" stroke="none" fill="none" x="4849" y="9149" width="603" height="603"/>
    <path fill="none" stroke="rgb(28,28,28)" stroke-width="100" stroke-linejoin="round" d="M 5401,9451 C 5401,9494 5389,9538 5367,9576 5345,9614 5314,9645 5276,9667 5238,9689 5194,9701 5151,9701 5107,9701 5063,9689 5025,9667 4987,9645 4956,9614 4934,9576 4912,9538 4900,9494 4900,9451 4900,9407 4912,9363 4934,9325 4956,9287 4987,9256 5025,9234 5063,9212 5107,9200 5151,9200 5194,9200 5238,9212 5276,9234 5314,9256 5345,9287 5367,9325 5389,9363 5401,9407 5401,9451 Z"/>
   </g>
  </g>
  <g class="com.sun.star.drawing.CustomShape">
   <g id="id42">
    <rect class="BoundingBox" stroke="none" fill="none" x="4550" y="9949" width="602" height="603"/>
    <path fill="none" stroke="rgb(28,28,28)" stroke-width="100" stroke-linejoin="round" d="M 5101,10250 C 5101,10294 5089,10338 5067,10376 5045,10414 5014,10445 4976,10467 4938,10489 4894,10501 4851,10501 4807,10501 4763,10489 4725,10467 4687,10445 4656,10414 4634,10376 4612,10338 4600,10294 4600,10250 4600,10207 4612,10163 4634,10125 4656,10087 4687,10056 4725,10034 4763,10012 4807,10000 4851,10000 4894,10000 4938,10012 4976,10034 5014,10056 5045,10087 5067,10125 5089,10163 5101,10207 5101,10250 Z"/>
   </g>
  </g>
  <g class="com.sun.star.drawing.CustomShape">
   <g id="id43">
    <rect class="BoundingBox" stroke="none" fill="none" x="3249" y="10250" width="603" height="602"/>
    <path fill="none" stroke="rgb(28,28,28)" stroke-width="100" stroke-linejoin="round" d="M 3801,10551 C 3801,10594 3789,10638 3767,10676 3745,10714 3714,10745 3676,10767 3638,10789 3594,10801 3550,10801 3507,10801 3463,10789 3425,10767 3387,10745 3356,10714 3334,10676 3312,10638 3300,10594 3300,10551 3300,10507 3312,10463 3334,10425 3356,10387 3387,10356 3425,10334 3463,10312 3507,10300 3550,10300 3594,10300 3638,10312 3676,10334 3714,10356 3745,10387 3767,10425 3789,10463 3801,10507 3801,10551 Z"/>
   </g>
  </g>
  <g class="com.sun.star.drawing.CustomShape">
   <g id="id44">
    <rect class="BoundingBox" stroke="none" fill="none" x="6349" y="9350" width="603" height="602"/>
    <path fill="none" stroke="rgb(28,28,28)" stroke-width="100" stroke-linejoin="round" d="M 6901,9650 C 6901,9694 6889,9738 6867,9776 6845,9814 6814,9845 6776,9867 6738,9889 6694,9901 6650,9901 6607,9901 6563,9889 6525,9867 6487,9845 6456,9814 6434,9776 6412,9738 6400,9694 6400,9650 6400,9607 6412,9563 6434,9525 6456,9487 6487,9456 6525,9434 6563,9412 6607,9400 6650,9400 6694,9400 6738,9412 6776,9434 6814,9456 6845,9487 6867,9525 6889,9563 6901,9607 6901,9650 Z"/>
   </g>
  </g>
  <g class="com.sun.star.drawing.CustomShape">
   <g id="id45">
    <rect class="BoundingBox" stroke="none" fill="none" x="5449" y="7550" width="603" height="602"/>
    <path fill="none" stroke="rgb(28,28,28)" stroke-width="100" stroke-linejoin="round" d="M 6001,7851 C 6001,7894 5989,7938 5967,7976 5945,8014 5914,8045 5876,8067 5838,8089 5794,8101 5751,8101 5707,8101 5663,8089 5625,8067 5587,8045 5556,8014 5534,7976 5512,7938 5500,7894 5500,7851 5500,7807 5512,7763 5534,7725 5556,7687 5587,7656 5625,7634 5663,7612 5707,7600 5751,7600 5794,7600 5838,7612 5876,7634 5914,7656 5945,7687 5967,7725 5989,7763 6001,7807 6001,7851 Z"/>
   </g>
  </g>
  <g class="com.sun.star.drawing.CustomShape">
   <g id="id46">
    <rect class="BoundingBox" stroke="none" fill="none" x="1849" y="7150" width="603" height="602"/>
    <path fill="none" stroke="rgb(28,28,28)" stroke-width="100" stroke-linejoin="round" d="M 2401,7451 C 2401,7494 2389,7538 2367,7576 2345,7614 2314,7645 2276,7667 2238,7689 2194,7701 2151,7701 2107,7701 2063,7689 2025,7667 1987,7645 1956,7614 1934,7576 1912,7538 1900,7494 1900,7451 1900,7407 1912,7363 1934,7325 1956,7287 1987,7256 2025,7234 2063,7212 2107,7200 2151,7200 2194,7200 2238,7212 2276,7234 2314,7256 2345,7287 2367,7325 2389,7363 2401,7407 2401,7451 Z"/>
   </g>
  </g>
  <g class="com.sun.star.drawing.CustomShape">
   <g id="id47">
    <rect class="BoundingBox" stroke="none" fill="none" x="3050" y="7249" width="602" height="603"/>
    <path fill="none" stroke="rgb(28,28,28)" stroke-width="100" stroke-linejoin="round" d="M 3601,7550 C 3601,7594 3589,7638 3567,7676 3545,7714 3514,7745 3476,7767 3438,7789 3394,7801 3350,7801 3307,7801 3263,7789 3225,7767 3187,7745 3156,7714 3134,7676 3112,7638 3100,7594 3100,7550 3100,7507 3112,7463 3134,7425 3156,7387 3187,7356 3225,7334 3263,7312 3307,7300 3350,7300 3394,7300 3438,7312 3476,7334 3514,7356 3545,7387 3567,7425 3589,7463 3601,7507 3601,7550 Z"/>
   </g>
  </g>
 </g>
</svg>