<?xml version="1.0" encoding="UTF-8"?>
<!DOCTYPE svg PUBLIC "-//W3C//DTD SVG 1.1//EN" "http://www.w3.org/Graphics/SVG/1.1/DTD/svg11.dtd">
<svg version="1.2" width="176mm" height="94.77mm" viewBox="2350 1650 17600 9477" preserveAspectRatio="xMidYMid" fill-rule="evenodd" stroke-width="28.222" stroke-linejoin="round" xmlns="http://www.w3.org/2000/svg" xmlns:ooo="http://xml.openoffice.org/svg/export" xmlns:xlink="http://www.w3.org/1999/xlink" xmlns:presentation="http://sun.com/xmlns/staroffice/presentation" xmlns:smil="http://www.w3.org/2001/SMIL20/" xmlns:anim="urn:oasis:names:tc:opendocument:xmlns:animation:1.0" xml:space="preserve">
 <defs class="ClipPathGroup">
  <clipPath id="presentation_clip_path" clipPathUnits="userSpaceOnUse">
   <rect x="2350" y="1650" width="17600" height="9477"/>
  </clipPath>
  <clipPath id="presentation_clip_path_shrink" clipPathUnits="userSpaceOnUse">
   <rect x="2367" y="1659" width="17565" height="9459"/>
  </clipPath>
 </defs>
 <defs class="TextShapeIndex">
  <g ooo:slide="id1" ooo:id-list="id3 id4 id5 id6 id7 id8 id9 id10 id11 id12 id13 id14 id15 id16 id17 id18 id19 id20 id21 id22 id23 id24 id25 id26 id27 id28 id29 id30 id31 id32 id33 id34 id35 id36 id37 id38 id39 id40 id41 id42 id43 id44 id45 id46 id47 id48 id49 id50 id51 id52 id53 id54 id55 id56 id57 id58 id59 id60 id61 id62 id63 id64 id65 id66 id67 id68 id69 id70 id71 id72 id73 id74 id75 id76 id77 id78 id79 id80 id81 id82 id83 id84 id85 id86 id87 id88 id89 id90 id91 id92 id93 id94 id95 id96 id97 id98 id99 id100 id101 id102 id103 id104 id105 id106 id107 id108 id109 id110 id111 id112 id113 id114 id115 id116 id117 id118 id119 id120 id121 id122 id123 id124 id125 id126 id127 id128 id129 id130 id131 id132 id133 id134 id135 id136 id137 id138 id139 id140 id141 id142 id143 id144"/>
 </defs>
 <defs class="EmbeddedBulletChars">
  <g id="bullet-char-template-57356" transform="scale(0.00048828125,-0.00048828125)">
   <path d="M 580,1141 L 1163,571 580,0 -4,571 580,1141 Z"/>
  </g>
  <g id="bullet-char-template-57354" transform="scale(0.00048828125,-0.00048828125)">
   <path d="M 8,1128 L 1137,1128 1137,0 8,0 8,1128 Z"/>
  </g>
  <g id="bullet-char-template-10146" transform="scale(0.00048828125,-0.00048828125)">
   <path d="M 174,0 L 602,739 174,1481 1456,739 174,0 Z M 1358,739 L 309,1346 659,739 1358,739 Z"/>
  </g>
  <g id="bullet-char-template-10132" transform="scale(0.00048828125,-0.00048828125)">
   <path d="M 2015,739 L 1276,0 717,0 1260,543 174,543 174,936 1260,936 717,1481 1274,1481 2015,739 Z"/>
  </g>
  <g id="bullet-char-template-10007" transform="scale(0.00048828125,-0.00048828125)">
   <path d="M 0,-2 C -7,14 -16,27 -25,37 L 356,567 C 262,823 215,952 215,954 215,979 228,992 255,992 264,992 276,990 289,987 310,991 331,999 354,1012 L 381,999 492,748 772,1049 836,1024 860,1049 C 881,1039 901,1025 922,1006 886,937 835,863 770,784 769,783 710,716 594,584 L 774,223 C 774,196 753,168 711,139 L 727,119 C 717,90 699,76 672,76 641,76 570,178 457,381 L 164,-76 C 142,-110 111,-127 72,-127 30,-127 9,-110 8,-76 1,-67 -2,-52 -2,-32 -2,-23 -1,-13 0,-2 Z"/>
  </g>
  <g id="bullet-char-template-10004" transform="scale(0.00048828125,-0.00048828125)">
   <path d="M 285,-33 C 182,-33 111,30 74,156 52,228 41,333 41,471 41,549 55,616 82,672 116,743 169,778 240,778 293,778 328,747 346,684 L 369,508 C 377,444 397,411 428,410 L 1163,1116 C 1174,1127 1196,1133 1229,1133 1271,1133 1292,1118 1292,1087 L 1292,965 C 1292,929 1282,901 1262,881 L 442,47 C 390,-6 338,-33 285,-33 Z"/>
  </g>
  <g id="bullet-char-template-9679" transform="scale(0.00048828125,-0.00048828125)">
   <path d="M 813,0 C 632,0 489,54 383,161 276,268 223,411 223,592 223,773 276,916 383,1023 489,1130 632,1184 813,1184 992,1184 1136,1130 1245,1023 1353,916 1407,772 1407,592 1407,412 1353,268 1245,161 1136,54 992,0 813,0 Z"/>
  </g>
  <g id="bullet-char-template-8226" transform="scale(0.00048828125,-0.00048828125)">
   <path d="M 346,457 C 273,457 209,483 155,535 101,586 74,649 74,723 74,796 101,859 155,911 209,963 273,989 346,989 419,989 480,963 531,910 582,859 608,796 608,723 608,648 583,586 532,535 482,483 420,457 346,457 Z"/>
  </g>
  <g id="bullet-char-template-8211" transform="scale(0.00048828125,-0.00048828125)">
   <path d="M -4,459 L 1135,459 1135,606 -4,606 -4,459 Z"/>
  </g>
  <g id="bullet-char-template-61548" transform="scale(0.00048828125,-0.00048828125)">
   <path d="M 173,740 C 173,903 231,1043 346,1159 462,1274 601,1332 765,1332 928,1332 1067,1274 1183,1159 1299,1043 1357,903 1357,740 1357,577 1299,437 1183,322 1067,206 928,148 765,148 601,148 462,206 346,322 231,437 173,577 173,740 Z"/>
  </g>
 </defs>
 <defs class="TextEmbeddedBitmaps"/>
 <g class="SlideGroup">
  <g>
   <g id="container-id1">
    <g id="id1" class="Slide" clip-path="url(#presentation_clip_path)">
     <g class="Page">
      <g class="com.sun.star.drawing.ConnectorShape">
       <g id="id3">
        <rect class="BoundingBox" stroke="none" fill="none" x="18277" y="9377" width="1174" height="324"/>
        <path fill="none" stroke="rgb(128,128,128)" stroke-width="100" stroke-linejoin="round" d="M 18327,9427 L 19400,9650"/>
       </g>
      </g>
      <g class="com.sun.star.drawing.ConnectorShape">
       <g id="id4">
        <rect class="BoundingBox" stroke="none" fill="none" x="9877" y="7277" width="347" height="547"/>
        <path fill="none" stroke="rgb(128,128,128)" stroke-width="100" stroke-linejoin="round" d="M 10173,7327 L 9927,7773"/>
       </g>
      </g>
      <g class="com.sun.star.drawing.ConnectorShape">
       <g id="id5">
        <rect class="BoundingBox" stroke="none" fill="none" x="8350" y="8700" width="1201" height="301"/>
        <path fill="none" stroke="rgb(128,128,128)" stroke-width="100" stroke-linejoin="round" d="M 9500,8950 L 8400,8750"/>
       </g>
      </g>
      <g class="com.sun.star.drawing.ConnectorShape">
       <g id="id6">
        <rect class="BoundingBox" stroke="none" fill="none" x="9877" y="7777" width="1847" height="1047"/>
        <path fill="none" stroke="rgb(128,128,128)" stroke-width="100" stroke-linejoin="round" d="M 9927,8773 L 11673,7827"/>
       </g>
      </g>
      <g class="com.sun.star.drawing.ConnectorShape">
       <g id="id7">
        <rect class="BoundingBox" stroke="none" fill="none" x="9877" y="9077" width="847" height="1047"/>
        <path fill="none" stroke="rgb(128,128,128)" stroke-width="100" stroke-linejoin="round" d="M 9927,9127 L 10673,10073"/>
       </g>
      </g>
      <g class="com.sun.star.drawing.ConnectorShape">
       <g id="id8">
        <rect class="BoundingBox" stroke="none" fill="none" x="11277" y="9377" width="1174" height="324"/>
        <path fill="none" stroke="rgb(128,128,128)" stroke-width="100" stroke-linejoin="round" d="M 11327,9427 L 12400,9650"/>
       </g>
      </g>
      <g class="com.sun.star.drawing.ConnectorShape">
       <g id="id9">
        <rect class="BoundingBox" stroke="none" fill="none" x="9950" y="8900" width="1001" height="401"/>
        <path fill="none" stroke="rgb(128,128,128)" stroke-width="100" stroke-linejoin="round" d="M 10900,9250 L 10000,8950"/>
       </g>
      </g>
      <g class="com.sun.star.drawing.ConnectorShape">
       <g id="id10">
        <rect class="BoundingBox" stroke="none" fill="none" x="9500" y="9150" width="301" height="1201"/>
        <path fill="none" stroke="rgb(128,128,128)" stroke-width="100" stroke-linejoin="round" d="M 9750,9200 L 9550,10300"/>
       </g>
      </g>
      <g class="com.sun.star.drawing.ConnectorShape">
       <g id="id11">
        <rect class="BoundingBox" stroke="none" fill="none" x="8377" y="9977" width="1047" height="447"/>
        <path fill="none" stroke="rgb(128,128,128)" stroke-width="100" stroke-linejoin="round" d="M 9373,10373 L 8427,10027"/>
       </g>
      </g>
      <g class="com.sun.star.drawing.ConnectorShape">
       <g id="id12">
        <rect class="BoundingBox" stroke="none" fill="none" x="8100" y="8950" width="201" height="701"/>
        <path fill="none" stroke="rgb(128,128,128)" stroke-width="100" stroke-linejoin="round" d="M 8250,9600 L 8150,9000"/>
       </g>
      </g>
      <g class="com.sun.star.drawing.ConnectorShape">
       <g id="id13">
        <rect class="BoundingBox" stroke="none" fill="none" x="8100" y="7650" width="101" height="901"/>
        <path fill="none" stroke="rgb(128,128,128)" stroke-width="100" stroke-linejoin="round" d="M 8150,8500 L 8150,7700"/>
       </g>
      </g>
      <g class="com.sun.star.drawing.ConnectorShape">
       <g id="id14">
        <rect class="BoundingBox" stroke="none" fill="none" x="17500" y="4350" width="101" height="601"/>
        <path fill="none" stroke="rgb(128,128,128)" stroke-width="100" stroke-linejoin="round" d="M 17550,4400 L 17550,4900"/>
       </g>
      </g>
      <g class="com.sun.star.drawing.ConnectorShape">
       <g id="id15">
        <rect class="BoundingBox" stroke="none" fill="none" x="18600" y="4350" width="101" height="601"/>
        <path fill="none" stroke="rgb(128,128,128)" stroke-width="100" stroke-linejoin="round" d="M 18650,4400 L 18650,4900"/>
       </g>
      </g>
      <g class="com.sun.star.drawing.ConnectorShape">
       <g id="id16">
        <rect class="BoundingBox" stroke="none" fill="none" x="16400" y="4350" width="101" height="601"/>
        <path fill="none" stroke="rgb(128,128,128)" stroke-width="100" stroke-linejoin="round" d="M 16450,4400 L 16450,4900"/>
       </g>
      </g>
      <g class="com.sun.star.drawing.ConnectorShape">
       <g id="id17">
        <rect class="BoundingBox" stroke="none" fill="none" x="15300" y="4350" width="101" height="601"/>
        <path fill="none" stroke="rgb(128,128,128)" stroke-width="100" stroke-linejoin="round" d="M 15350,4900 L 15350,4400"/>
       </g>
      </g>
      <g class="com.sun.star.drawing.ConnectorShape">
       <g id="id18">
        <rect class="BoundingBox" stroke="none" fill="none" x="16400" y="3350" width="101" height="601"/>
        <path fill="none" stroke="rgb(114,159,207)" stroke-width="100" stroke-linejoin="round" d="M 16450,3400 L 16450,3900"/>
       </g>
      </g>
      <g class="com.sun.star.drawing.ConnectorShape">
       <g id="id19">
        <rect class="BoundingBox" stroke="none" fill="none" x="17500" y="3350" width="101" height="601"/>
        <path fill="none" stroke="rgb(129,172,166)" stroke-width="100" stroke-linejoin="round" d="M 17550,3400 L 17550,3900"/>
       </g>
      </g>
      <g class="com.sun.star.drawing.ConnectorShape">
       <g id="id20">
        <rect class="BoundingBox" stroke="none" fill="none" x="18600" y="3350" width="101" height="601"/>
        <path fill="none" stroke="rgb(128,128,128)" stroke-width="100" stroke-linejoin="round" d="M 18650,3400 L 18650,3900"/>
       </g>
      </g>
      <g class="com.sun.star.drawing.ConnectorShape">
       <g id="id21">
        <rect class="BoundingBox" stroke="none" fill="none" x="15300" y="3350" width="101" height="601"/>
        <path fill="none" stroke="rgb(129,172,166)" stroke-width="100" stroke-linejoin="round" d="M 15350,3400 L 15350,3900"/>
       </g>
      </g>
      <g class="com.sun.star.drawing.ConnectorShape">
       <g id="id22">
        <rect class="BoundingBox" stroke="none" fill="none" x="15300" y="2350" width="101" height="601"/>
        <path fill="none" stroke="rgb(129,172,166)" stroke-width="100" stroke-linejoin="round" d="M 15350,2400 L 15350,2900"/>
       </g>
      </g>
      <g class="com.sun.star.drawing.ConnectorShape">
       <g id="id23">
        <rect class="BoundingBox" stroke="none" fill="none" x="18600" y="2350" width="101" height="601"/>
        <path fill="none" stroke="rgb(128,128,128)" stroke-width="100" stroke-linejoin="round" d="M 18650,2400 L 18650,2900"/>
       </g>
      </g>
      <g class="com.sun.star.drawing.ConnectorShape">
       <g id="id24">
        <rect class="BoundingBox" stroke="none" fill="none" x="16400" y="2350" width="101" height="601"/>
        <path fill="none" stroke="rgb(114,159,207)" stroke-width="100" stroke-linejoin="round" d="M 16450,2400 L 16450,2900"/>
       </g>
      </g>
      <g class="com.sun.star.drawing.ConnectorShape">
       <g id="id25">
        <rect class="BoundingBox" stroke="none" fill="none" x="17500" y="2350" width="101" height="601"/>
        <path fill="none" stroke="rgb(129,172,166)" stroke-width="100" stroke-linejoin="round" d="M 17550,2400 L 17550,2900"/>
       </g>
      </g>
      <g class="com.sun.star.drawing.ConnectorShape">
       <g id="id26">
        <rect class="BoundingBox" stroke="none" fill="none" x="15550" y="2100" width="701" height="101"/>
        <path fill="none" stroke="rgb(129,172,166)" stroke-width="100" stroke-linejoin="round" d="M 16200,2150 L 15600,2150"/>
       </g>
      </g>
      <g class="com.sun.star.drawing.ConnectorShape">
       <g id="id27">
        <rect class="BoundingBox" stroke="none" fill="none" x="15550" y="3100" width="701" height="101"/>
        <path fill="none" stroke="rgb(114,159,207)" stroke-width="100" stroke-linejoin="round" d="M 16200,3150 L 15600,3150"/>
       </g>
      </g>
      <g class="com.sun.star.drawing.ConnectorShape">
       <g id="id28">
        <rect class="BoundingBox" stroke="none" fill="none" x="15550" y="5100" width="701" height="101"/>
        <path fill="none" stroke="rgb(128,128,128)" stroke-width="100" stroke-linejoin="round" d="M 16200,5150 L 15600,5150"/>
       </g>
      </g>
      <g class="com.sun.star.drawing.ConnectorShape">
       <g id="id29">
        <rect class="BoundingBox" stroke="none" fill="none" x="15550" y="4100" width="701" height="101"/>
        <path fill="none" stroke="rgb(129,172,166)" stroke-width="100" stroke-linejoin="round" d="M 16200,4150 L 15600,4150"/>
       </g>
      </g>
      <g class="com.sun.star.drawing.ConnectorShape">
       <g id="id30">
        <rect class="BoundingBox" stroke="none" fill="none" x="16650" y="2100" width="701" height="101"/>
        <path fill="none" stroke="rgb(129,172,166)" stroke-width="100" stroke-linejoin="round" d="M 17300,2150 L 16700,2150"/>
       </g>
      </g>
      <g class="com.sun.star.drawing.ConnectorShape">
       <g id="id31">
        <rect class="BoundingBox" stroke="none" fill="none" x="16650" y="3100" width="701" height="101"/>
        <path fill="none" stroke="rgb(114,159,207)" stroke-width="100" stroke-linejoin="round" d="M 17300,3150 L 16700,3150"/>
       </g>
      </g>
      <g class="com.sun.star.drawing.ConnectorShape">
       <g id="id32">
        <rect class="BoundingBox" stroke="none" fill="none" x="16650" y="4100" width="701" height="101"/>
        <path fill="none" stroke="rgb(129,172,166)" stroke-width="100" stroke-linejoin="round" d="M 17300,4150 L 16700,4150"/>
       </g>
      </g>
      <g class="com.sun.star.drawing.ConnectorShape">
       <g id="id33">
        <rect class="BoundingBox" stroke="none" fill="none" x="16650" y="5100" width="701" height="101"/>
        <path fill="none" stroke="rgb(128,128,128)" stroke-width="100" stroke-linejoin="round" d="M 17300,5150 L 16700,5150"/>
       </g>
      </g>
      <g class="com.sun.star.drawing.ConnectorShape">
       <g id="id34">
        <rect class="BoundingBox" stroke="none" fill="none" x="17750" y="2100" width="701" height="101"/>
        <path fill="none" stroke="rgb(128,128,128)" stroke-width="100" stroke-linejoin="round" d="M 18400,2150 L 17800,2150"/>
       </g>
      </g>
      <g class="com.sun.star.drawing.ConnectorShape">
       <g id="id35">
        <rect class="BoundingBox" stroke="none" fill="none" x="17750" y="3100" width="701" height="101"/>
        <path fill="none" stroke="rgb(128,128,128)" stroke-width="100" stroke-linejoin="round" d="M 18400,3150 L 17800,3150"/>
       </g>
      </g>
      <g class="com.sun.star.drawing.ConnectorShape">
       <g id="id36">
        <rect class="BoundingBox" stroke="none" fill="none" x="17750" y="4100" width="701" height="101"/>
        <path fill="none" stroke="rgb(128,128,128)" stroke-width="100" stroke-linejoin="round" d="M 18400,4150 L 17800,4150"/>
       </g>
      </g>
      <g class="com.sun.star.drawing.ConnectorShape">
       <g id="id37">
        <rect class="BoundingBox" stroke="none" fill="none" x="17750" y="5100" width="701" height="101"/>
        <path fill="none" stroke="rgb(128,128,128)" stroke-width="100" stroke-linejoin="round" d="M 18400,5150 L 17800,5150"/>
       </g>
      </g>
      <g class="com.sun.star.drawing.ConnectorShape">
       <g id="id38">
        <rect class="BoundingBox" stroke="none" fill="none" x="8600" y="2350" width="101" height="601"/>
        <path fill="none" stroke="rgb(128,128,128)" stroke-width="100" stroke-linejoin="round" d="M 8650,2400 L 8650,2900"/>
       </g>
      </g>
      <g class="com.sun.star.drawing.ConnectorShape">
       <g id="id39">
        <rect class="BoundingBox" stroke="none" fill="none" x="11900" y="2350" width="101" height="601"/>
        <path fill="none" stroke="rgb(128,128,128)" stroke-width="100" stroke-linejoin="round" d="M 11950,2400 L 11950,2900"/>
       </g>
      </g>
      <g class="com.sun.star.drawing.ConnectorShape">
       <g id="id40">
        <rect class="BoundingBox" stroke="none" fill="none" x="9700" y="2350" width="101" height="601"/>
        <path fill="none" stroke="rgb(128,128,128)" stroke-width="100" stroke-linejoin="round" d="M 9750,2400 L 9750,2900"/>
       </g>
      </g>
      <g class="com.sun.star.drawing.ConnectorShape">
       <g id="id41">
        <rect class="BoundingBox" stroke="none" fill="none" x="10800" y="2350" width="101" height="601"/>
        <path fill="none" stroke="rgb(128,128,128)" stroke-width="100" stroke-linejoin="round" d="M 10850,2400 L 10850,2900"/>
       </g>
      </g>
      <g class="com.sun.star.drawing.ConnectorShape">
       <g id="id42">
        <rect class="BoundingBox" stroke="none" fill="none" x="9700" y="3350" width="101" height="601"/>
        <path fill="none" stroke="rgb(128,128,128)" stroke-width="100" stroke-linejoin="round" d="M 9750,3400 L 9750,3900"/>
       </g>
      </g>
      <g class="com.sun.star.drawing.ConnectorShape">
       <g id="id43">
        <rect class="BoundingBox" stroke="none" fill="none" x="10800" y="3350" width="101" height="601"/>
        <path fill="none" stroke="rgb(128,128,128)" stroke-width="100" stroke-linejoin="round" d="M 10850,3400 L 10850,3900"/>
       </g>
      </g>
      <g class="com.sun.star.drawing.ConnectorShape">
       <g id="id44">
        <rect class="BoundingBox" stroke="none" fill="none" x="11900" y="3350" width="101" height="601"/>
        <path fill="none" stroke="rgb(128,128,128)" stroke-width="100" stroke-linejoin="round" d="M 11950,3400 L 11950,3900"/>
       </g>
      </g>
      <g class="com.sun.star.drawing.ConnectorShape">
       <g id="id45">
        <rect class="BoundingBox" stroke="none" fill="none" x="8600" y="3350" width="101" height="601"/>
        <path fill="none" stroke="rgb(128,128,128)" stroke-width="100" stroke-linejoin="round" d="M 8650,3400 L 8650,3900"/>
       </g>
      </g>
      <g class="com.sun.star.drawing.ConnectorShape">
       <g id="id46">
        <rect class="BoundingBox" stroke="none" fill="none" x="10800" y="4350" width="101" height="601"/>
        <path fill="none" stroke="rgb(128,128,128)" stroke-width="100" stroke-linejoin="round" d="M 10850,4400 L 10850,4900"/>
       </g>
      </g>
      <g class="com.sun.star.drawing.ConnectorShape">
       <g id="id47">
        <rect class="BoundingBox" stroke="none" fill="none" x="11900" y="4350" width="101" height="601"/>
        <path fill="none" stroke="rgb(128,128,128)" stroke-width="100" stroke-linejoin="round" d="M 11950,4400 L 11950,4900"/>
       </g>
      </g>
      <g class="com.sun.star.drawing.ConnectorShape">
       <g id="id48">
        <rect class="BoundingBox" stroke="none" fill="none" x="9700" y="4350" width="101" height="601"/>
        <path fill="none" stroke="rgb(128,128,128)" stroke-width="100" stroke-linejoin="round" d="M 9750,4400 L 9750,4900"/>
       </g>
      </g>
      <g class="com.sun.star.drawing.ConnectorShape">
       <g id="id49">
        <rect class="BoundingBox" stroke="none" fill="none" x="8600" y="4350" width="101" height="601"/>
        <path fill="none" stroke="rgb(128,128,128)" stroke-width="100" stroke-linejoin="round" d="M 8650,4900 L 8650,4400"/>
       </g>
      </g>
      <g class="com.sun.star.drawing.ConnectorShape">
       <g id="id50">
        <rect class="BoundingBox" stroke="none" fill="none" x="11050" y="2100" width="701" height="101"/>
        <path fill="none" stroke="rgb(128,128,128)" stroke-width="100" stroke-linejoin="round" d="M 11700,2150 L 11100,2150"/>
       </g>
      </g>
      <g class="com.sun.star.drawing.ConnectorShape">
       <g id="id51">
        <rect class="BoundingBox" stroke="none" fill="none" x="11050" y="3100" width="701" height="101"/>
        <path fill="none" stroke="rgb(128,128,128)" stroke-width="100" stroke-linejoin="round" d="M 11700,3150 L 11100,3150"/>
       </g>
      </g>
      <g class="com.sun.star.drawing.ConnectorShape">
       <g id="id52">
        <rect class="BoundingBox" stroke="none" fill="none" x="11050" y="4100" width="701" height="101"/>
        <path fill="none" stroke="rgb(128,128,128)" stroke-width="100" stroke-linejoin="round" d="M 11700,4150 L 11100,4150"/>
       </g>
      </g>
      <g class="com.sun.star.drawing.ConnectorShape">
       <g id="id53">
        <rect class="BoundingBox" stroke="none" fill="none" x="11050" y="5100" width="701" height="101"/>
        <path fill="none" stroke="rgb(128,128,128)" stroke-width="100" stroke-linejoin="round" d="M 11700,5150 L 11100,5150"/>
       </g>
      </g>
      <g class="com.sun.star.drawing.ConnectorShape">
       <g id="id54">
        <rect class="BoundingBox" stroke="none" fill="none" x="9950" y="2100" width="701" height="101"/>
        <path fill="none" stroke="rgb(128,128,128)" stroke-width="100" stroke-linejoin="round" d="M 10600,2150 L 10000,2150"/>
       </g>
      </g>
      <g class="com.sun.star.drawing.ConnectorShape">
       <g id="id55">
        <rect class="BoundingBox" stroke="none" fill="none" x="9950" y="3100" width="701" height="101"/>
        <path fill="none" stroke="rgb(128,128,128)" stroke-width="100" stroke-linejoin="round" d="M 10600,3150 L 10000,3150"/>
       </g>
      </g>
      <g class="com.sun.star.drawing.ConnectorShape">
       <g id="id56">
        <rect class="BoundingBox" stroke="none" fill="none" x="9950" y="4100" width="701" height="101"/>
        <path fill="none" stroke="rgb(128,128,128)" stroke-width="100" stroke-linejoin="round" d="M 10600,4150 L 10000,4150"/>
       </g>
      </g>
      <g class="com.sun.star.drawing.ConnectorShape">
       <g id="id57">
        <rect class="BoundingBox" stroke="none" fill="none" x="9950" y="5100" width="701" height="101"/>
        <path fill="none" stroke="rgb(128,128,128)" stroke-width="100" stroke-linejoin="round" d="M 10600,5150 L 10000,5150"/>
       </g>
      </g>
      <g class="com.sun.star.drawing.ConnectorShape">
       <g id="id58">
        <rect class="BoundingBox" stroke="none" fill="none" x="8850" y="2100" width="701" height="101"/>
        <path fill="none" stroke="rgb(128,128,128)" stroke-width="100" stroke-linejoin="round" d="M 9500,2150 L 8900,2150"/>
       </g>
      </g>
      <g class="com.sun.star.drawing.ConnectorShape">
       <g id="id59">
        <rect class="BoundingBox" stroke="none" fill="none" x="8850" y="3100" width="701" height="101"/>
        <path fill="none" stroke="rgb(128,128,128)" stroke-width="100" stroke-linejoin="round" d="M 9500,3150 L 8900,3150"/>
       </g>
      </g>
      <g class="com.sun.star.drawing.ConnectorShape">
       <g id="id60">
        <rect class="BoundingBox" stroke="none" fill="none" x="8850" y="5100" width="701" height="101"/>
        <path fill="none" stroke="rgb(128,128,128)" stroke-width="100" stroke-linejoin="round" d="M 9500,5150 L 8900,5150"/>
       </g>
      </g>
      <g class="com.sun.star.drawing.ConnectorShape">
       <g id="id61">
        <rect class="BoundingBox" stroke="none" fill="none" x="8850" y="4100" width="701" height="101"/>
        <path fill="none" stroke="rgb(128,128,128)" stroke-width="100" stroke-linejoin="round" d="M 9500,4150 L 8900,4150"/>
       </g>
      </g>
      <g class="com.sun.star.drawing.CustomShape">
       <g id="id62">
        <rect class="BoundingBox" stroke="none" fill="none" x="8349" y="1849" width="603" height="603"/>
        <path fill="none" stroke="rgb(28,28,28)" stroke-width="100" stroke-linejoin="round" d="M 8650,1899 C 8696,1899 8735,1910 8775,1933 8815,1956 8844,1985 8867,2025 8890,2065 8901,2104 8901,2150 8901,2196 8890,2235 8867,2275 8844,2315 8815,2344 8775,2367 8735,2390 8696,2400 8650,2400 8604,2400 8565,2390 8525,2367 8485,2344 8456,2315 8433,2275 8410,2235 8400,2196 8400,2150 8400,2104 8410,2065 8433,2025 8456,1985 8485,1956 8525,1933 8565,1910 8604,1899 8650,1899 Z"/>
       </g>
      </g>
      <g class="com.sun.star.drawing.CustomShape">
       <g id="id63">
        <rect class="BoundingBox" stroke="none" fill="none" x="9449" y="1849" width="603" height="603"/>
        <path fill="none" stroke="rgb(28,28,28)" stroke-width="100" stroke-linejoin="round" d="M 9750,1899 C 9796,1899 9835,1910 9875,1933 9915,1956 9944,1985 9967,2025 9990,2065 10001,2104 10001,2150 10001,2196 9990,2235 9967,2275 9944,2315 9915,2344 9875,2367 9835,2390 9796,2400 9750,2400 9704,2400 9665,2390 9625,2367 9585,2344 9556,2315 9533,2275 9510,2235 9500,2196 9500,2150 9500,2104 9510,2065 9533,2025 9556,1985 9585,1956 9625,1933 9665,1910 9704,1899 9750,1899 Z"/>
       </g>
      </g>
      <g class="com.sun.star.drawing.CustomShape">
       <g id="id64">
        <rect class="BoundingBox" stroke="none" fill="none" x="10549" y="1849" width="603" height="603"/>
        <path fill="none" stroke="rgb(28,28,28)" stroke-width="100" stroke-linejoin="round" d="M 10850,1899 C 10896,1899 10935,1910 10975,1933 11015,1956 11044,1985 11067,2025 11090,2065 11101,2104 11101,2150 11101,2196 11090,2235 11067,2275 11044,2315 11015,2344 10975,2367 10935,2390 10896,2400 10850,2400 10804,2400 10765,2390 10725,2367 10685,2344 10656,2315 10633,2275 10610,2235 10600,2196 10600,2150 10600,2104 10610,2065 10633,2025 10656,1985 10685,1956 10725,1933 10765,1910 10804,1899 10850,1899 Z"/>
       </g>
      </g>
      <g class="com.sun.star.drawing.CustomShape">
       <g id="id65">
        <rect class="BoundingBox" stroke="none" fill="none" x="11649" y="1849" width="603" height="603"/>
        <path fill="none" stroke="rgb(28,28,28)" stroke-width="100" stroke-linejoin="round" d="M 11950,1899 C 11996,1899 12035,1910 12075,1933 12115,1956 12144,1985 12167,2025 12190,2065 12201,2104 12201,2150 12201,2196 12190,2235 12167,2275 12144,2315 12115,2344 12075,2367 12035,2390 11996,2400 11950,2400 11904,2400 11865,2390 11825,2367 11785,2344 11756,2315 11733,2275 11710,2235 11700,2196 11700,2150 11700,2104 11710,2065 11733,2025 11756,1985 11785,1956 11825,1933 11865,1910 11904,1899 11950,1899 Z"/>
       </g>
      </g>
      <g class="com.sun.star.drawing.CustomShape">
       <g id="id66">
        <rect class="BoundingBox" stroke="none" fill="none" x="8349" y="2849" width="603" height="603"/>
        <path fill="none" stroke="rgb(28,28,28)" stroke-width="100" stroke-linejoin="round" d="M 8650,2900 C 8696,2900 8735,2910 8775,2933 8815,2956 8844,2985 8867,3025 8890,3065 8901,3104 8901,3150 8901,3196 8890,3235 8867,3275 8844,3315 8815,3344 8775,3367 8735,3390 8696,3401 8650,3401 8604,3401 8565,3390 8525,3367 8485,3344 8456,3315 8433,3275 8410,3235 8400,3196 8400,3150 8400,3104 8410,3065 8433,3025 8456,2985 8485,2956 8525,2933 8565,2910 8604,2900 8650,2900 Z"/>
       </g>
      </g>
      <g class="com.sun.star.drawing.CustomShape">
       <g id="id67">
        <rect class="BoundingBox" stroke="none" fill="none" x="9449" y="2849" width="603" height="603"/>
        <path fill="none" stroke="rgb(28,28,28)" stroke-width="100" stroke-linejoin="round" d="M 9750,2900 C 9796,2900 9835,2910 9875,2933 9915,2956 9944,2985 9967,3025 9990,3065 10001,3104 10001,3150 10001,3196 9990,3235 9967,3275 9944,3315 9915,3344 9875,3367 9835,3390 9796,3401 9750,3401 9704,3401 9665,3390 9625,3367 9585,3344 9556,3315 9533,3275 9510,3235 9500,3196 9500,3150 9500,3104 9510,3065 9533,3025 9556,2985 9585,2956 9625,2933 9665,2910 9704,2900 9750,2900 Z"/>
       </g>
      </g>
      <g class="com.sun.star.drawing.CustomShape">
       <g id="id68">
        <rect class="BoundingBox" stroke="none" fill="none" x="10549" y="2849" width="603" height="603"/>
        <path fill="none" stroke="rgb(28,28,28)" stroke-width="100" stroke-linejoin="round" d="M 10850,2900 C 10896,2900 10935,2910 10975,2933 11015,2956 11044,2985 11067,3025 11090,3065 11101,3104 11101,3150 11101,3196 11090,3235 11067,3275 11044,3315 11015,3344 10975,3367 10935,3390 10896,3401 10850,3401 10804,3401 10765,3390 10725,3367 10685,3344 10656,3315 10633,3275 10610,3235 10600,3196 10600,3150 10600,3104 10610,3065 10633,3025 10656,2985 10685,2956 10725,2933 10765,2910 10804,2900 10850,2900 Z"/>
       </g>
      </g>
      <g class="com.sun.star.drawing.CustomShape">
       <g id="id69">
        <rect class="BoundingBox" stroke="none" fill="none" x="11649" y="2849" width="603" height="603"/>
        <path fill="none" stroke="rgb(28,28,28)" stroke-width="100" stroke-linejoin="round" d="M 11950,2900 C 11996,2900 12035,2910 12075,2933 12115,2956 12144,2985 12167,3025 12190,3065 12201,3104 12201,3150 12201,3196 12190,3235 12167,3275 12144,3315 12115,3344 12075,3367 12035,3390 11996,3401 11950,3401 11904,3401 11865,3390 11825,3367 11785,3344 11756,3315 11733,3275 11710,3235 11700,3196 11700,3150 11700,3104 11710,3065 11733,3025 11756,2985 11785,2956 11825,2933 11865,2910 11904,2900 11950,2900 Z"/>
       </g>
      </g>
      <g class="com.sun.star.drawing.CustomShape">
       <g id="id70">
        <rect class="BoundingBox" stroke="none" fill="none" x="8349" y="3849" width="603" height="603"/>
        <path fill="none" stroke="rgb(28,28,28)" stroke-width="100" stroke-linejoin="round" d="M 8650,3899 C 8696,3899 8735,3910 8775,3933 8815,3956 8844,3985 8867,4025 8890,4065 8901,4104 8901,4150 8901,4196 8890,4235 8867,4275 8844,4315 8815,4344 8775,4367 8735,4390 8696,4401 8650,4401 8604,4401 8565,4390 8525,4367 8485,4344 8456,4315 8433,4275 8410,4235 8400,4196 8400,4150 8400,4104 8410,4065 8433,4025 8456,3985 8485,3956 8525,3933 8565,3910 8604,3899 8650,3899 Z"/>
       </g>
      </g>
      <g class="com.sun.star.drawing.CustomShape">
       <g id="id71">
        <rect class="BoundingBox" stroke="none" fill="none" x="9449" y="3849" width="603" height="603"/>
        <path fill="none" stroke="rgb(28,28,28)" stroke-width="100" stroke-linejoin="round" d="M 9750,3899 C 9796,3899 9835,3910 9875,3933 9915,3956 9944,3985 9967,4025 9990,4065 10001,4104 10001,4150 10001,4196 9990,4235 9967,4275 9944,4315 9915,4344 9875,4367 9835,4390 9796,4401 9750,4401 9704,4401 9665,4390 9625,4367 9585,4344 9556,4315 9533,4275 9510,4235 9500,4196 9500,4150 9500,4104 9510,4065 9533,4025 9556,3985 9585,3956 9625,3933 9665,3910 9704,3899 9750,3899 Z"/>
       </g>
      </g>
      <g class="com.sun.star.drawing.CustomShape">
       <g id="id72">
        <rect class="BoundingBox" stroke="none" fill="none" x="10549" y="3849" width="603" height="603"/>
        <path fill="none" stroke="rgb(28,28,28)" stroke-width="100" stroke-linejoin="round" d="M 10850,3899 C 10896,3899 10935,3910 10975,3933 11015,3956 11044,3985 11067,4025 11090,4065 11101,4104 11101,4150 11101,4196 11090,4235 11067,4275 11044,4315 11015,4344 10975,4367 10935,4390 10896,4401 10850,4401 10804,4401 10765,4390 10725,4367 10685,4344 10656,4315 10633,4275 10610,4235 10600,4196 10600,4150 10600,4104 10610,4065 10633,4025 10656,3985 10685,3956 10725,3933 10765,3910 10804,3899 10850,3899 Z"/>
       </g>
      </g>
      <g class="com.sun.star.drawing.CustomShape">
       <g id="id73">
        <rect class="BoundingBox" stroke="none" fill="none" x="11649" y="3849" width="603" height="603"/>
        <path fill="none" stroke="rgb(28,28,28)" stroke-width="100" stroke-linejoin="round" d="M 11950,3899 C 11996,3899 12035,3910 12075,3933 12115,3956 12144,3985 12167,4025 12190,4065 12201,4104 12201,4150 12201,4196 12190,4235 12167,4275 12144,4315 12115,4344 12075,4367 12035,4390 11996,4401 11950,4401 11904,4401 11865,4390 11825,4367 11785,4344 11756,4315 11733,4275 11710,4235 11700,4196 11700,4150 11700,4104 11710,4065 11733,4025 11756,3985 11785,3956 11825,3933 11865,3910 11904,3899 11950,3899 Z"/>
       </g>
      </g>
      <g class="com.sun.star.drawing.CustomShape">
       <g id="id74">
        <rect class="BoundingBox" stroke="none" fill="none" x="8349" y="4849" width="603" height="603"/>
        <path fill="none" stroke="rgb(28,28,28)" stroke-width="100" stroke-linejoin="round" d="M 8650,4900 C 8696,4900 8735,4910 8775,4933 8815,4956 8844,4985 8867,5025 8890,5065 8901,5104 8901,5150 8901,5196 8890,5235 8867,5275 8844,5315 8815,5344 8775,5367 8735,5390 8696,5401 8650,5401 8604,5401 8565,5390 8525,5367 8485,5344 8456,5315 8433,5275 8410,5235 8400,5196 8400,5150 8400,5104 8410,5065 8433,5025 8456,4985 8485,4956 8525,4933 8565,4910 8604,4900 8650,4900 Z"/>
       </g>
      </g>
      <g class="com.sun.star.drawing.CustomShape">
       <g id="id75">
        <rect class="BoundingBox" stroke="none" fill="none" x="9449" y="4849" width="603" height="603"/>
        <path fill="none" stroke="rgb(28,28,28)" stroke-width="100" stroke-linejoin="round" d="M 9750,4900 C 9796,4900 9835,4910 9875,4933 9915,4956 9944,4985 9967,5025 9990,5065 10001,5104 10001,5150 10001,5196 9990,5235 9967,5275 9944,5315 9915,5344 9875,5367 9835,5390 9796,5401 9750,5401 9704,5401 9665,5390 9625,5367 9585,5344 9556,5315 9533,5275 9510,5235 9500,5196 9500,5150 9500,5104 9510,5065 9533,5025 9556,4985 9585,4956 9625,4933 9665,4910 9704,4900 9750,4900 Z"/>
       </g>
      </g>
      <g class="com.sun.star.drawing.CustomShape">
       <g id="id76">
        <rect class="BoundingBox" stroke="none" fill="none" x="10549" y="4849" width="603" height="603"/>
        <path fill="none" stroke="rgb(28,28,28)" stroke-width="100" stroke-linejoin="round" d="M 10850,4900 C 10896,4900 10935,4910 10975,4933 11015,4956 11044,4985 11067,5025 11090,5065 11101,5104 11101,5150 11101,5196 11090,5235 11067,5275 11044,5315 11015,5344 10975,5367 10935,5390 10896,5401 10850,5401 10804,5401 10765,5390 10725,5367 10685,5344 10656,5315 10633,5275 10610,5235 10600,5196 10600,5150 10600,5104 10610,5065 10633,5025 10656,4985 10685,4956 10725,4933 10765,4910 10804,4900 10850,4900 Z"/>
       </g>
      </g>
      <g class="com.sun.star.drawing.CustomShape">
       <g id="id77">
        <rect class="BoundingBox" stroke="none" fill="none" x="11649" y="4849" width="603" height="603"/>
        <path fill="none" stroke="rgb(28,28,28)" stroke-width="100" stroke-linejoin="round" d="M 11950,4900 C 11996,4900 12035,4910 12075,4933 12115,4956 12144,4985 12167,5025 12190,5065 12201,5104 12201,5150 12201,5196 12190,5235 12167,5275 12144,5315 12115,5344 12075,5367 12035,5390 11996,5401 11950,5401 11904,5401 11865,5390 11825,5367 11785,5344 11756,5315 11733,5275 11710,5235 11700,5196 11700,5150 11700,5104 11710,5065 11733,5025 11756,4985 11785,4956 11825,4933 11865,4910 11904,4900 11950,4900 Z"/>
       </g>
      </g>
      <g class="com.sun.star.drawing.CustomShape">
       <g id="id78">
        <rect class="BoundingBox" stroke="none" fill="none" x="2350" y="1950" width="901" height="901"/>
        <path fill="rgb(114,159,207)" stroke="none" d="M 2800,2800 L 2400,2800 2400,2000 3200,2000 3200,2800 2800,2800 Z"/>
        <path fill="none" stroke="rgb(28,28,28)" stroke-width="100" stroke-linejoin="round" d="M 2800,2800 L 2400,2800 2400,2000 3200,2000 3200,2800 2800,2800 Z"/>
       </g>
      </g>
      <g class="com.sun.star.drawing.CustomShape">
       <g id="id79">
        <rect class="BoundingBox" stroke="none" fill="none" x="3150" y="1950" width="901" height="901"/>
        <path fill="rgb(56,61,60)" stroke="none" d="M 3600,2800 L 3200,2800 3200,2000 4000,2000 4000,2800 3600,2800 Z"/>
        <path fill="none" stroke="rgb(28,28,28)" stroke-width="100" stroke-linejoin="round" d="M 3600,2800 L 3200,2800 3200,2000 4000,2000 4000,2800 3600,2800 Z"/>
       </g>
      </g>
      <g class="com.sun.star.drawing.CustomShape">
       <g id="id80">
        <rect class="BoundingBox" stroke="none" fill="none" x="3950" y="1950" width="901" height="901"/>
        <path fill="rgb(30,106,57)" stroke="none" d="M 4400,2800 L 4000,2800 4000,2000 4800,2000 4800,2800 4400,2800 Z"/>
        <path fill="none" stroke="rgb(28,28,28)" stroke-width="100" stroke-linejoin="round" d="M 4400,2800 L 4000,2800 4000,2000 4800,2000 4800,2800 4400,2800 Z"/>
       </g>
      </g>
      <g class="com.sun.star.drawing.CustomShape">
       <g id="id81">
        <rect class="BoundingBox" stroke="none" fill="none" x="4750" y="1950" width="901" height="901"/>
        <path fill="rgb(40,71,31)" stroke="none" d="M 5200,2800 L 4800,2800 4800,2000 5600,2000 5600,2800 5200,2800 Z"/>
        <path fill="none" stroke="rgb(28,28,28)" stroke-width="100" stroke-linejoin="round" d="M 5200,2800 L 4800,2800 4800,2000 5600,2000 5600,2800 5200,2800 Z"/>
       </g>
      </g>
      <g class="com.sun.star.drawing.CustomShape">
       <g id="id82">
        <rect class="BoundingBox" stroke="none" fill="none" x="2350" y="2750" width="901" height="901"/>
        <path fill="rgb(89,131,176)" stroke="none" d="M 2800,3600 L 2400,3600 2400,2800 3200,2800 3200,3600 2800,3600 Z"/>
        <path fill="none" stroke="rgb(28,28,28)" stroke-width="100" stroke-linejoin="round" d="M 2800,3600 L 2400,3600 2400,2800 3200,2800 3200,3600 2800,3600 Z"/>
       </g>
      </g>
      <g class="com.sun.star.drawing.CustomShape">
       <g id="id83">
        <rect class="BoundingBox" stroke="none" fill="none" x="3150" y="2750" width="901" height="901"/>
        <path fill="rgb(129,172,166)" stroke="none" d="M 3600,3600 L 3200,3600 3200,2800 4000,2800 4000,3600 3600,3600 Z"/>
        <path fill="none" stroke="rgb(28,28,28)" stroke-width="100" stroke-linejoin="round" d="M 3600,3600 L 3200,3600 3200,2800 4000,2800 4000,3600 3600,3600 Z"/>
       </g>
      </g>
      <g class="com.sun.star.drawing.CustomShape">
       <g id="id84">
        <rect class="BoundingBox" stroke="none" fill="none" x="3950" y="2750" width="901" height="901"/>
        <path fill="rgb(30,106,57)" stroke="none" d="M 4400,3600 L 4000,3600 4000,2800 4800,2800 4800,3600 4400,3600 Z"/>
        <path fill="none" stroke="rgb(28,28,28)" stroke-width="100" stroke-linejoin="round" d="M 4400,3600 L 4000,3600 4000,2800 4800,2800 4800,3600 4400,3600 Z"/>
       </g>
      </g>
      <g class="com.sun.star.drawing.CustomShape">
       <g id="id85">
        <rect class="BoundingBox" stroke="none" fill="none" x="4750" y="2750" width="901" height="901"/>
        <path fill="rgb(34,75,18)" stroke="none" d="M 5200,3600 L 4800,3600 4800,2800 5600,2800 5600,3600 5200,3600 Z"/>
        <path fill="none" stroke="rgb(28,28,28)" stroke-width="100" stroke-linejoin="round" d="M 5200,3600 L 4800,3600 4800,2800 5600,2800 5600,3600 5200,3600 Z"/>
       </g>
      </g>
      <g class="com.sun.star.drawing.CustomShape">
       <g id="id86">
        <rect class="BoundingBox" stroke="none" fill="none" x="2350" y="3550" width="901" height="901"/>
        <path fill="rgb(114,159,207)" stroke="none" d="M 2800,4400 L 2400,4400 2400,3600 3200,3600 3200,4400 2800,4400 Z"/>
        <path fill="none" stroke="rgb(28,28,28)" stroke-width="100" stroke-linejoin="round" d="M 2800,4400 L 2400,4400 2400,3600 3200,3600 3200,4400 2800,4400 Z"/>
       </g>
      </g>
      <g class="com.sun.star.drawing.CustomShape">
       <g id="id87">
        <rect class="BoundingBox" stroke="none" fill="none" x="3150" y="3550" width="901" height="901"/>
        <path fill="rgb(80,147,138)" stroke="none" d="M 3600,4400 L 3200,4400 3200,3600 4000,3600 4000,4400 3600,4400 Z"/>
        <path fill="none" stroke="rgb(28,28,28)" stroke-width="100" stroke-linejoin="round" d="M 3600,4400 L 3200,4400 3200,3600 4000,3600 4000,4400 3600,4400 Z"/>
       </g>
      </g>
      <g class="com.sun.star.drawing.CustomShape">
       <g id="id88">
        <rect class="BoundingBox" stroke="none" fill="none" x="3950" y="3550" width="901" height="901"/>
        <path fill="rgb(22,130,83)" stroke="none" d="M 4400,4400 L 4000,4400 4000,3600 4800,3600 4800,4400 4400,4400 Z"/>
        <path fill="none" stroke="rgb(28,28,28)" stroke-width="100" stroke-linejoin="round" d="M 4400,4400 L 4000,4400 4000,3600 4800,3600 4800,4400 4400,4400 Z"/>
       </g>
      </g>
      <g class="com.sun.star.drawing.CustomShape">
       <g id="id89">
        <rect class="BoundingBox" stroke="none" fill="none" x="4750" y="3550" width="901" height="901"/>
        <path fill="rgb(18,118,34)" stroke="none" d="M 5200,4400 L 4800,4400 4800,3600 5600,3600 5600,4400 5200,4400 Z"/>
        <path fill="none" stroke="rgb(28,28,28)" stroke-width="100" stroke-linejoin="round" d="M 5200,4400 L 4800,4400 4800,3600 5600,3600 5600,4400 5200,4400 Z"/>
       </g>
      </g>
      <g class="com.sun.star.drawing.CustomShape">
       <g id="id90">
        <rect class="BoundingBox" stroke="none" fill="none" x="2350" y="4350" width="901" height="901"/>
        <path fill="rgb(142,134,174)" stroke="none" d="M 2800,5200 L 2400,5200 2400,4400 3200,4400 3200,5200 2800,5200 Z"/>
        <path fill="none" stroke="rgb(28,28,28)" stroke-width="100" stroke-linejoin="round" d="M 2800,5200 L 2400,5200 2400,4400 3200,4400 3200,5200 2800,5200 Z"/>
       </g>
      </g>
      <g class="com.sun.star.drawing.CustomShape">
       <g id="id91">
        <rect class="BoundingBox" stroke="none" fill="none" x="3150" y="4350" width="901" height="901"/>
        <path fill="rgb(51,51,51)" stroke="none" d="M 3600,5200 L 3200,5200 3200,4400 4000,4400 4000,5200 3600,5200 Z"/>
        <path fill="none" stroke="rgb(28,28,28)" stroke-width="100" stroke-linejoin="round" d="M 3600,5200 L 3200,5200 3200,4400 4000,4400 4000,5200 3600,5200 Z"/>
       </g>
      </g>
      <g class="com.sun.star.drawing.CustomShape">
       <g id="id92">
        <rect class="BoundingBox" stroke="none" fill="none" x="3950" y="4350" width="901" height="901"/>
        <path fill="rgb(56,61,60)" stroke="none" d="M 4400,5200 L 4000,5200 4000,4400 4800,4400 4800,5200 4400,5200 Z"/>
        <path fill="none" stroke="rgb(28,28,28)" stroke-width="100" stroke-linejoin="round" d="M 4400,5200 L 4000,5200 4000,4400 4800,4400 4800,5200 4400,5200 Z"/>
       </g>
      </g>
      <g class="com.sun.star.drawing.CustomShape">
       <g id="id93">
        <rect class="BoundingBox" stroke="none" fill="none" x="4750" y="4350" width="901" height="901"/>
        <path fill="rgb(40,71,31)" stroke="none" d="M 5200,5200 L 4800,5200 4800,4400 5600,4400 5600,5200 5200,5200 Z"/>
        <path fill="none" stroke="rgb(28,28,28)" stroke-width="100" stroke-linejoin="round" d="M 5200,5200 L 4800,5200 4800,4400 5600,4400 5600,5200 5200,5200 Z"/>
       </g>
      </g>
      <g class="com.sun.star.drawing.CustomShape">
       <g id="id94">
        <rect class="BoundingBox" stroke="none" fill="none" x="15049" y="1849" width="603" height="603"/>
        <path fill="none" stroke="rgb(129,172,166)" stroke-width="100" stroke-linejoin="round" d="M 15350,1899 C 15396,1899 15435,1910 15475,1933 15515,1956 15544,1985 15567,2025 15590,2065 15601,2104 15601,2150 15601,2196 15590,2235 15567,2275 15544,2315 15515,2344 15475,2367 15435,2390 15396,2400 15350,2400 15304,2400 15265,2390 15225,2367 15185,2344 15156,2315 15133,2275 15110,2235 15100,2196 15100,2150 15100,2104 15110,2065 15133,2025 15156,1985 15185,1956 15225,1933 15265,1910 15304,1899 15350,1899 Z"/>
       </g>
      </g>
      <g class="com.sun.star.drawing.CustomShape">
       <g id="id95">
        <rect class="BoundingBox" stroke="none" fill="none" x="16149" y="1849" width="603" height="603"/>
        <path fill="none" stroke="rgb(114,159,207)" stroke-width="100" stroke-linejoin="round" d="M 16450,1899 C 16496,1899 16535,1910 16575,1933 16615,1956 16644,1985 16667,2025 16690,2065 16700,2104 16700,2150 16700,2196 16690,2235 16667,2275 16644,2315 16615,2344 16575,2367 16535,2390 16496,2400 16450,2400 16404,2400 16365,2390 16325,2367 16285,2344 16256,2315 16233,2275 16210,2235 16199,2196 16199,2150 16199,2104 16210,2065 16233,2025 16256,1985 16285,1956 16325,1933 16365,1910 16404,1899 16450,1899 Z"/>
       </g>
      </g>
      <g class="com.sun.star.drawing.CustomShape">
       <g id="id96">
        <rect class="BoundingBox" stroke="none" fill="none" x="17249" y="1849" width="603" height="603"/>
        <path fill="none" stroke="rgb(129,172,166)" stroke-width="100" stroke-linejoin="round" d="M 17550,1899 C 17596,1899 17635,1910 17675,1933 17715,1956 17744,1985 17767,2025 17790,2065 17800,2104 17800,2150 17800,2196 17790,2235 17767,2275 17744,2315 17715,2344 17675,2367 17635,2390 17596,2400 17550,2400 17504,2400 17465,2390 17425,2367 17385,2344 17356,2315 17333,2275 17310,2235 17299,2196 17299,2150 17299,2104 17310,2065 17333,2025 17356,1985 17385,1956 17425,1933 17465,1910 17504,1899 17550,1899 Z"/>
       </g>
      </g>
      <g class="com.sun.star.drawing.CustomShape">
       <g id="id97">
        <rect class="BoundingBox" stroke="none" fill="none" x="18349" y="1849" width="603" height="603"/>
        <path fill="none" stroke="rgb(28,28,28)" stroke-width="100" stroke-linejoin="round" d="M 18650,1899 C 18696,1899 18735,1910 18775,1933 18815,1956 18844,1985 18867,2025 18890,2065 18900,2104 18900,2150 18900,2196 18890,2235 18867,2275 18844,2315 18815,2344 18775,2367 18735,2390 18696,2400 18650,2400 18604,2400 18565,2390 18525,2367 18485,2344 18456,2315 18433,2275 18410,2235 18399,2196 18399,2150 18399,2104 18410,2065 18433,2025 18456,1985 18485,1956 18525,1933 18565,1910 18604,1899 18650,1899 Z"/>
       </g>
      </g>
      <g class="com.sun.star.drawing.CustomShape">
       <g id="id98">
        <rect class="BoundingBox" stroke="none" fill="none" x="15049" y="2849" width="603" height="603"/>
        <path fill="none" stroke="rgb(114,159,207)" stroke-width="100" stroke-linejoin="round" d="M 15350,2900 C 15396,2900 15435,2910 15475,2933 15515,2956 15544,2985 15567,3025 15590,3065 15601,3104 15601,3150 15601,3196 15590,3235 15567,3275 15544,3315 15515,3344 15475,3367 15435,3390 15396,3401 15350,3401 15304,3401 15265,3390 15225,3367 15185,3344 15156,3315 15133,3275 15110,3235 15100,3196 15100,3150 15100,3104 15110,3065 15133,3025 15156,2985 15185,2956 15225,2933 15265,2910 15304,2900 15350,2900 Z"/>
       </g>
      </g>
      <g class="com.sun.star.drawing.CustomShape">
       <g id="id99">
        <rect class="BoundingBox" stroke="none" fill="none" x="17249" y="2849" width="603" height="603"/>
        <path fill="none" stroke="rgb(114,159,207)" stroke-width="100" stroke-linejoin="round" d="M 17550,2900 C 17596,2900 17635,2910 17675,2933 17715,2956 17744,2985 17767,3025 17790,3065 17800,3104 17800,3150 17800,3196 17790,3235 17767,3275 17744,3315 17715,3344 17675,3367 17635,3390 17596,3401 17550,3401 17504,3401 17465,3390 17425,3367 17385,3344 17356,3315 17333,3275 17310,3235 17299,3196 17299,3150 17299,3104 17310,3065 17333,3025 17356,2985 17385,2956 17425,2933 17465,2910 17504,2900 17550,2900 Z"/>
       </g>
      </g>
      <g class="com.sun.star.drawing.CustomShape">
       <g id="id100">
        <rect class="BoundingBox" stroke="none" fill="none" x="18349" y="2849" width="603" height="603"/>
        <path fill="none" stroke="rgb(28,28,28)" stroke-width="100" stroke-linejoin="round" d="M 18650,2900 C 18696,2900 18735,2910 18775,2933 18815,2956 18844,2985 18867,3025 18890,3065 18900,3104 18900,3150 18900,3196 18890,3235 18867,3275 18844,3315 18815,3344 18775,3367 18735,3390 18696,3401 18650,3401 18604,3401 18565,3390 18525,3367 18485,3344 18456,3315 18433,3275 18410,3235 18399,3196 18399,3150 18399,3104 18410,3065 18433,3025 18456,2985 18485,2956 18525,2933 18565,2910 18604,2900 18650,2900 Z"/>
       </g>
      </g>
      <g class="com.sun.star.drawing.CustomShape">
       <g id="id101">
        <rect class="BoundingBox" stroke="none" fill="none" x="15049" y="3849" width="603" height="603"/>
        <path fill="none" stroke="rgb(129,172,166)" stroke-width="100" stroke-linejoin="round" d="M 15350,3899 C 15396,3899 15435,3910 15475,3933 15515,3956 15544,3985 15567,4025 15590,4065 15601,4104 15601,4150 15601,4196 15590,4235 15567,4275 15544,4315 15515,4344 15475,4367 15435,4390 15396,4401 15350,4401 15304,4401 15265,4390 15225,4367 15185,4344 15156,4315 15133,4275 15110,4235 15100,4196 15100,4150 15100,4104 15110,4065 15133,4025 15156,3985 15185,3956 15225,3933 15265,3910 15304,3899 15350,3899 Z"/>
       </g>
      </g>
      <g class="com.sun.star.drawing.CustomShape">
       <g id="id102">
        <rect class="BoundingBox" stroke="none" fill="none" x="16149" y="3849" width="603" height="603"/>
        <path fill="none" stroke="rgb(114,159,207)" stroke-width="100" stroke-linejoin="round" d="M 16450,3899 C 16496,3899 16535,3910 16575,3933 16615,3956 16644,3985 16667,4025 16690,4065 16700,4104 16700,4150 16700,4196 16690,4235 16667,4275 16644,4315 16615,4344 16575,4367 16535,4390 16496,4401 16450,4401 16404,4401 16365,4390 16325,4367 16285,4344 16256,4315 16233,4275 16210,4235 16199,4196 16199,4150 16199,4104 16210,4065 16233,4025 16256,3985 16285,3956 16325,3933 16365,3910 16404,3899 16450,3899 Z"/>
       </g>
      </g>
      <g class="com.sun.star.drawing.CustomShape">
       <g id="id103">
        <rect class="BoundingBox" stroke="none" fill="none" x="17249" y="3849" width="603" height="603"/>
        <path fill="none" stroke="rgb(129,172,166)" stroke-width="100" stroke-linejoin="round" d="M 17550,3899 C 17596,3899 17635,3910 17675,3933 17715,3956 17744,3985 17767,4025 17790,4065 17800,4104 17800,4150 17800,4196 17790,4235 17767,4275 17744,4315 17715,4344 17675,4367 17635,4390 17596,4401 17550,4401 17504,4401 17465,4390 17425,4367 17385,4344 17356,4315 17333,4275 17310,4235 17299,4196 17299,4150 17299,4104 17310,4065 17333,4025 17356,3985 17385,3956 17425,3933 17465,3910 17504,3899 17550,3899 Z"/>
       </g>
      </g>
      <g class="com.sun.star.drawing.CustomShape">
       <g id="id104">
        <rect class="BoundingBox" stroke="none" fill="none" x="18349" y="3849" width="603" height="603"/>
        <path fill="none" stroke="rgb(28,28,28)" stroke-width="100" stroke-linejoin="round" d="M 18650,3899 C 18696,3899 18735,3910 18775,3933 18815,3956 18844,3985 18867,4025 18890,4065 18900,4104 18900,4150 18900,4196 18890,4235 18867,4275 18844,4315 18815,4344 18775,4367 18735,4390 18696,4401 18650,4401 18604,4401 18565,4390 18525,4367 18485,4344 18456,4315 18433,4275 18410,4235 18399,4196 18399,4150 18399,4104 18410,4065 18433,4025 18456,3985 18485,3956 18525,3933 18565,3910 18604,3899 18650,3899 Z"/>
       </g>
      </g>
      <g class="com.sun.star.drawing.CustomShape">
       <g id="id105">
        <rect class="BoundingBox" stroke="none" fill="none" x="15049" y="4849" width="603" height="603"/>
        <path fill="none" stroke="rgb(28,28,28)" stroke-width="100" stroke-linejoin="round" d="M 15350,4900 C 15396,4900 15435,4910 15475,4933 15515,4956 15544,4985 15567,5025 15590,5065 15601,5104 15601,5150 15601,5196 15590,5235 15567,5275 15544,5315 15515,5344 15475,5367 15435,5390 15396,5401 15350,5401 15304,5401 15265,5390 15225,5367 15185,5344 15156,5315 15133,5275 15110,5235 15100,5196 15100,5150 15100,5104 15110,5065 15133,5025 15156,4985 15185,4956 15225,4933 15265,4910 15304,4900 15350,4900 Z"/>
       </g>
      </g>
      <g class="com.sun.star.drawing.CustomShape">
       <g id="id106">
        <rect class="BoundingBox" stroke="none" fill="none" x="16149" y="4849" width="603" height="603"/>
        <path fill="none" stroke="rgb(28,28,28)" stroke-width="100" stroke-linejoin="round" d="M 16450,4900 C 16496,4900 16535,4910 16575,4933 16615,4956 16644,4985 16667,5025 16690,5065 16700,5104 16700,5150 16700,5196 16690,5235 16667,5275 16644,5315 16615,5344 16575,5367 16535,5390 16496,5401 16450,5401 16404,5401 16365,5390 16325,5367 16285,5344 16256,5315 16233,5275 16210,5235 16199,5196 16199,5150 16199,5104 16210,5065 16233,5025 16256,4985 16285,4956 16325,4933 16365,4910 16404,4900 16450,4900 Z"/>
       </g>
      </g>
      <g class="com.sun.star.drawing.CustomShape">
       <g id="id107">
        <rect class="BoundingBox" stroke="none" fill="none" x="17249" y="4849" width="603" height="603"/>
        <path fill="none" stroke="rgb(28,28,28)" stroke-width="100" stroke-linejoin="round" d="M 17550,4900 C 17596,4900 17635,4910 17675,4933 17715,4956 17744,4985 17767,5025 17790,5065 17800,5104 17800,5150 17800,5196 17790,5235 17767,5275 17744,5315 17715,5344 17675,5367 17635,5390 17596,5401 17550,5401 17504,5401 17465,5390 17425,5367 17385,5344 17356,5315 17333,5275 17310,5235 17299,5196 17299,5150 17299,5104 17310,5065 17333,5025 17356,4985 17385,4956 17425,4933 17465,4910 17504,4900 17550,4900 Z"/>
       </g>
      </g>
      <g class="com.sun.star.drawing.CustomShape">
       <g id="id108">
        <rect class="BoundingBox" stroke="none" fill="none" x="18349" y="4849" width="603" height="603"/>
        <path fill="none" stroke="rgb(28,28,28)" stroke-width="100" stroke-linejoin="round" d="M 18650,4900 C 18696,4900 18735,4910 18775,4933 18815,4956 18844,4985 18867,5025 18890,5065 18900,5104 18900,5150 18900,5196 18890,5235 18867,5275 18844,5315 18815,5344 18775,5367 18735,5390 18696,5401 18650,5401 18604,5401 18565,5390 18525,5367 18485,5344 18456,5315 18433,5275 18410,5235 18399,5196 18399,5150 18399,5104 18410,5065 18433,5025 18456,4985 18485,4956 18525,4933 18565,4910 18604,4900 18650,4900 Z"/>
       </g>
      </g>
      <g class="com.sun.star.drawing.CustomShape">
       <g id="id109">
        <rect class="BoundingBox" stroke="none" fill="none" x="16449" y="7649" width="603" height="603"/>
        <path fill="none" stroke="rgb(114,159,207)" stroke-width="100" stroke-linejoin="round" d="M 16750,7699 C 16796,7699 16835,7710 16875,7733 16915,7756 16944,7785 16967,7825 16990,7865 17001,7904 17001,7950 17001,7996 16990,8035 16967,8075 16944,8115 16915,8144 16875,8167 16835,8190 16796,8201 16750,8201 16704,8201 16665,8190 16625,8167 16585,8144 16556,8115 16533,8075 16510,8035 16500,7996 16500,7950 16500,7904 16510,7865 16533,7825 16556,7785 16585,7756 16625,7733 16665,7710 16704,7699 16750,7699 Z"/>
       </g>
      </g>
      <g class="com.sun.star.drawing.CustomShape">
       <g id="id110">
        <rect class="BoundingBox" stroke="none" fill="none" x="14849" y="8449" width="603" height="603"/>
        <path fill="none" stroke="rgb(114,159,207)" stroke-width="100" stroke-linejoin="round" d="M 15150,8499 C 15196,8499 15235,8510 15275,8533 15315,8556 15344,8585 15367,8625 15390,8665 15400,8704 15400,8750 15400,8796 15390,8835 15367,8875 15344,8915 15315,8944 15275,8967 15235,8990 15196,9000 15150,9000 15104,9000 15065,8990 15025,8967 14985,8944 14956,8915 14933,8875 14910,8835 14899,8796 14899,8750 14899,8704 14910,8665 14933,8625 14956,8585 14985,8556 15025,8533 15065,8510 15104,8499 15150,8499 Z"/>
       </g>
      </g>
      <g class="com.sun.star.drawing.CustomShape">
       <g id="id111">
        <rect class="BoundingBox" stroke="none" fill="none" x="17849" y="8949" width="603" height="603"/>
        <path fill="none" stroke="rgb(114,159,207)" stroke-width="100" stroke-linejoin="round" d="M 18150,9000 C 18196,9000 18235,9010 18275,9033 18315,9056 18344,9085 18367,9125 18390,9165 18401,9204 18401,9250 18401,9296 18390,9335 18367,9375 18344,9415 18315,9444 18275,9467 18235,9490 18196,9501 18150,9501 18104,9501 18065,9490 18025,9467 17985,9444 17956,9415 17933,9375 17910,9335 17900,9296 17900,9250 17900,9204 17910,9165 17933,9125 17956,9085 17985,9056 18025,9033 18065,9010 18104,9000 18150,9000 Z"/>
       </g>
      </g>
      <g class="com.sun.star.drawing.CustomShape">
       <g id="id112">
        <rect class="BoundingBox" stroke="none" fill="none" x="17549" y="9949" width="603" height="603"/>
        <path fill="none" stroke="rgb(114,159,207)" stroke-width="100" stroke-linejoin="round" d="M 17850,9999 C 17896,9999 17935,10010 17975,10033 18015,10056 18044,10085 18067,10125 18090,10165 18101,10204 18101,10250 18101,10296 18090,10335 18067,10375 18044,10415 18015,10444 17975,10467 17935,10490 17896,10500 17850,10500 17804,10500 17765,10490 17725,10467 17685,10444 17656,10415 17633,10375 17610,10335 17600,10296 17600,10250 17600,10204 17610,10165 17633,10125 17656,10085 17685,10056 17725,10033 17765,10010 17804,9999 17850,9999 Z"/>
       </g>
      </g>
      <g class="com.sun.star.drawing.CustomShape">
       <g id="id113">
        <rect class="BoundingBox" stroke="none" fill="none" x="16249" y="10249" width="603" height="603"/>
        <path fill="none" stroke="rgb(114,159,207)" stroke-width="100" stroke-linejoin="round" d="M 16550,10299 C 16596,10299 16635,10310 16675,10333 16715,10356 16744,10385 16767,10425 16790,10465 16801,10504 16801,10550 16801,10596 16790,10635 16767,10675 16744,10715 16715,10744 16675,10767 16635,10790 16596,10800 16550,10800 16504,10800 16465,10790 16425,10767 16385,10744 16356,10715 16333,10675 16310,10635 16300,10596 16300,10550 16300,10504 16310,10465 16333,10425 16356,10385 16385,10356 16425,10333 16465,10310 16504,10299 16550,10299 Z"/>
       </g>
      </g>
      <g class="com.sun.star.drawing.ConnectorShape">
       <g id="id114">
        <rect class="BoundingBox" stroke="none" fill="none" x="15100" y="8950" width="201" height="701"/>
        <path fill="none" stroke="rgb(128,128,128)" stroke-width="100" stroke-linejoin="round" d="M 15250,9600 L 15150,9000"/>
       </g>
      </g>
      <g class="com.sun.star.drawing.ConnectorShape">
       <g id="id115">
        <rect class="BoundingBox" stroke="none" fill="none" x="16877" y="7277" width="347" height="547"/>
        <path fill="none" stroke="rgb(128,128,128)" stroke-width="100" stroke-linejoin="round" d="M 17173,7327 L 16927,7773"/>
       </g>
      </g>
      <g class="com.sun.star.drawing.ConnectorShape">
       <g id="id116">
        <rect class="BoundingBox" stroke="none" fill="none" x="15350" y="8700" width="1201" height="301"/>
        <path fill="none" stroke="rgb(114,159,207)" stroke-width="100" stroke-linejoin="round" d="M 16500,8950 L 15400,8750"/>
       </g>
      </g>
      <g class="com.sun.star.drawing.ConnectorShape">
       <g id="id117">
        <rect class="BoundingBox" stroke="none" fill="none" x="16950" y="8900" width="1001" height="401"/>
        <path fill="none" stroke="rgb(114,159,207)" stroke-width="100" stroke-linejoin="round" d="M 17900,9250 L 17000,8950"/>
       </g>
      </g>
      <g class="com.sun.star.drawing.ConnectorShape">
       <g id="id118">
        <rect class="BoundingBox" stroke="none" fill="none" x="16500" y="9150" width="301" height="1201"/>
        <path fill="none" stroke="rgb(114,159,207)" stroke-width="100" stroke-linejoin="round" d="M 16750,9200 L 16550,10300"/>
       </g>
      </g>
      <g class="com.sun.star.drawing.ConnectorShape">
       <g id="id119">
        <rect class="BoundingBox" stroke="none" fill="none" x="16877" y="9077" width="847" height="1047"/>
        <path fill="none" stroke="rgb(114,159,207)" stroke-width="100" stroke-linejoin="round" d="M 16927,9127 L 17673,10073"/>
       </g>
      </g>
      <g class="com.sun.star.drawing.ConnectorShape">
       <g id="id120">
        <rect class="BoundingBox" stroke="none" fill="none" x="16700" y="8150" width="101" height="601"/>
        <path fill="none" stroke="rgb(114,159,207)" stroke-width="100" stroke-linejoin="round" d="M 16750,8200 L 16750,8700"/>
       </g>
      </g>
      <g class="com.sun.star.drawing.ConnectorShape">
       <g id="id121">
        <rect class="BoundingBox" stroke="none" fill="none" x="16877" y="7777" width="1847" height="1047"/>
        <path fill="none" stroke="rgb(114,159,207)" stroke-width="100" stroke-linejoin="round" d="M 16927,8773 L 18673,7827"/>
       </g>
      </g>
      <g class="com.sun.star.drawing.CustomShape">
       <g id="id122">
        <rect class="BoundingBox" stroke="none" fill="none" x="18549" y="7349" width="603" height="603"/>
        <path fill="none" stroke="rgb(114,159,207)" stroke-width="100" stroke-linejoin="round" d="M 18850,7399 C 18896,7399 18935,7410 18975,7433 19015,7456 19044,7485 19067,7525 19090,7565 19100,7604 19100,7650 19100,7696 19090,7735 19067,7775 19044,7815 19015,7844 18975,7867 18935,7890 18896,7900 18850,7900 18804,7900 18765,7890 18725,7867 18685,7844 18656,7815 18633,7775 18610,7735 18599,7696 18599,7650 18599,7604 18610,7565 18633,7525 18656,7485 18685,7456 18725,7433 18765,7410 18804,7399 18850,7399 Z"/>
       </g>
      </g>
      <g class="com.sun.star.drawing.ConnectorShape">
       <g id="id123">
        <rect class="BoundingBox" stroke="none" fill="none" x="15377" y="9977" width="1047" height="447"/>
        <path fill="none" stroke="rgb(128,128,128)" stroke-width="100" stroke-linejoin="round" d="M 16373,10373 L 15427,10027"/>
       </g>
      </g>
      <g class="com.sun.star.drawing.ConnectorShape">
       <g id="id124">
        <rect class="BoundingBox" stroke="none" fill="none" x="15100" y="7650" width="101" height="901"/>
        <path fill="none" stroke="rgb(128,128,128)" stroke-width="100" stroke-linejoin="round" d="M 15150,8500 L 15150,7700"/>
       </g>
      </g>
      <g class="com.sun.star.drawing.CustomShape">
       <g id="id125">
        <rect class="BoundingBox" stroke="none" fill="none" x="14849" y="7149" width="603" height="603"/>
        <path fill="none" stroke="rgb(28,28,28)" stroke-width="100" stroke-linejoin="round" d="M 15150,7199 C 15196,7199 15235,7210 15275,7233 15315,7256 15344,7285 15367,7325 15390,7365 15400,7404 15400,7450 15400,7496 15390,7535 15367,7575 15344,7615 15315,7644 15275,7667 15235,7690 15196,7700 15150,7700 15104,7700 15065,7690 15025,7667 14985,7644 14956,7615 14933,7575 14910,7535 14899,7496 14899,7450 14899,7404 14910,7365 14933,7325 14956,7285 14985,7256 15025,7233 15065,7210 15104,7199 15150,7199 Z"/>
       </g>
      </g>
      <g class="com.sun.star.drawing.CustomShape">
       <g id="id126">
        <rect class="BoundingBox" stroke="none" fill="none" x="7949" y="9549" width="603" height="603"/>
        <path fill="none" stroke="rgb(28,28,28)" stroke-width="100" stroke-linejoin="round" d="M 8250,9599 C 8296,9599 8335,9610 8375,9633 8415,9656 8444,9685 8467,9725 8490,9765 8501,9804 8501,9850 8501,9896 8490,9935 8467,9975 8444,10015 8415,10044 8375,10067 8335,10090 8296,10100 8250,10100 8204,10100 8165,10090 8125,10067 8085,10044 8056,10015 8033,9975 8010,9935 7999,9896 7999,9850 7999,9804 8010,9765 8033,9725 8056,9685 8085,9656 8125,9633 8165,9610 8204,9599 8250,9599 Z"/>
       </g>
      </g>
      <g class="com.sun.star.drawing.CustomShape">
       <g id="id127">
        <rect class="BoundingBox" stroke="none" fill="none" x="10049" y="6849" width="603" height="603"/>
        <path fill="none" stroke="rgb(28,28,28)" stroke-width="100" stroke-linejoin="round" d="M 10350,6899 C 10396,6899 10435,6910 10475,6933 10515,6956 10544,6985 10567,7025 10590,7065 10600,7104 10600,7150 10600,7196 10590,7235 10567,7275 10544,7315 10515,7344 10475,7367 10435,7390 10396,7400 10350,7400 10304,7400 10265,7390 10225,7367 10185,7344 10156,7315 10133,7275 10110,7235 10099,7196 10099,7150 10099,7104 10110,7065 10133,7025 10156,6985 10185,6956 10225,6933 10265,6910 10304,6899 10350,6899 Z"/>
       </g>
      </g>
      <g class="com.sun.star.drawing.CustomShape">
       <g id="id128">
        <rect class="BoundingBox" stroke="none" fill="none" x="7849" y="8449" width="603" height="603"/>
        <path fill="none" stroke="rgb(28,28,28)" stroke-width="100" stroke-linejoin="round" d="M 8150,8499 C 8196,8499 8235,8510 8275,8533 8315,8556 8344,8585 8367,8625 8390,8665 8401,8704 8401,8750 8401,8796 8390,8835 8367,8875 8344,8915 8315,8944 8275,8967 8235,8990 8196,9000 8150,9000 8104,9000 8065,8990 8025,8967 7985,8944 7956,8915 7933,8875 7910,8835 7900,8796 7900,8750 7900,8704 7910,8665 7933,8625 7956,8585 7985,8556 8025,8533 8065,8510 8104,8499 8150,8499 Z"/>
       </g>
      </g>
      <g class="com.sun.star.drawing.ConnectorShape">
       <g id="id129">
        <rect class="BoundingBox" stroke="none" fill="none" x="9700" y="8150" width="101" height="601"/>
        <path fill="none" stroke="rgb(128,128,128)" stroke-width="100" stroke-linejoin="round" d="M 9750,8200 L 9750,8700"/>
       </g>
      </g>
      <g class="com.sun.star.drawing.CustomShape">
       <g id="id130">
        <rect class="BoundingBox" stroke="none" fill="none" x="9449" y="8649" width="603" height="603"/>
        <path fill="none" stroke="rgb(28,28,28)" stroke-width="100" stroke-linejoin="round" d="M 9750,8700 C 9796,8700 9835,8710 9875,8733 9915,8756 9944,8785 9967,8825 9990,8865 10001,8904 10001,8950 10001,8996 9990,9035 9967,9075 9944,9115 9915,9144 9875,9167 9835,9190 9796,9201 9750,9201 9704,9201 9665,9190 9625,9167 9585,9144 9556,9115 9533,9075 9510,9035 9500,8996 9500,8950 9500,8904 9510,8865 9533,8825 9556,8785 9585,8756 9625,8733 9665,8710 9704,8700 9750,8700 Z"/>
       </g>
      </g>
      <g class="com.sun.star.drawing.CustomShape">
       <g id="id131">
        <rect class="BoundingBox" stroke="none" fill="none" x="10849" y="8949" width="603" height="603"/>
        <path fill="none" stroke="rgb(28,28,28)" stroke-width="100" stroke-linejoin="round" d="M 11150,9000 C 11196,9000 11235,9010 11275,9033 11315,9056 11344,9085 11367,9125 11390,9165 11401,9204 11401,9250 11401,9296 11390,9335 11367,9375 11344,9415 11315,9444 11275,9467 11235,9490 11196,9501 11150,9501 11104,9501 11065,9490 11025,9467 10985,9444 10956,9415 10933,9375 10910,9335 10900,9296 10900,9250 10900,9204 10910,9165 10933,9125 10956,9085 10985,9056 11025,9033 11065,9010 11104,9000 11150,9000 Z"/>
       </g>
      </g>
      <g class="com.sun.star.drawing.CustomShape">
       <g id="id132">
        <rect class="BoundingBox" stroke="none" fill="none" x="10549" y="9949" width="603" height="603"/>
        <path fill="none" stroke="rgb(28,28,28)" stroke-width="100" stroke-linejoin="round" d="M 10850,9999 C 10896,9999 10935,10010 10975,10033 11015,10056 11044,10085 11067,10125 11090,10165 11101,10204 11101,10250 11101,10296 11090,10335 11067,10375 11044,10415 11015,10444 10975,10467 10935,10490 10896,10500 10850,10500 10804,10500 10765,10490 10725,10467 10685,10444 10656,10415 10633,10375 10610,10335 10600,10296 10600,10250 10600,10204 10610,10165 10633,10125 10656,10085 10685,10056 10725,10033 10765,10010 10804,9999 10850,9999 Z"/>
       </g>
      </g>
      <g class="com.sun.star.drawing.CustomShape">
       <g id="id133">
        <rect class="BoundingBox" stroke="none" fill="none" x="9249" y="10249" width="603" height="603"/>
        <path fill="none" stroke="rgb(28,28,28)" stroke-width="100" stroke-linejoin="round" d="M 9550,10299 C 9596,10299 9635,10310 9675,10333 9715,10356 9744,10385 9767,10425 9790,10465 9800,10504 9800,10550 9800,10596 9790,10635 9767,10675 9744,10715 9715,10744 9675,10767 9635,10790 9596,10800 9550,10800 9504,10800 9465,10790 9425,10767 9385,10744 9356,10715 9333,10675 9310,10635 9299,10596 9299,10550 9299,10504 9310,10465 9333,10425 9356,10385 9385,10356 9425,10333 9465,10310 9504,10299 9550,10299 Z"/>
       </g>
      </g>
      <g class="com.sun.star.drawing.CustomShape">
       <g id="id134">
        <rect class="BoundingBox" stroke="none" fill="none" x="12349" y="9349" width="603" height="603"/>
        <path fill="none" stroke="rgb(28,28,28)" stroke-width="100" stroke-linejoin="round" d="M 12650,9400 C 12696,9400 12735,9410 12775,9433 12815,9456 12844,9485 12867,9525 12890,9565 12900,9604 12900,9650 12900,9696 12890,9735 12867,9775 12844,9815 12815,9844 12775,9867 12735,9890 12696,9901 12650,9901 12604,9901 12565,9890 12525,9867 12485,9844 12456,9815 12433,9775 12410,9735 12399,9696 12399,9650 12399,9604 12410,9565 12433,9525 12456,9485 12485,9456 12525,9433 12565,9410 12604,9400 12650,9400 Z"/>
       </g>
      </g>
      <g class="com.sun.star.drawing.CustomShape">
       <g id="id135">
        <rect class="BoundingBox" stroke="none" fill="none" x="11549" y="7349" width="603" height="603"/>
        <path fill="none" stroke="rgb(28,28,28)" stroke-width="100" stroke-linejoin="round" d="M 11850,7399 C 11896,7399 11935,7410 11975,7433 12015,7456 12044,7485 12067,7525 12090,7565 12100,7604 12100,7650 12100,7696 12090,7735 12067,7775 12044,7815 12015,7844 11975,7867 11935,7890 11896,7900 11850,7900 11804,7900 11765,7890 11725,7867 11685,7844 11656,7815 11633,7775 11610,7735 11599,7696 11599,7650 11599,7604 11610,7565 11633,7525 11656,7485 11685,7456 11725,7433 11765,7410 11804,7399 11850,7399 Z"/>
       </g>
      </g>
      <g class="com.sun.star.drawing.CustomShape">
       <g id="id136">
        <rect class="BoundingBox" stroke="none" fill="none" x="7849" y="7149" width="603" height="603"/>
        <path fill="none" stroke="rgb(28,28,28)" stroke-width="100" stroke-linejoin="round" d="M 8150,7199 C 8196,7199 8235,7210 8275,7233 8315,7256 8344,7285 8367,7325 8390,7365 8401,7404 8401,7450 8401,7496 8390,7535 8367,7575 8344,7615 8315,7644 8275,7667 8235,7690 8196,7700 8150,7700 8104,7700 8065,7690 8025,7667 7985,7644 7956,7615 7933,7575 7910,7535 7900,7496 7900,7450 7900,7404 7910,7365 7933,7325 7956,7285 7985,7256 8025,7233 8065,7210 8104,7199 8150,7199 Z"/>
       </g>
      </g>
      <g class="com.sun.star.drawing.CustomShape">
       <g id="id137">
        <rect class="BoundingBox" stroke="none" fill="none" x="14850" y="1650" width="3301" height="3101"/>
        <path fill="none" stroke="rgb(52,101,164)" stroke-width="100" stroke-linejoin="round" d="M 16500,4700 L 14900,4700 14900,1700 18100,1700 18100,4700 16500,4700 Z"/>
       </g>
      </g>
      <g class="com.sun.star.drawing.ClosedBezierShape">
       <g id="id138">
        <rect class="BoundingBox" stroke="none" fill="none" x="14559" y="6905" width="4964" height="4224"/>
        <path fill="none" stroke="rgb(52,101,164)" stroke-width="100" stroke-linejoin="round" d="M 16007,7739 C 16053,8111 15632,8051 15412,8158 15196,8262 14837,8079 14706,8312 14597,8505 14663,8748 14618,8973 14553,9301 14881,9364 15081,9392 15314,9425 15551,9423 15787,9414 16136,9401 16046,9775 16050,9966 16057,10192 16052,10421 16029,10649 15994,10981 16377,10945 16581,11024 16823,11116 17099,11075 17352,11002 17626,10923 17814,10707 18058,10583 18326,10447 18513,10214 18653,9966 18792,9719 18962,9485 18983,9194 19004,8929 19138,8697 19204,8444 19266,8206 19501,8031 19469,7761 19440,7513 19533,7176 19204,7055 18984,6974 18732,6902 18542,7011 18300,7151 18150,7416 17902,7562 17682,7693 17448,7631 17220,7650 16990,7669 16797,7544 16559,7452 16379,7383 15990,7280 16029,7673 L 16028,7739 16007,7739 Z"/>
       </g>
      </g>
      <g class="com.sun.star.drawing.CustomShape">
       <g id="id139">
        <rect class="BoundingBox" stroke="none" fill="none" x="16149" y="2849" width="603" height="603"/>
        <path fill="none" stroke="rgb(52,101,164)" stroke-width="100" stroke-linejoin="round" d="M 16450,2900 C 16496,2900 16535,2910 16575,2933 16615,2956 16644,2985 16667,3025 16690,3065 16700,3104 16700,3150 16700,3196 16690,3235 16667,3275 16644,3315 16615,3344 16575,3367 16535,3390 16496,3401 16450,3401 16404,3401 16365,3390 16325,3367 16285,3344 16256,3315 16233,3275 16210,3235 16199,3196 16199,3150 16199,3104 16210,3065 16233,3025 16256,2985 16285,2956 16325,2933 16365,2910 16404,2900 16450,2900 Z"/>
       </g>
      </g>
      <g class="com.sun.star.drawing.CustomShape">
       <g id="id140">
        <rect class="BoundingBox" stroke="none" fill="none" x="9449" y="7649" width="603" height="603"/>
        <path fill="none" stroke="rgb(28,28,28)" stroke-width="100" stroke-linejoin="round" d="M 9750,7699 C 9796,7699 9835,7710 9875,7733 9915,7756 9944,7785 9967,7825 9990,7865 10001,7904 10001,7950 10001,7996 9990,8035 9967,8075 9944,8115 9915,8144 9875,8167 9835,8190 9796,8201 9750,8201 9704,8201 9665,8190 9625,8167 9585,8144 9556,8115 9533,8075 9510,8035 9500,7996 9500,7950 9500,7904 9510,7865 9533,7825 9556,7785 9585,7756 9625,7733 9665,7710 9704,7699 9750,7699 Z"/>
       </g>
      </g>
      <g class="com.sun.star.drawing.CustomShape">
       <g id="id141">
        <rect class="BoundingBox" stroke="none" fill="none" x="14949" y="9549" width="603" height="603"/>
        <path fill="none" stroke="rgb(28,28,28)" stroke-width="100" stroke-linejoin="round" d="M 15250,9599 C 15296,9599 15335,9610 15375,9633 15415,9656 15444,9685 15467,9725 15490,9765 15500,9804 15500,9850 15500,9896 15490,9935 15467,9975 15444,10015 15415,10044 15375,10067 15335,10090 15296,10100 15250,10100 15204,10100 15165,10090 15125,10067 15085,10044 15056,10015 15033,9975 15010,9935 14999,9896 14999,9850 14999,9804 15010,9765 15033,9725 15056,9685 15085,9656 15125,9633 15165,9610 15204,9599 15250,9599 Z"/>
       </g>
      </g>
      <g class="com.sun.star.drawing.CustomShape">
       <g id="id142">
        <rect class="BoundingBox" stroke="none" fill="none" x="19349" y="9349" width="603" height="603"/>
        <path fill="none" stroke="rgb(28,28,28)" stroke-width="100" stroke-linejoin="round" d="M 19650,9400 C 19696,9400 19735,9410 19775,9433 19815,9456 19844,9485 19867,9525 19890,9565 19900,9604 19900,9650 19900,9696 19890,9735 19867,9775 19844,9815 19815,9844 19775,9867 19735,9890 19696,9901 19650,9901 19604,9901 19565,9890 19525,9867 19485,9844 19456,9815 19433,9775 19410,9735 19399,9696 19399,9650 19399,9604 19410,9565 19433,9525 19456,9485 19485,9456 19525,9433 19565,9410 19604,9400 19650,9400 Z"/>
       </g>
      </g>
      <g class="com.sun.star.drawing.CustomShape">
       <g id="id143">
        <rect class="BoundingBox" stroke="none" fill="none" x="17049" y="6849" width="603" height="603"/>
        <path fill="none" stroke="rgb(28,28,28)" stroke-width="100" stroke-linejoin="round" d="M 17350,6899 C 17396,6899 17435,6910 17475,6933 17515,6956 17544,6985 17567,7025 17590,7065 17601,7104 17601,7150 17601,7196 17590,7235 17567,7275 17544,7315 17515,7344 17475,7367 17435,7390 17396,7400 17350,7400 17304,7400 17265,7390 17225,7367 17185,7344 17156,7315 17133,7275 17110,7235 17100,7196 17100,7150 17100,7104 17110,7065 17133,7025 17156,6985 17185,6956 17225,6933 17265,6910 17304,6899 17350,6899 Z"/>
       </g>
      </g>
      <g class="com.sun.star.drawing.CustomShape">
       <g id="id144">
        <rect class="BoundingBox" stroke="none" fill="none" x="16449" y="8649" width="603" height="603"/>
        <path fill="none" stroke="rgb(52,101,164)" stroke-width="100" stroke-linejoin="round" d="M 16750,8700 C 16796,8700 16835,8710 16875,8733 16915,8756 16944,8785 16967,8825 16990,8865 17001,8904 17001,8950 17001,8996 16990,9035 16967,9075 16944,9115 16915,9144 16875,9167 16835,9190 16796,9201 16750,9201 16704,9201 16665,9190 16625,9167 16585,9144 16556,9115 16533,9075 16510,9035 16500,8996 16500,8950 16500,8904 16510,8865 16533,8825 16556,8785 16585,8756 16625,8733 16665,8710 16704,8700 16750,8700 Z"/>
       </g>
      </g>
     </g>
    </g>
   </g>
  </g>
 </g>
</svg>