<?xml version="1.0" standalone="no"?>
<!DOCTYPE svg PUBLIC "-//W3C//DTD SVG 1.1//EN"
  "http://www.w3.org/Graphics/SVG/1.1/DTD/svg11.dtd">
<!-- Created with matplotlib (http://matplotlib.sourceforge.net/) -->
<svg width="288pt" height="230pt" viewBox="0 0 288 230"
   xmlns="http://www.w3.org/2000/svg"
   xmlns:xlink="http://www.w3.org/1999/xlink"
   version="1.1"
   id="svg1">
<filter id="colorAdd"><feComposite in="SourceGraphic" in2="BackgroundImage" operator="arithmetic" k2="1" k3="1"/></filter>
<g id="figure1">
<g id="patch1">
<path style="fill: #ffffff; stroke: #ffffff; stroke-width: 1.000000; stroke-linejoin: round; stroke-linecap: square;  opacity: 1.000000"  d="M0.000000 230.400000L288.000000 230.400000L288.000000 0.000000
L0.000000 0.000000z"/>
</g>
<g id="axes1">
<g id="patch2">
<path style="fill: #ffffff; opacity: 1.000000"  d="M48.960000 200.448000L276.480000 200.448000L276.480000 16.128000
L48.960000 16.128000z"/>
</g>
<g id="line2d1">
<defs>
  <clipPath id="p7d45bcb963c11562de4cbcc4e1a60e5c">
<rect x="48.960000" y="16.128000" width="227.520000" height="184.320000"/>
  </clipPath>
</defs><path style="fill: none; stroke: #ffa500; stroke-width: 1.500000; stroke-linejoin: round; stroke-linecap: square;  opacity: 1.000000" clip-path="url(#p7d45bcb963c11562de4cbcc4e1a60e5c)" d="M48.960000 194.806569L58.129056 193.820742L66.024000 192.753459
L72.895104 191.604941L78.947136 190.372027L84.316608 189.055522
L89.140032 187.647553L93.508416 186.143283L97.490016 184.538874
L101.130336 182.835145L104.497632 181.016647L107.637408 179.070352
L110.572416 176.991898L113.348160 174.755275L115.987392 172.343084
L118.512864 169.731864L120.924576 166.918481L123.268032 163.840531
L125.543232 160.480983L127.772928 156.784924L129.957120 152.726372
L132.118560 148.231592L134.257248 143.263930L136.395936 137.729227
L138.580128 131.446849L140.809824 124.345709L143.176032 116.047977
L145.792512 106.032939L149.273568 91.740329L153.687456 73.740972
L155.644128 66.706423L157.168512 62.012689L158.419872 58.829557
L159.489216 56.669945L160.422048 55.251949L161.241120 54.387908
L161.969184 53.930362L162.628992 53.773151L163.266048 53.855242
L163.903104 54.166350L164.608416 54.774350L165.381984 55.751554
L166.269312 57.255536L167.270400 59.412235L168.430752 62.463938
L169.818624 66.782353L171.502272 72.791163L173.800224 81.889262
L182.013696 115.126114L184.539168 124.040933L186.882624 131.515693
L189.135072 137.976905L191.364768 143.708116L193.571712 148.778103
L195.778656 153.303242L198.008352 157.378599L200.283552 161.080037
L202.604256 164.436001L204.993216 167.502853L207.450432 170.299492
L210.021408 172.888708L212.706144 175.275183L215.527392 177.483188
L218.507904 179.530881L221.670432 181.431813L225.060480 183.207275
L228.700800 184.860625L232.659648 186.411201L236.982528 187.861676
L241.737696 189.218461L246.993408 190.483257L252.863424 191.663590
L259.484256 192.763741L267.015168 193.784809L275.683680 194.729864
L276.457248 194.804399L276.457248 194.804399"/>
</g>
<g id="line2d2">
<path style="fill: none; stroke: #800080; stroke-width: 1.500000; stroke-linejoin: round; stroke-linecap: square;  opacity: 1.000000" clip-path="url(#p7d45bcb963c11562de4cbcc4e1a60e5c)" d="M48.960000 197.163518L57.742272 196.347977L65.159424 195.442076
L71.552736 194.442096L77.126976 193.349820L82.064160 192.159877
L86.478048 190.871385L90.482400 189.473661L94.145472 187.961056
L97.512768 186.331680L100.629792 184.579306L103.564800 182.675181
L106.340544 180.608207L108.979776 178.363334L111.505248 175.920135
L113.916960 173.277639L116.260416 170.379647L118.558368 167.179501
L120.810816 163.654493L123.017760 159.783308L125.201952 155.500064
L127.386144 150.721554L129.570336 145.403196L131.777280 139.439681
L134.052480 132.636017L136.395936 124.911593L138.875904 115.953891
L141.628896 105.142870L145.041696 90.770182L151.753536 62.289812
L153.869472 54.413777L155.575872 48.875920L157.009248 44.936213
L158.260608 42.114344L159.352704 40.170827L160.308288 38.893924
L161.172864 38.093967L161.946432 37.671745L162.651744 37.531697
L163.334304 37.619632L164.039616 37.940776L164.790432 38.537225
L165.609504 39.481687L166.542336 40.919385L167.588928 42.970329
L168.772032 45.808984L170.114400 49.634254L171.684288 54.811504
L173.572704 61.843471L176.075424 72.091477L186.313824 115.006941
L188.953056 124.596924L191.410272 132.707431L193.776480 139.762146
L196.074432 145.925869L198.349632 151.399284L200.602080 156.247101
L202.854528 160.576282L205.129728 164.473377L207.427680 167.974442
L209.771136 171.144243L212.182848 174.033010L214.662816 176.656553
L217.233792 179.052012L219.895776 181.230104L222.694272 183.233778
L225.652032 185.078120L228.814560 186.785739L232.204608 188.360264
L235.867680 189.812962L239.849280 191.149923L244.240416 192.385787
L249.109344 193.520708L254.569824 194.560519L260.758368 195.507842
L267.879744 196.367412L276.184224 197.139685L276.457248 197.161693
L276.457248 197.161693"/>
</g>
<g id="line2d3">
<path style="fill: none; stroke: #00bfff; stroke-width: 1.500000; stroke-linejoin: round; stroke-linecap: square;  opacity: 1.000000" clip-path="url(#p7d45bcb963c11562de4cbcc4e1a60e5c)" d="M48.960000 199.638172L59.107392 199.165712L66.888576 198.588780
L73.168128 197.907044L78.423840 197.118723L82.951488 196.219192
L86.910336 195.210805L90.459648 194.080782L93.667680 192.829635
L96.625440 191.439488L99.378432 189.900276L101.949408 188.209773
L104.406624 186.326775L106.750080 184.249274L109.002528 181.955362
L111.209472 179.386869L113.370912 176.524283L115.486848 173.349912
L117.602784 169.767104L119.695968 165.780693L121.811904 161.263617
L123.950592 156.160737L126.112032 150.418851L128.341728 143.849651
L130.639680 136.374417L133.074144 127.677047L135.690624 117.480290
L138.671136 104.929418L142.607232 87.300577L148.704768 59.991688
L151.207488 49.863127L153.186912 42.728989L154.870560 37.445378
L156.349440 33.502151L157.646304 30.642354L158.806656 28.593803
L159.830496 27.207172L160.763328 26.299184L161.605152 25.776989
L162.378720 25.548850L163.129536 25.559238L163.880352 25.797938
L164.653920 26.281341L165.495744 27.078113L166.428576 28.284376
L167.452416 29.988491L168.590016 32.329409L169.864128 35.478166
L171.297504 39.632673L172.935648 45.085846L174.869568 52.338502
L177.235776 62.130660L180.580320 77.017398L187.860960 109.630300
L190.886976 122.016709L193.548960 132.002419L196.028928 140.460550
L198.395136 147.751691L200.670336 154.055780L202.900032 159.588987
L205.084224 164.426575L207.245664 168.686829L209.407104 172.466057
L211.591296 175.841095L213.798240 178.843115L216.027936 181.503922
L218.303136 183.877163L220.646592 186.003898L223.081056 187.915173
L225.629280 189.634242L228.336768 191.190525L231.203520 192.581327
L234.297792 193.834486L237.687840 194.964079L241.419168 195.969637
L245.605536 196.863427L250.383456 197.650545L255.934944 198.333249
L262.555776 198.915583L270.700992 199.399430L276.457248 199.637362
L276.457248 199.637362"/>
</g>
<g id="line2d4">
<path style="fill: none; stroke: #000000; stroke-width: 1.500000; stroke-linejoin: round; stroke-linecap: square;  opacity: 1.000000" clip-path="url(#p7d45bcb963c11562de4cbcc4e1a60e5c)" d="M48.960000 200.447315L75.352320 200.332533L82.450944 200.083550
L87.183360 199.705086L90.846432 199.196447L93.895200 198.553958
L96.534432 197.775845L98.923392 196.841212L101.107584 195.748794
L103.155264 194.476109L105.111936 192.995768L107.000352 191.284529
L108.843264 189.310547L110.663424 187.030584L112.483584 184.387006
L114.303744 181.345226L116.146656 177.826041L118.035072 173.728929
L119.968992 168.988372L121.971168 163.475105L124.041600 157.110185
L126.225792 149.662160L128.569248 140.855777L131.117472 130.387085
L134.006976 117.542320L137.670048 100.172131L146.497824 57.876864
L149.068800 46.898103L151.207488 38.705175L153.050400 32.490146
L154.688544 27.719486L156.144672 24.134250L157.464288 21.455290
L158.647392 19.537022L159.716736 18.209991L160.672320 17.358414
L161.559648 16.854316L162.378720 16.636077L163.175040 16.652160
L163.971360 16.893234L164.813184 17.391733L165.700512 18.186025
L166.678848 19.377298L167.748192 21.050309L168.931296 23.339759
L170.228160 26.357448L171.661536 30.277466L173.254176 35.300159
L175.051584 41.727693L177.122016 49.990436L179.601984 60.853251
L182.855520 76.183411L192.866400 124.030397L195.755904 136.384577
L198.326880 146.424827L200.693088 154.786976L202.900032 161.794104
L205.015968 167.790156L207.040896 172.879507L209.020320 177.265143
L210.954240 181.017858L212.842656 184.208914L214.731072 186.969072
L216.596736 189.310547L218.485152 191.329320L220.396320 193.052194
L222.375744 194.538368L224.423424 195.799458L226.607616 196.881468
L228.951072 197.791352L231.522048 198.548221L234.434304 199.168495
L237.824352 199.656856L241.987968 200.022760L247.516704 200.270935
L256.048704 200.407204L276.457248 200.447311L276.457248 200.447311"/>
</g>
<g id="matplotlib.axis1">
<g id="xtick1">
<g id="line2d5">
<defs><path id="m30e32995789d870ad79a2e54c91cf9c6" d="M0.000000 0.000000L0.000000 -4.000000"/></defs>
<g ><use style="fill: none; stroke: #000000; stroke-width: 0.500000; stroke-linejoin: round; stroke-linecap: butt;  opacity: 1.000000" xlink:href="#m30e32995789d870ad79a2e54c91cf9c6" x="71.712000" y="200.448000"/>
</g></g>
<g id="line2d6">
<defs><path id="m9281cae24120827b11d5ea8a7ad3e96b" d="M0.000000 0.000000L0.000000 4.000000"/></defs>
<g ><use style="fill: none; stroke: #000000; stroke-width: 0.500000; stroke-linejoin: round; stroke-linecap: butt;  opacity: 1.000000" xlink:href="#m9281cae24120827b11d5ea8a7ad3e96b" x="71.712000" y="16.128000"/>
</g></g>
<g id="text1">
<defs>
<path id="c_6a8d56c819c37117ab4cf023bec22a5a" d="M10.593750 -35.500000l62.593750 0.000000l0.000000 8.296875l-62.593750 0.000000z"/>
<path id="c_a0416418d96557a09b8c1332d34883ba" d="M37.796875 -64.312500l-24.906250 38.921875l24.906250 0.000000zM35.203125 -72.906250l12.406250 0.000000l0.000000 47.515625l10.406250 0.000000l0.000000 8.203125l-10.406250 0.000000l0.000000 17.187500l-9.812500 0.000000l0.000000 -17.187500l-32.906250 0.000000l0.000000 -9.515625z"/>
</defs>
<g style="fill: #000000; opacity: 1.000000" transform="translate(63.829187,213.198000)scale(0.120000)">
<use xlink:href="#c_6a8d56c819c37117ab4cf023bec22a5a"/>
<use xlink:href="#c_a0416418d96557a09b8c1332d34883ba" x="83.789062"/>
</g>
</g>
</g>
<g id="xtick2">
<g id="line2d7">
<g ><use style="fill: none; stroke: #000000; stroke-width: 0.500000; stroke-linejoin: round; stroke-linecap: butt;  opacity: 1.000000" xlink:href="#m30e32995789d870ad79a2e54c91cf9c6" x="117.216000" y="200.448000"/>
</g></g>
<g id="line2d8">
<g ><use style="fill: none; stroke: #000000; stroke-width: 0.500000; stroke-linejoin: round; stroke-linecap: butt;  opacity: 1.000000" xlink:href="#m9281cae24120827b11d5ea8a7ad3e96b" x="117.216000" y="16.128000"/>
</g></g>
<g id="text2">
<defs>
<path id="c_ed3f3ed3ebfbd18bcb9c012009a68ad1" d="M19.187500 -8.296875l34.421875 0.000000l0.000000 8.296875l-46.281250 0.000000l0.000000 -8.296875q5.609375 -5.812500 15.296875 -15.593750q9.703125 -9.796875 12.187500 -12.640625q4.734375 -5.312500 6.609375 -9.000000q1.890625 -3.687500 1.890625 -7.250000q0.000000 -5.812500 -4.078125 -9.468750q-4.078125 -3.671875 -10.625000 -3.671875q-4.640625 0.000000 -9.796875 1.609375q-5.140625 1.609375 -11.000000 4.890625l0.000000 -9.968750q5.953125 -2.390625 11.125000 -3.609375q5.187500 -1.218750 9.484375 -1.218750q11.328125 0.000000 18.062500 5.671875q6.734375 5.656250 6.734375 15.125000q0.000000 4.500000 -1.687500 8.531250q-1.671875 4.015625 -6.125000 9.484375q-1.218750 1.421875 -7.765625 8.187500q-6.531250 6.765625 -18.453125 18.921875"/>
</defs>
<g style="fill: #000000; opacity: 1.000000" transform="translate(109.598812,213.354250)scale(0.120000)">
<use xlink:href="#c_6a8d56c819c37117ab4cf023bec22a5a"/>
<use xlink:href="#c_ed3f3ed3ebfbd18bcb9c012009a68ad1" x="83.789062"/>
</g>
</g>
</g>
<g id="xtick3">
<g id="line2d9">
<g ><use style="fill: none; stroke: #000000; stroke-width: 0.500000; stroke-linejoin: round; stroke-linecap: butt;  opacity: 1.000000" xlink:href="#m30e32995789d870ad79a2e54c91cf9c6" x="162.720000" y="200.448000"/>
</g></g>
<g id="line2d10">
<g ><use style="fill: none; stroke: #000000; stroke-width: 0.500000; stroke-linejoin: round; stroke-linecap: butt;  opacity: 1.000000" xlink:href="#m9281cae24120827b11d5ea8a7ad3e96b" x="162.720000" y="16.128000"/>
</g></g>
<g id="text3">
<defs>
<path id="c_7a2040fe3b94fcd41d0a72c84e93b115" d="M31.781250 -66.406250q-7.609375 0.000000 -11.453125 7.500000q-3.828125 7.484375 -3.828125 22.531250q0.000000 14.984375 3.828125 22.484375q3.843750 7.500000 11.453125 7.500000q7.671875 0.000000 11.500000 -7.500000q3.843750 -7.500000 3.843750 -22.484375q0.000000 -15.046875 -3.843750 -22.531250q-3.828125 -7.500000 -11.500000 -7.500000M31.781250 -74.218750q12.265625 0.000000 18.734375 9.703125q6.468750 9.687500 6.468750 28.140625q0.000000 18.406250 -6.468750 28.109375q-6.468750 9.687500 -18.734375 9.687500q-12.250000 0.000000 -18.718750 -9.687500q-6.468750 -9.703125 -6.468750 -28.109375q0.000000 -18.453125 6.468750 -28.140625q6.468750 -9.703125 18.718750 -9.703125"/>
</defs>
<g style="fill: #000000; opacity: 1.000000" transform="translate(159.696562,213.354250)scale(0.120000)">
<use xlink:href="#c_7a2040fe3b94fcd41d0a72c84e93b115"/>
</g>
</g>
</g>
<g id="xtick4">
<g id="line2d11">
<g ><use style="fill: none; stroke: #000000; stroke-width: 0.500000; stroke-linejoin: round; stroke-linecap: butt;  opacity: 1.000000" xlink:href="#m30e32995789d870ad79a2e54c91cf9c6" x="208.224000" y="200.448000"/>
</g></g>
<g id="line2d12">
<g ><use style="fill: none; stroke: #000000; stroke-width: 0.500000; stroke-linejoin: round; stroke-linecap: butt;  opacity: 1.000000" xlink:href="#m9281cae24120827b11d5ea8a7ad3e96b" x="208.224000" y="16.128000"/>
</g></g>
<g id="text4">
<g style="fill: #000000; opacity: 1.000000" transform="translate(205.442750,213.354250)scale(0.120000)">
<use xlink:href="#c_ed3f3ed3ebfbd18bcb9c012009a68ad1"/>
</g>
</g>
</g>
<g id="xtick5">
<g id="line2d13">
<g ><use style="fill: none; stroke: #000000; stroke-width: 0.500000; stroke-linejoin: round; stroke-linecap: butt;  opacity: 1.000000" xlink:href="#m30e32995789d870ad79a2e54c91cf9c6" x="253.728000" y="200.448000"/>
</g></g>
<g id="line2d14">
<g ><use style="fill: none; stroke: #000000; stroke-width: 0.500000; stroke-linejoin: round; stroke-linecap: butt;  opacity: 1.000000" xlink:href="#m9281cae24120827b11d5ea8a7ad3e96b" x="253.728000" y="16.128000"/>
</g></g>
<g id="text5">
<g style="fill: #000000; opacity: 1.000000" transform="translate(250.540500,213.198000)scale(0.120000)">
<use xlink:href="#c_a0416418d96557a09b8c1332d34883ba"/>
</g>
</g>
</g>
<g id="text6">
<defs>
<path id="c_801fe2e877fad46da27c898b407b3b54" d="M54.890625 -54.687500l-19.781250 26.609375l20.796875 28.078125l-10.593750 0.000000l-15.921875 -21.484375l-15.906250 21.484375l-10.609375 0.000000l21.250000 -28.609375l-19.437500 -26.078125l10.593750 0.000000l14.500000 19.484375l14.500000 -19.484375z"/>
</defs>
<g style="fill: #000000; opacity: 1.000000" transform="translate(159.540312,225.088625)scale(0.120000)">
<use xlink:href="#c_801fe2e877fad46da27c898b407b3b54"/>
</g>
</g>
</g>
<g id="matplotlib.axis2">
<g id="ytick1">
<g id="line2d15">
<defs><path id="m3400efa6b1638b3fea9e19e898273957" d="M0.000000 0.000000L4.000000 0.000000"/></defs>
<g ><use style="fill: none; stroke: #000000; stroke-width: 0.500000; stroke-linejoin: round; stroke-linecap: butt;  opacity: 1.000000" xlink:href="#m3400efa6b1638b3fea9e19e898273957" x="48.960000" y="200.448000"/>
</g></g>
<g id="line2d16">
<defs><path id="m20b58b2501143cb5e0a5e8f1ef6f1643" d="M0.000000 0.000000L-4.000000 0.000000"/></defs>
<g ><use style="fill: none; stroke: #000000; stroke-width: 0.500000; stroke-linejoin: round; stroke-linecap: butt;  opacity: 1.000000" xlink:href="#m20b58b2501143cb5e0a5e8f1ef6f1643" x="276.480000" y="200.448000"/>
</g></g>
<g id="text7">
<defs>
<path id="c_ed3e21196fb739f392806f09ca0594ef" d="M10.687500 -12.406250l10.312500 0.000000l0.000000 12.406250l-10.312500 0.000000z"/>
</defs>
<g style="fill: #000000; opacity: 1.000000" transform="translate(19.819375,204.815188)scale(0.120000)">
<use xlink:href="#c_7a2040fe3b94fcd41d0a72c84e93b115"/>
<use xlink:href="#c_ed3e21196fb739f392806f09ca0594ef" x="63.623047"/>
<use xlink:href="#c_7a2040fe3b94fcd41d0a72c84e93b115" x="95.410156"/>
<use xlink:href="#c_7a2040fe3b94fcd41d0a72c84e93b115" x="159.033203"/>
</g>
</g>
</g>
<g id="ytick2">
<g id="line2d17">
<g ><use style="fill: none; stroke: #000000; stroke-width: 0.500000; stroke-linejoin: round; stroke-linecap: butt;  opacity: 1.000000" xlink:href="#m3400efa6b1638b3fea9e19e898273957" x="48.960000" y="177.408000"/>
</g></g>
<g id="line2d18">
<g ><use style="fill: none; stroke: #000000; stroke-width: 0.500000; stroke-linejoin: round; stroke-linecap: butt;  opacity: 1.000000" xlink:href="#m20b58b2501143cb5e0a5e8f1ef6f1643" x="276.480000" y="177.408000"/>
</g></g>
<g id="text8">
<defs>
<path id="c_1260a2df50f305f3db244e29828f968e" d="M10.796875 -72.906250l38.718750 0.000000l0.000000 8.312500l-29.687500 0.000000l0.000000 17.859375q2.140625 -0.734375 4.281250 -1.093750q2.156250 -0.359375 4.312500 -0.359375q12.203125 0.000000 19.328125 6.687500q7.140625 6.687500 7.140625 18.109375q0.000000 11.765625 -7.328125 18.296875q-7.328125 6.515625 -20.656250 6.515625q-4.593750 0.000000 -9.359375 -0.781250q-4.750000 -0.781250 -9.828125 -2.343750l0.000000 -9.921875q4.390625 2.390625 9.078125 3.562500q4.687500 1.171875 9.906250 1.171875q8.453125 0.000000 13.375000 -4.437500q4.937500 -4.437500 4.937500 -12.062500q0.000000 -7.609375 -4.937500 -12.046875q-4.921875 -4.453125 -13.375000 -4.453125q-3.953125 0.000000 -7.890625 0.875000q-3.921875 0.875000 -8.015625 2.734375z"/>
</defs>
<g style="fill: #000000; opacity: 1.000000" transform="translate(20.069375,181.775188)scale(0.120000)">
<use xlink:href="#c_7a2040fe3b94fcd41d0a72c84e93b115"/>
<use xlink:href="#c_ed3e21196fb739f392806f09ca0594ef" x="63.623047"/>
<use xlink:href="#c_7a2040fe3b94fcd41d0a72c84e93b115" x="95.410156"/>
<use xlink:href="#c_1260a2df50f305f3db244e29828f968e" x="159.033203"/>
</g>
</g>
</g>
<g id="ytick3">
<g id="line2d19">
<g ><use style="fill: none; stroke: #000000; stroke-width: 0.500000; stroke-linejoin: round; stroke-linecap: butt;  opacity: 1.000000" xlink:href="#m3400efa6b1638b3fea9e19e898273957" x="48.960000" y="154.368000"/>
</g></g>
<g id="line2d20">
<g ><use style="fill: none; stroke: #000000; stroke-width: 0.500000; stroke-linejoin: round; stroke-linecap: butt;  opacity: 1.000000" xlink:href="#m20b58b2501143cb5e0a5e8f1ef6f1643" x="276.480000" y="154.368000"/>
</g></g>
<g id="text9">
<defs>
<path id="c_42baa63129a918535c52adb20d687ea7" d="M12.406250 -8.296875l16.109375 0.000000l0.000000 -55.625000l-17.531250 3.515625l0.000000 -8.984375l17.437500 -3.515625l9.859375 0.000000l0.000000 64.609375l16.109375 0.000000l0.000000 8.296875l-41.984375 0.000000z"/>
</defs>
<g style="fill: #000000; opacity: 1.000000" transform="translate(19.819375,158.735187)scale(0.120000)">
<use xlink:href="#c_7a2040fe3b94fcd41d0a72c84e93b115"/>
<use xlink:href="#c_ed3e21196fb739f392806f09ca0594ef" x="63.623047"/>
<use xlink:href="#c_42baa63129a918535c52adb20d687ea7" x="95.410156"/>
<use xlink:href="#c_7a2040fe3b94fcd41d0a72c84e93b115" x="159.033203"/>
</g>
</g>
</g>
<g id="ytick4">
<g id="line2d21">
<g ><use style="fill: none; stroke: #000000; stroke-width: 0.500000; stroke-linejoin: round; stroke-linecap: butt;  opacity: 1.000000" xlink:href="#m3400efa6b1638b3fea9e19e898273957" x="48.960000" y="131.328000"/>
</g></g>
<g id="line2d22">
<g ><use style="fill: none; stroke: #000000; stroke-width: 0.500000; stroke-linejoin: round; stroke-linecap: butt;  opacity: 1.000000" xlink:href="#m20b58b2501143cb5e0a5e8f1ef6f1643" x="276.480000" y="131.328000"/>
</g></g>
<g id="text10">
<g style="fill: #000000; opacity: 1.000000" transform="translate(20.069375,135.695187)scale(0.120000)">
<use xlink:href="#c_7a2040fe3b94fcd41d0a72c84e93b115"/>
<use xlink:href="#c_ed3e21196fb739f392806f09ca0594ef" x="63.623047"/>
<use xlink:href="#c_42baa63129a918535c52adb20d687ea7" x="95.410156"/>
<use xlink:href="#c_1260a2df50f305f3db244e29828f968e" x="159.033203"/>
</g>
</g>
</g>
<g id="ytick5">
<g id="line2d23">
<g ><use style="fill: none; stroke: #000000; stroke-width: 0.500000; stroke-linejoin: round; stroke-linecap: butt;  opacity: 1.000000" xlink:href="#m3400efa6b1638b3fea9e19e898273957" x="48.960000" y="108.288000"/>
</g></g>
<g id="line2d24">
<g ><use style="fill: none; stroke: #000000; stroke-width: 0.500000; stroke-linejoin: round; stroke-linecap: butt;  opacity: 1.000000" xlink:href="#m20b58b2501143cb5e0a5e8f1ef6f1643" x="276.480000" y="108.288000"/>
</g></g>
<g id="text11">
<g style="fill: #000000; opacity: 1.000000" transform="translate(19.819375,112.655187)scale(0.120000)">
<use xlink:href="#c_7a2040fe3b94fcd41d0a72c84e93b115"/>
<use xlink:href="#c_ed3e21196fb739f392806f09ca0594ef" x="63.623047"/>
<use xlink:href="#c_ed3f3ed3ebfbd18bcb9c012009a68ad1" x="95.410156"/>
<use xlink:href="#c_7a2040fe3b94fcd41d0a72c84e93b115" x="159.033203"/>
</g>
</g>
</g>
<g id="ytick6">
<g id="line2d25">
<g ><use style="fill: none; stroke: #000000; stroke-width: 0.500000; stroke-linejoin: round; stroke-linecap: butt;  opacity: 1.000000" xlink:href="#m3400efa6b1638b3fea9e19e898273957" x="48.960000" y="85.248000"/>
</g></g>
<g id="line2d26">
<g ><use style="fill: none; stroke: #000000; stroke-width: 0.500000; stroke-linejoin: round; stroke-linecap: butt;  opacity: 1.000000" xlink:href="#m20b58b2501143cb5e0a5e8f1ef6f1643" x="276.480000" y="85.248000"/>
</g></g>
<g id="text12">
<g style="fill: #000000; opacity: 1.000000" transform="translate(20.069375,89.615187)scale(0.120000)">
<use xlink:href="#c_7a2040fe3b94fcd41d0a72c84e93b115"/>
<use xlink:href="#c_ed3e21196fb739f392806f09ca0594ef" x="63.623047"/>
<use xlink:href="#c_ed3f3ed3ebfbd18bcb9c012009a68ad1" x="95.410156"/>
<use xlink:href="#c_1260a2df50f305f3db244e29828f968e" x="159.033203"/>
</g>
</g>
</g>
<g id="ytick7">
<g id="line2d27">
<g ><use style="fill: none; stroke: #000000; stroke-width: 0.500000; stroke-linejoin: round; stroke-linecap: butt;  opacity: 1.000000" xlink:href="#m3400efa6b1638b3fea9e19e898273957" x="48.960000" y="62.208000"/>
</g></g>
<g id="line2d28">
<g ><use style="fill: none; stroke: #000000; stroke-width: 0.500000; stroke-linejoin: round; stroke-linecap: butt;  opacity: 1.000000" xlink:href="#m20b58b2501143cb5e0a5e8f1ef6f1643" x="276.480000" y="62.208000"/>
</g></g>
<g id="text13">
<defs>
<path id="c_3dcfa38a02242cb63ec6726c6e70be7a" d="M40.578125 -39.312500q7.078125 1.515625 11.046875 6.312500q3.984375 4.781250 3.984375 11.812500q0.000000 10.781250 -7.421875 16.703125q-7.421875 5.906250 -21.093750 5.906250q-4.578125 0.000000 -9.437500 -0.906250q-4.859375 -0.906250 -10.031250 -2.718750l0.000000 -9.515625q4.093750 2.390625 8.968750 3.609375q4.890625 1.218750 10.218750 1.218750q9.265625 0.000000 14.125000 -3.656250q4.859375 -3.656250 4.859375 -10.640625q0.000000 -6.453125 -4.515625 -10.078125q-4.515625 -3.640625 -12.562500 -3.640625l-8.500000 0.000000l0.000000 -8.109375l8.890625 0.000000q7.265625 0.000000 11.125000 -2.906250q3.859375 -2.906250 3.859375 -8.375000q0.000000 -5.609375 -3.984375 -8.609375q-3.968750 -3.015625 -11.390625 -3.015625q-4.062500 0.000000 -8.703125 0.890625q-4.640625 0.875000 -10.203125 2.718750l0.000000 -8.781250q5.625000 -1.562500 10.531250 -2.343750q4.906250 -0.781250 9.250000 -0.781250q11.234375 0.000000 17.765625 5.109375q6.546875 5.093750 6.546875 13.781250q0.000000 6.062500 -3.468750 10.234375q-3.468750 4.171875 -9.859375 5.781250"/>
</defs>
<g style="fill: #000000; opacity: 1.000000" transform="translate(19.819375,66.575187)scale(0.120000)">
<use xlink:href="#c_7a2040fe3b94fcd41d0a72c84e93b115"/>
<use xlink:href="#c_ed3e21196fb739f392806f09ca0594ef" x="63.623047"/>
<use xlink:href="#c_3dcfa38a02242cb63ec6726c6e70be7a" x="95.410156"/>
<use xlink:href="#c_7a2040fe3b94fcd41d0a72c84e93b115" x="159.033203"/>
</g>
</g>
</g>
<g id="ytick8">
<g id="line2d29">
<g ><use style="fill: none; stroke: #000000; stroke-width: 0.500000; stroke-linejoin: round; stroke-linecap: butt;  opacity: 1.000000" xlink:href="#m3400efa6b1638b3fea9e19e898273957" x="48.960000" y="39.168000"/>
</g></g>
<g id="line2d30">
<g ><use style="fill: none; stroke: #000000; stroke-width: 0.500000; stroke-linejoin: round; stroke-linecap: butt;  opacity: 1.000000" xlink:href="#m20b58b2501143cb5e0a5e8f1ef6f1643" x="276.480000" y="39.168000"/>
</g></g>
<g id="text14">
<g style="fill: #000000; opacity: 1.000000" transform="translate(20.069375,43.535187)scale(0.120000)">
<use xlink:href="#c_7a2040fe3b94fcd41d0a72c84e93b115"/>
<use xlink:href="#c_ed3e21196fb739f392806f09ca0594ef" x="63.623047"/>
<use xlink:href="#c_3dcfa38a02242cb63ec6726c6e70be7a" x="95.410156"/>
<use xlink:href="#c_1260a2df50f305f3db244e29828f968e" x="159.033203"/>
</g>
</g>
</g>
<g id="ytick9">
<g id="line2d31">
<g ><use style="fill: none; stroke: #000000; stroke-width: 0.500000; stroke-linejoin: round; stroke-linecap: butt;  opacity: 1.000000" xlink:href="#m3400efa6b1638b3fea9e19e898273957" x="48.960000" y="16.128000"/>
</g></g>
<g id="line2d32">
<g ><use style="fill: none; stroke: #000000; stroke-width: 0.500000; stroke-linejoin: round; stroke-linecap: butt;  opacity: 1.000000" xlink:href="#m20b58b2501143cb5e0a5e8f1ef6f1643" x="276.480000" y="16.128000"/>
</g></g>
<g id="text15">
<g style="fill: #000000; opacity: 1.000000" transform="translate(19.819375,20.495187)scale(0.120000)">
<use xlink:href="#c_7a2040fe3b94fcd41d0a72c84e93b115"/>
<use xlink:href="#c_ed3e21196fb739f392806f09ca0594ef" x="63.623047"/>
<use xlink:href="#c_a0416418d96557a09b8c1332d34883ba" x="95.410156"/>
<use xlink:href="#c_7a2040fe3b94fcd41d0a72c84e93b115" x="159.033203"/>
</g>
</g>
</g>
<g id="text16">
<defs>
<path id="c_518d586bee075aa0153eaebfcb5ab11f" d="M19.671875 -64.796875l0.000000 27.390625l12.406250 0.000000q6.890625 0.000000 10.640625 -3.562500q3.765625 -3.562500 3.765625 -10.156250q0.000000 -6.546875 -3.765625 -10.109375q-3.750000 -3.562500 -10.640625 -3.562500zM9.812500 -72.906250l22.265625 0.000000q12.265625 0.000000 18.531250 5.546875q6.281250 5.546875 6.281250 16.234375q0.000000 10.796875 -6.281250 16.312500q-6.265625 5.515625 -18.531250 5.515625l-12.406250 0.000000l0.000000 29.296875l-9.859375 0.000000z"/>
<path id="c_7efa9804c2b4c09a4b614b91fdebee3d" d="M31.000000 -75.875000q-6.531250 11.218750 -9.718750 22.218750q-3.171875 10.984375 -3.171875 22.265625q0.000000 11.265625 3.203125 22.328125q3.203125 11.062500 9.687500 22.250000l-7.812500 0.000000q-7.312500 -11.484375 -10.953125 -22.562500q-3.640625 -11.078125 -3.640625 -22.015625q0.000000 -10.890625 3.609375 -21.921875q3.625000 -11.046875 10.984375 -22.562500z"/>
<path id="c_e96974be642f6eac0427d72f9cec6c19" d="M8.015625 -75.875000l7.812500 0.000000q7.312500 11.515625 10.953125 22.562500q3.640625 11.031250 3.640625 21.921875q0.000000 10.937500 -3.640625 22.015625q-3.640625 11.078125 -10.953125 22.562500l-7.812500 0.000000q6.484375 -11.187500 9.687500 -22.250000q3.203125 -11.062500 3.203125 -22.328125q0.000000 -11.281250 -3.203125 -22.265625q-3.203125 -11.000000 -9.687500 -22.218750"/>
</defs>
<g style="fill: #000000; opacity: 1.000000" transform="translate(14.819375,117.467687)rotate(-90.0)scale(0.120000)">
<use xlink:href="#c_518d586bee075aa0153eaebfcb5ab11f"/>
<use xlink:href="#c_7efa9804c2b4c09a4b614b91fdebee3d" x="60.302734"/>
<use xlink:href="#c_801fe2e877fad46da27c898b407b3b54" x="99.316406"/>
<use xlink:href="#c_e96974be642f6eac0427d72f9cec6c19" x="158.496094"/>
</g>
</g>
</g>
<g id="patch3">
<path style="fill: none; stroke: #000000; stroke-width: 1.000000; stroke-linejoin: round; stroke-linecap: square;  opacity: 1.000000"  d="M48.960000 16.128000L276.480000 16.128000"/>
</g>
<g id="patch4">
<path style="fill: none; stroke: #000000; stroke-width: 1.000000; stroke-linejoin: round; stroke-linecap: square;  opacity: 1.000000"  d="M276.480000 200.448000L276.480000 16.128000"/>
</g>
<g id="patch5">
<path style="fill: none; stroke: #000000; stroke-width: 1.000000; stroke-linejoin: round; stroke-linecap: square;  opacity: 1.000000"  d="M48.960000 200.448000L276.480000 200.448000"/>
</g>
<g id="patch6">
<path style="fill: none; stroke: #000000; stroke-width: 1.000000; stroke-linejoin: round; stroke-linecap: square;  opacity: 1.000000"  d="M48.960000 200.448000L48.960000 16.128000"/>
</g>
<g id="legend1">
<g id="line2d33">
<path style="fill: none; stroke: #ffa500; stroke-width: 1.500000; stroke-linejoin: round; stroke-linecap: square;  opacity: 1.000000"  d="M196.520000 34.688625L206.760000 34.688625"/>
</g>
<g id="line2d34">
</g>
<g id="text17">
<defs>
<path id="c_32edf484d6455aaf5dbeeedbc2acd75b" d="M6.296875 -0.000000q-1.218750 0.000000 -1.218750 -1.312500l8.546875 -33.984375q0.390625 -1.718750 0.484375 -2.687500q0.000000 -1.609375 -6.484375 -1.609375q-1.031250 0.000000 -1.031250 -1.328125q0.046875 -0.234375 0.218750 -0.875000q0.171875 -0.640625 0.437500 -0.968750q0.265625 -0.343750 0.765625 -0.343750l13.468750 -1.078125q1.218750 0.000000 1.218750 1.265625l-9.812500 39.203125q7.906250 -2.625000 14.562500 -8.234375q6.671875 -5.625000 11.281250 -13.234375q4.625000 -7.625000 6.671875 -15.828125q0.390625 -1.421875 1.562500 -2.296875q1.171875 -0.875000 2.640625 -0.875000q1.312500 0.000000 2.140625 0.781250q0.843750 0.781250 0.843750 2.093750q0.000000 1.609375 -1.328125 4.906250q-1.312500 3.296875 -2.578125 5.890625q-3.953125 7.859375 -10.500000 14.406250q-4.109375 4.093750 -8.828125 7.265625q-4.703125 3.171875 -9.828125 5.406250q-5.125000 2.218750 -10.843750 3.437500z"/>
<path id="c_7bbc93c01755cdeb977d08bdfb9ce616" d="M7.515625 -13.281250q-0.828125 0.000000 -1.375000 -0.625000q-0.531250 -0.640625 -0.531250 -1.375000q0.000000 -0.828125 0.531250 -1.406250q0.546875 -0.593750 1.375000 -0.593750l62.796875 0.000000q0.734375 0.000000 1.265625 0.593750q0.546875 0.578125 0.546875 1.406250q0.000000 0.734375 -0.546875 1.375000q-0.531250 0.625000 -1.265625 0.625000zM7.515625 -32.718750q-0.828125 0.000000 -1.375000 -0.578125q-0.531250 -0.593750 -0.531250 -1.421875q0.000000 -0.734375 0.531250 -1.359375q0.546875 -0.640625 1.375000 -0.640625l62.796875 0.000000q0.734375 0.000000 1.265625 0.640625q0.546875 0.625000 0.546875 1.359375q0.000000 0.828125 -0.546875 1.421875q-0.531250 0.578125 -1.265625 0.578125z"/>
<path id="c_1a459ac34855d27ec37ccb0e66298d36" d="M9.281250 -0.000000l0.000000 -3.515625q12.500000 0.000000 12.500000 -3.171875l0.000000 -52.500000q-5.171875 2.500000 -13.093750 2.500000l0.000000 -3.515625q12.265625 0.000000 18.515625 -6.406250l1.406250 0.000000q0.343750 0.000000 0.656250 0.281250q0.328125 0.265625 0.328125 0.609375l0.000000 59.031250q0.000000 3.171875 12.500000 3.171875l0.000000 3.515625z"/>
</defs>
<g id="mathtext1">
<g style="fill: #000000" transform="translate(212.520000,39.728625)">
<use xlink:href="#c_32edf484d6455aaf5dbeeedbc2acd75b" transform="translate(0.000000,-0.421875)scale(0.144000)"/>
<use xlink:href="#c_7bbc93c01755cdeb977d08bdfb9ce616" transform="translate(9.637784,-0.421875)scale(0.144000)"/>
<use xlink:href="#c_1a459ac34855d27ec37ccb0e66298d36" transform="translate(21.727075,-0.421875)scale(0.144000)"/>
</g>
</g>
</g>
<g id="line2d35">
<path style="fill: none; stroke: #800080; stroke-width: 1.500000; stroke-linejoin: round; stroke-linecap: square;  opacity: 1.000000"  d="M196.520000 55.435500L206.760000 55.435500"/>
</g>
<g id="line2d36">
</g>
<g id="text18">
<defs>
<path id="c_1210e7f4d85518601ea3049211d562d0" d="M4.984375 -0.000000l0.000000 -2.687500q0.000000 -0.250000 0.187500 -0.531250l15.531250 -17.187500q3.515625 -3.812500 5.703125 -6.390625q2.203125 -2.593750 4.343750 -5.968750q2.156250 -3.375000 3.406250 -6.859375q1.250000 -3.484375 1.250000 -7.390625q0.000000 -4.109375 -1.515625 -7.843750q-1.515625 -3.734375 -4.515625 -5.984375q-3.000000 -2.250000 -7.250000 -2.250000q-4.343750 0.000000 -7.812500 2.625000q-3.468750 2.609375 -4.890625 6.750000q0.390625 -0.093750 1.078125 -0.093750q2.250000 0.000000 3.828125 1.515625q1.593750 1.515625 1.593750 3.906250q0.000000 2.296875 -1.593750 3.890625q-1.578125 1.578125 -3.828125 1.578125q-2.343750 0.000000 -3.937500 -1.625000q-1.578125 -1.640625 -1.578125 -3.843750q0.000000 -3.765625 1.406250 -7.046875q1.421875 -3.296875 4.078125 -5.859375q2.671875 -2.578125 6.015625 -3.937500q3.343750 -1.375000 7.093750 -1.375000q5.718750 0.000000 10.640625 2.421875q4.937500 2.421875 7.812500 6.843750q2.890625 4.406250 2.890625 10.328125q0.000000 4.343750 -1.906250 8.250000q-1.906250 3.906250 -4.890625 7.109375q-2.968750 3.187500 -7.609375 7.250000q-4.640625 4.046875 -6.093750 5.406250l-11.328125 10.890625l9.609375 0.000000q7.078125 0.000000 11.843750 -0.109375q4.765625 -0.125000 5.046875 -0.375000q1.171875 -1.265625 2.406250 -9.234375l2.921875 0.000000l-2.828125 17.828125z"/>
</defs>
<g id="mathtext2">
<g style="fill: #000000" transform="translate(212.520000,60.475500)">
<use xlink:href="#c_32edf484d6455aaf5dbeeedbc2acd75b" transform="translate(0.000000,-0.421875)scale(0.144000)"/>
<use xlink:href="#c_7bbc93c01755cdeb977d08bdfb9ce616" transform="translate(9.637784,-0.421875)scale(0.144000)"/>
<use xlink:href="#c_1210e7f4d85518601ea3049211d562d0" transform="translate(21.727075,-0.421875)scale(0.144000)"/>
</g>
</g>
</g>
<g id="line2d37">
<path style="fill: none; stroke: #00bfff; stroke-width: 1.500000; stroke-linejoin: round; stroke-linecap: square;  opacity: 1.000000"  d="M196.520000 76.182375L206.760000 76.182375"/>
</g>
<g id="line2d38">
</g>
<g id="text19">
<defs>
<path id="c_7d09e94cce4bdf71f2297f5bbc354b76" d="M8.687500 -11.375000q1.031250 2.921875 3.156250 5.328125q2.125000 2.390625 5.031250 3.734375q2.906250 1.328125 6.031250 1.328125q7.218750 0.000000 9.953125 -5.609375q2.734375 -5.609375 2.734375 -13.625000q0.000000 -3.468750 -0.125000 -5.828125q-0.109375 -2.375000 -0.656250 -4.562500q-0.921875 -3.515625 -3.250000 -6.156250q-2.312500 -2.640625 -5.687500 -2.640625q-3.359375 0.000000 -5.781250 1.031250q-2.421875 1.015625 -3.937500 2.390625q-1.500000 1.359375 -2.671875 2.875000q-1.171875 1.515625 -1.468750 1.609375l-1.125000 0.000000q-0.250000 0.000000 -0.625000 -0.312500q-0.359375 -0.312500 -0.359375 -0.609375l0.000000 -33.406250q0.000000 -0.234375 0.312500 -0.500000q0.328125 -0.281250 0.671875 -0.281250l0.296875 0.000000q6.734375 3.234375 14.296875 3.234375q7.421875 0.000000 14.312500 -3.234375l0.296875 0.000000q0.343750 0.000000 0.625000 0.250000q0.296875 0.250000 0.296875 0.531250l0.000000 0.937500q0.000000 0.484375 -0.187500 0.484375q-3.421875 4.546875 -8.578125 7.093750q-5.156250 2.531250 -10.671875 2.531250q-4.000000 0.000000 -8.203125 -1.125000l0.000000 18.890625q3.328125 -2.687500 5.937500 -3.828125q2.609375 -1.156250 6.671875 -1.156250q5.515625 0.000000 9.875000 3.187500q4.375000 3.171875 6.718750 8.281250q2.343750 5.093750 2.343750 10.406250q0.000000 6.015625 -2.953125 11.140625q-2.953125 5.125000 -8.031250 8.156250q-5.078125 3.031250 -11.031250 3.031250q-4.937500 0.000000 -9.062500 -2.531250q-4.125000 -2.546875 -6.500000 -6.843750q-2.359375 -4.296875 -2.359375 -9.140625q0.000000 -2.250000 1.453125 -3.656250q1.468750 -1.421875 3.671875 -1.421875q2.203125 0.000000 3.687500 1.453125q1.484375 1.437500 1.484375 3.625000q0.000000 2.156250 -1.484375 3.640625q-1.484375 1.484375 -3.687500 1.484375q-0.343750 0.000000 -0.781250 -0.062500q-0.437500 -0.078125 -0.640625 -0.125000"/>
</defs>
<g id="mathtext3">
<g style="fill: #000000" transform="translate(212.520000,82.222375)">
<use xlink:href="#c_32edf484d6455aaf5dbeeedbc2acd75b" transform="translate(0.000000,-1.421875)scale(0.144000)"/>
<use xlink:href="#c_7bbc93c01755cdeb977d08bdfb9ce616" transform="translate(9.637784,-1.421875)scale(0.144000)"/>
<use xlink:href="#c_7d09e94cce4bdf71f2297f5bbc354b76" transform="translate(21.727075,-1.421875)scale(0.144000)"/>
</g>
</g>
</g>
<g id="line2d39">
<path style="fill: none; stroke: #000000; stroke-width: 1.500000; stroke-linejoin: round; stroke-linecap: square;  opacity: 1.000000"  d="M196.520000 96.929250L206.760000 96.929250"/>
</g>
<g id="line2d40">
</g>
<g id="text20">
<defs>
<path id="c_6a3a612567bb59e037cbf13158797929" d="M7.515625 -23.000000q-0.828125 0.000000 -1.375000 -0.625000q-0.531250 -0.640625 -0.531250 -1.375000q0.000000 -0.734375 0.531250 -1.359375q0.546875 -0.640625 1.375000 -0.640625l29.406250 0.000000l0.000000 -29.500000q0.000000 -0.781250 0.578125 -1.281250q0.593750 -0.515625 1.421875 -0.515625q0.734375 0.000000 1.359375 0.515625q0.640625 0.500000 0.640625 1.281250l0.000000 29.500000l29.390625 0.000000q0.734375 0.000000 1.265625 0.640625q0.546875 0.625000 0.546875 1.359375q0.000000 0.734375 -0.546875 1.375000q-0.531250 0.625000 -1.265625 0.625000l-29.390625 0.000000l0.000000 29.500000q0.000000 0.781250 -0.640625 1.281250q-0.625000 0.515625 -1.359375 0.515625q-0.828125 0.000000 -1.421875 -0.515625q-0.578125 -0.500000 -0.578125 -1.281250l0.000000 -29.500000z"/>
<path id="c_04111b2b7db28f5ad55cf0eace59d749" d="M24.609375 1.125000q-5.656250 0.000000 -10.031250 -3.312500q-4.375000 -3.328125 -6.671875 -8.593750q-2.296875 -5.281250 -2.296875 -10.796875q0.000000 -4.250000 1.343750 -8.296875q1.343750 -4.062500 3.875000 -7.281250q2.546875 -3.218750 6.140625 -5.125000q3.593750 -1.906250 7.937500 -1.906250q4.484375 0.000000 8.687500 1.718750q4.203125 1.703125 7.687500 4.531250q3.500000 2.828125 6.515625 6.546875l2.984375 4.000000q2.984375 -4.734375 6.593750 -8.468750q3.609375 -3.734375 8.171875 -6.031250q4.578125 -2.296875 9.750000 -2.296875q4.343750 0.000000 7.906250 1.937500q3.562500 1.921875 6.046875 5.250000q2.500000 3.312500 3.765625 7.343750q1.265625 4.015625 1.265625 8.078125q0.000000 5.656250 -2.375000 10.906250q-2.359375 5.250000 -6.734375 8.531250q-4.359375 3.265625 -10.171875 3.265625q-6.546875 0.000000 -12.437500 -3.515625q-5.875000 -3.515625 -10.468750 -9.328125l-2.968750 -4.000000q-4.593750 7.468750 -10.828125 12.156250q-6.218750 4.687500 -13.687500 4.687500M23.578125 -2.390625q12.703125 0.000000 22.718750 -17.000000l-5.281250 -6.734375q-4.593750 -6.046875 -8.546875 -9.468750q-3.953125 -3.421875 -9.171875 -3.421875q-4.453125 0.000000 -7.890625 2.515625q-3.437500 2.515625 -5.328125 6.578125q-1.875000 4.046875 -1.875000 8.437500q0.000000 3.375000 1.046875 6.765625q1.046875 3.390625 3.046875 6.171875q2.015625 2.781250 4.859375 4.468750q2.859375 1.687500 6.421875 1.687500M58.890625 -17.000000q4.593750 6.062500 8.546875 9.484375q3.953125 3.406250 9.171875 3.406250q3.328125 0.000000 6.109375 -1.453125q2.781250 -1.468750 4.796875 -3.953125q2.031250 -2.500000 3.109375 -5.625000q1.078125 -3.125000 1.078125 -6.437500q0.000000 -4.640625 -1.859375 -9.062500q-1.859375 -4.421875 -5.359375 -7.250000q-3.484375 -2.828125 -8.171875 -2.828125q-12.687500 0.000000 -22.703125 17.031250z"/>
</defs>
<g id="mathtext4">
<g style="fill: #000000" transform="translate(212.520000,103.969250)">
<use xlink:href="#c_32edf484d6455aaf5dbeeedbc2acd75b" transform="translate(0.000000,-2.609375)scale(0.144000)"/>
<use xlink:href="#c_7bbc93c01755cdeb977d08bdfb9ce616" transform="translate(9.637784,-2.609375)scale(0.144000)"/>
<use xlink:href="#c_6a3a612567bb59e037cbf13158797929" transform="translate(24.253867,-2.609375)scale(0.144000)"/>
<use xlink:href="#c_04111b2b7db28f5ad55cf0eace59d749" transform="translate(36.343158,-2.609375)scale(0.144000)"/>
</g>
</g>
</g>
</g>
</g>
</g>
</svg>
