<?xml version="1.0" encoding="UTF-8"?>
<!DOCTYPE svg PUBLIC "-//W3C//DTD SVG 1.1//EN" "http://www.w3.org/Graphics/SVG/1.1/DTD/svg11.dtd">
<svg version="1.2" width="67.01mm" height="54.01mm" viewBox="8049 949 6701 5401" preserveAspectRatio="xMidYMid" fill-rule="evenodd" stroke-width="28.222" stroke-linejoin="round" xmlns="http://www.w3.org/2000/svg" xmlns:ooo="http://xml.openoffice.org/svg/export" xmlns:xlink="http://www.w3.org/1999/xlink" xmlns:presentation="http://sun.com/xmlns/staroffice/presentation" xmlns:smil="http://www.w3.org/2001/SMIL20/" xmlns:anim="urn:oasis:names:tc:opendocument:xmlns:animation:1.0" xml:space="preserve">
 <defs class="ClipPathGroup">
  <clipPath id="presentation_clip_path" clipPathUnits="userSpaceOnUse">
   <rect x="8049" y="949" width="6701" height="5401"/>
  </clipPath>
  <clipPath id="presentation_clip_path_shrink" clipPathUnits="userSpaceOnUse">
   <rect x="8055" y="954" width="6688" height="5391"/>
  </clipPath>
 </defs>
 <defs class="TextShapeIndex">
  <g ooo:slide="id1" ooo:id-list="id3 id4 id5 id6 id7 id8 id9 id10 id11 id12 id13 id14 id15 id16 id17 id18 id19 id20 id21 id22 id23 id24 id25 id26 id27 id28"/>
 </defs>
 <defs class="EmbeddedBulletChars">
  <g id="bullet-char-template-57356" transform="scale(0.00048828125,-0.00048828125)">
   <path d="M 580,1141 L 1163,571 580,0 -4,571 580,1141 Z"/>
  </g>
  <g id="bullet-char-template-57354" transform="scale(0.00048828125,-0.00048828125)">
   <path d="M 8,1128 L 1137,1128 1137,0 8,0 8,1128 Z"/>
  </g>
  <g id="bullet-char-template-10146" transform="scale(0.00048828125,-0.00048828125)">
   <path d="M 174,0 L 602,739 174,1481 1456,739 174,0 Z M 1358,739 L 309,1346 659,739 1358,739 Z"/>
  </g>
  <g id="bullet-char-template-10132" transform="scale(0.00048828125,-0.00048828125)">
   <path d="M 2015,739 L 1276,0 717,0 1260,543 174,543 174,936 1260,936 717,1481 1274,1481 2015,739 Z"/>
  </g>
  <g id="bullet-char-template-10007" transform="scale(0.00048828125,-0.00048828125)">
   <path d="M 0,-2 C -7,14 -16,27 -25,37 L 356,567 C 262,823 215,952 215,954 215,979 228,992 255,992 264,992 276,990 289,987 310,991 331,999 354,1012 L 381,999 492,748 772,1049 836,1024 860,1049 C 881,1039 901,1025 922,1006 886,937 835,863 770,784 769,783 710,716 594,584 L 774,223 C 774,196 753,168 711,139 L 727,119 C 717,90 699,76 672,76 641,76 570,178 457,381 L 164,-76 C 142,-110 111,-127 72,-127 30,-127 9,-110 8,-76 1,-67 -2,-52 -2,-32 -2,-23 -1,-13 0,-2 Z"/>
  </g>
  <g id="bullet-char-template-10004" transform="scale(0.00048828125,-0.00048828125)">
   <path d="M 285,-33 C 182,-33 111,30 74,156 52,228 41,333 41,471 41,549 55,616 82,672 116,743 169,778 240,778 293,778 328,747 346,684 L 369,508 C 377,444 397,411 428,410 L 1163,1116 C 1174,1127 1196,1133 1229,1133 1271,1133 1292,1118 1292,1087 L 1292,965 C 1292,929 1282,901 1262,881 L 442,47 C 390,-6 338,-33 285,-33 Z"/>
  </g>
  <g id="bullet-char-template-9679" transform="scale(0.00048828125,-0.00048828125)">
   <path d="M 813,0 C 632,0 489,54 383,161 276,268 223,411 223,592 223,773 276,916 383,1023 489,1130 632,1184 813,1184 992,1184 1136,1130 1245,1023 1353,916 1407,772 1407,592 1407,412 1353,268 1245,161 1136,54 992,0 813,0 Z"/>
  </g>
  <g id="bullet-char-template-8226" transform="scale(0.00048828125,-0.00048828125)">
   <path d="M 346,457 C 273,457 209,483 155,535 101,586 74,649 74,723 74,796 101,859 155,911 209,963 273,989 346,989 419,989 480,963 531,910 582,859 608,796 608,723 608,648 583,586 532,535 482,483 420,457 346,457 Z"/>
  </g>
  <g id="bullet-char-template-8211" transform="scale(0.00048828125,-0.00048828125)">
   <path d="M -4,459 L 1135,459 1135,606 -4,606 -4,459 Z"/>
  </g>
  <g id="bullet-char-template-61548" transform="scale(0.00048828125,-0.00048828125)">
   <path d="M 173,740 C 173,903 231,1043 346,1159 462,1274 601,1332 765,1332 928,1332 1067,1274 1183,1159 1299,1043 1357,903 1357,740 1357,577 1299,437 1183,322 1067,206 928,148 765,148 601,148 462,206 346,322 231,437 173,577 173,740 Z"/>
  </g>
 </defs>
 <defs class="TextEmbeddedBitmaps"/>
 <g class="SlideGroup">
  <g>
   <g id="container-id1">
    <g id="id1" class="Slide" clip-path="url(#presentation_clip_path)">
     <g class="Page">
      <g class="com.sun.star.drawing.ConnectorShape">
       <g id="id3">
        <rect class="BoundingBox" stroke="none" fill="none" x="11677" y="3677" width="1147" height="709"/>
        <path fill="none" stroke="rgb(128,128,128)" stroke-width="100" stroke-linejoin="round" d="M 12773,4027 C 12773,4409 11727,4559 11727,3727"/>
       </g>
      </g>
      <g class="com.sun.star.drawing.ConnectorShape">
       <g id="id4">
        <rect class="BoundingBox" stroke="none" fill="none" x="9800" y="4850" width="1351" height="351"/>
        <path fill="none" stroke="rgb(128,128,128)" stroke-width="100" stroke-linejoin="round" d="M 9850,4900 C 9850,5067 10266,5150 11100,5150"/>
       </g>
      </g>
      <g class="com.sun.star.drawing.ConnectorShape">
       <g id="id5">
        <rect class="BoundingBox" stroke="none" fill="none" x="9977" y="3477" width="361" height="1047"/>
        <path fill="none" stroke="rgb(128,128,128)" stroke-width="100" stroke-linejoin="round" d="M 10127,3527 C 10331,3527 10381,4473 10027,4473"/>
       </g>
      </g>
      <g class="com.sun.star.drawing.ConnectorShape">
       <g id="id6">
        <rect class="BoundingBox" stroke="none" fill="none" x="9301" y="3477" width="523" height="1047"/>
        <path fill="none" stroke="rgb(128,128,128)" stroke-width="100" stroke-linejoin="round" d="M 9773,3527 C 9203,3527 9253,4473 9673,4473"/>
       </g>
      </g>
      <g class="com.sun.star.drawing.ConnectorShape">
       <g id="id7">
        <rect class="BoundingBox" stroke="none" fill="none" x="10900" y="1450" width="524" height="974"/>
        <path fill="none" stroke="rgb(128,128,128)" stroke-width="100" stroke-linejoin="round" d="M 10950,1500 L 11373,2373"/>
       </g>
      </g>
      <g class="com.sun.star.drawing.ConnectorShape">
       <g id="id8">
        <rect class="BoundingBox" stroke="none" fill="none" x="10150" y="3300" width="1201" height="301"/>
        <path fill="none" stroke="rgb(128,128,128)" stroke-width="100" stroke-linejoin="round" d="M 11300,3550 L 10200,3350"/>
       </g>
      </g>
      <g class="com.sun.star.drawing.ConnectorShape">
       <g id="id9">
        <rect class="BoundingBox" stroke="none" fill="none" x="11677" y="2377" width="1847" height="1047"/>
        <path fill="none" stroke="rgb(128,128,128)" stroke-width="100" stroke-linejoin="round" d="M 11727,3373 L 13473,2427"/>
       </g>
      </g>
      <g class="com.sun.star.drawing.ConnectorShape">
       <g id="id10">
        <rect class="BoundingBox" stroke="none" fill="none" x="11477" y="5277" width="547" height="647"/>
        <path fill="none" stroke="rgb(128,128,128)" stroke-width="100" stroke-linejoin="round" d="M 11527,5327 L 11973,5873"/>
       </g>
      </g>
      <g class="com.sun.star.drawing.ConnectorShape">
       <g id="id11">
        <rect class="BoundingBox" stroke="none" fill="none" x="13150" y="3800" width="1101" height="201"/>
        <path fill="none" stroke="rgb(128,128,128)" stroke-width="100" stroke-linejoin="round" d="M 13200,3850 L 14200,3950"/>
       </g>
      </g>
      <g class="com.sun.star.drawing.ConnectorShape">
       <g id="id12">
        <rect class="BoundingBox" stroke="none" fill="none" x="11750" y="3500" width="1001" height="401"/>
        <path fill="none" stroke="rgb(128,128,128)" stroke-width="100" stroke-linejoin="round" d="M 12700,3850 L 11800,3550"/>
       </g>
      </g>
      <g class="com.sun.star.drawing.ConnectorShape">
       <g id="id13">
        <rect class="BoundingBox" stroke="none" fill="none" x="11300" y="3750" width="301" height="1201"/>
        <path fill="none" stroke="rgb(128,128,128)" stroke-width="100" stroke-linejoin="round" d="M 11550,3800 L 11350,4900"/>
       </g>
      </g>
      <g class="com.sun.star.drawing.ConnectorShape">
       <g id="id14">
        <rect class="BoundingBox" stroke="none" fill="none" x="9977" y="4777" width="1247" height="247"/>
        <path fill="none" stroke="rgb(128,128,128)" stroke-width="100" stroke-linejoin="round" d="M 11173,4973 L 10027,4827"/>
       </g>
      </g>
      <g class="com.sun.star.drawing.ConnectorShape">
       <g id="id15">
        <rect class="BoundingBox" stroke="none" fill="none" x="9800" y="3550" width="201" height="901"/>
        <path fill="none" stroke="rgb(128,128,128)" stroke-width="100" stroke-linejoin="round" d="M 9850,4400 L 9950,3600"/>
       </g>
      </g>
      <g class="com.sun.star.drawing.ConnectorShape">
       <g id="id16">
        <rect class="BoundingBox" stroke="none" fill="none" x="8477" y="2777" width="1347" height="447"/>
        <path fill="none" stroke="rgb(128,128,128)" stroke-width="100" stroke-linejoin="round" d="M 9773,3173 L 8527,2827"/>
       </g>
      </g>
      <g class="com.sun.star.drawing.CustomShape">
       <g id="id17">
        <rect class="BoundingBox" stroke="none" fill="none" x="9549" y="4349" width="603" height="603"/>
        <path fill="none" stroke="rgb(28,28,28)" stroke-width="100" stroke-linejoin="round" d="M 9850,4399 C 9896,4399 9935,4410 9975,4433 10015,4456 10044,4485 10067,4525 10090,4565 10100,4604 10100,4650 10100,4696 10090,4735 10067,4775 10044,4815 10015,4844 9975,4867 9935,4890 9896,4900 9850,4900 9804,4900 9765,4890 9725,4867 9685,4844 9656,4815 9633,4775 9610,4735 9599,4696 9599,4650 9599,4604 9610,4565 9633,4525 9656,4485 9685,4456 9725,4433 9765,4410 9804,4399 9850,4399 Z"/>
       </g>
      </g>
      <g class="com.sun.star.drawing.CustomShape">
       <g id="id18">
        <rect class="BoundingBox" stroke="none" fill="none" x="10649" y="949" width="603" height="603"/>
        <path fill="none" stroke="rgb(28,28,28)" stroke-width="100" stroke-linejoin="round" d="M 10950,999 C 10996,999 11035,1010 11075,1033 11115,1056 11144,1085 11167,1125 11190,1165 11200,1204 11200,1250 11200,1296 11190,1335 11167,1375 11144,1415 11115,1444 11075,1467 11035,1490 10996,1501 10950,1501 10904,1501 10865,1490 10825,1467 10785,1444 10756,1415 10733,1375 10710,1335 10699,1296 10699,1250 10699,1204 10710,1165 10733,1125 10756,1085 10785,1056 10825,1033 10865,1010 10904,999 10950,999 Z"/>
       </g>
      </g>
      <g class="com.sun.star.drawing.CustomShape">
       <g id="id19">
        <rect class="BoundingBox" stroke="none" fill="none" x="9649" y="3049" width="603" height="603"/>
        <path fill="none" stroke="rgb(28,28,28)" stroke-width="100" stroke-linejoin="round" d="M 9950,3099 C 9996,3099 10035,3110 10075,3133 10115,3156 10144,3185 10167,3225 10190,3265 10200,3304 10200,3350 10200,3396 10190,3435 10167,3475 10144,3515 10115,3544 10075,3567 10035,3590 9996,3600 9950,3600 9904,3600 9865,3590 9825,3567 9785,3544 9756,3515 9733,3475 9710,3435 9699,3396 9699,3350 9699,3304 9710,3265 9733,3225 9756,3185 9785,3156 9825,3133 9865,3110 9904,3099 9950,3099 Z"/>
       </g>
      </g>
      <g class="com.sun.star.drawing.ConnectorShape">
       <g id="id20">
        <rect class="BoundingBox" stroke="none" fill="none" x="11500" y="2750" width="101" height="601"/>
        <path fill="none" stroke="rgb(128,128,128)" stroke-width="100" stroke-linejoin="round" d="M 11550,2800 L 11550,3300"/>
       </g>
      </g>
      <g class="com.sun.star.drawing.CustomShape">
       <g id="id21">
        <rect class="BoundingBox" stroke="none" fill="none" x="11249" y="3249" width="603" height="603"/>
        <path fill="none" stroke="rgb(28,28,28)" stroke-width="100" stroke-linejoin="round" d="M 11550,3299 C 11596,3299 11635,3310 11675,3333 11715,3356 11744,3385 11767,3425 11790,3465 11801,3504 11801,3550 11801,3596 11790,3635 11767,3675 11744,3715 11715,3744 11675,3767 11635,3790 11596,3800 11550,3800 11504,3800 11465,3790 11425,3767 11385,3744 11356,3715 11333,3675 11310,3635 11300,3596 11300,3550 11300,3504 11310,3465 11333,3425 11356,3385 11385,3356 11425,3333 11465,3310 11504,3299 11550,3299 Z"/>
       </g>
      </g>
      <g class="com.sun.star.drawing.CustomShape">
       <g id="id22">
        <rect class="BoundingBox" stroke="none" fill="none" x="12649" y="3549" width="603" height="603"/>
        <path fill="none" stroke="rgb(28,28,28)" stroke-width="100" stroke-linejoin="round" d="M 12950,3599 C 12996,3599 13035,3610 13075,3633 13115,3656 13144,3685 13167,3725 13190,3765 13200,3804 13200,3850 13200,3896 13190,3935 13167,3975 13144,4015 13115,4044 13075,4067 13035,4090 12996,4101 12950,4101 12904,4101 12865,4090 12825,4067 12785,4044 12756,4015 12733,3975 12710,3935 12699,3896 12699,3850 12699,3804 12710,3765 12733,3725 12756,3685 12785,3656 12825,3633 12865,3610 12904,3599 12950,3599 Z"/>
       </g>
      </g>
      <g class="com.sun.star.drawing.CustomShape">
       <g id="id23">
        <rect class="BoundingBox" stroke="none" fill="none" x="11849" y="5749" width="603" height="603"/>
        <path fill="none" stroke="rgb(28,28,28)" stroke-width="100" stroke-linejoin="round" d="M 12150,5800 C 12196,5800 12235,5810 12275,5833 12315,5856 12344,5885 12367,5925 12390,5965 12400,6004 12400,6050 12400,6096 12390,6135 12367,6175 12344,6215 12315,6244 12275,6267 12235,6290 12196,6301 12150,6301 12104,6301 12065,6290 12025,6267 11985,6244 11956,6215 11933,6175 11910,6135 11899,6096 11899,6050 11899,6004 11910,5965 11933,5925 11956,5885 11985,5856 12025,5833 12065,5810 12104,5800 12150,5800 Z"/>
       </g>
      </g>
      <g class="com.sun.star.drawing.CustomShape">
       <g id="id24">
        <rect class="BoundingBox" stroke="none" fill="none" x="11049" y="4849" width="603" height="603"/>
        <path fill="none" stroke="rgb(28,28,28)" stroke-width="100" stroke-linejoin="round" d="M 11350,4900 C 11396,4900 11435,4910 11475,4933 11515,4956 11544,4985 11567,5025 11590,5065 11600,5104 11600,5150 11600,5196 11590,5235 11567,5275 11544,5315 11515,5344 11475,5367 11435,5390 11396,5401 11350,5401 11304,5401 11265,5390 11225,5367 11185,5344 11156,5315 11133,5275 11110,5235 11099,5196 11099,5150 11099,5104 11110,5065 11133,5025 11156,4985 11185,4956 11225,4933 11265,4910 11304,4900 11350,4900 Z"/>
       </g>
      </g>
      <g class="com.sun.star.drawing.CustomShape">
       <g id="id25">
        <rect class="BoundingBox" stroke="none" fill="none" x="14149" y="3649" width="603" height="603"/>
        <path fill="none" stroke="rgb(28,28,28)" stroke-width="100" stroke-linejoin="round" d="M 14450,3699 C 14496,3699 14535,3710 14575,3733 14615,3756 14644,3785 14667,3825 14690,3865 14700,3904 14700,3950 14700,3996 14690,4035 14667,4075 14644,4115 14615,4144 14575,4167 14535,4190 14496,4201 14450,4201 14404,4201 14365,4190 14325,4167 14285,4144 14256,4115 14233,4075 14210,4035 14199,3996 14199,3950 14199,3904 14210,3865 14233,3825 14256,3785 14285,3756 14325,3733 14365,3710 14404,3699 14450,3699 Z"/>
       </g>
      </g>
      <g class="com.sun.star.drawing.CustomShape">
       <g id="id26">
        <rect class="BoundingBox" stroke="none" fill="none" x="13349" y="1949" width="603" height="603"/>
        <path fill="none" stroke="rgb(28,28,28)" stroke-width="100" stroke-linejoin="round" d="M 13650,1999 C 13696,1999 13735,2010 13775,2033 13815,2056 13844,2085 13867,2125 13890,2165 13900,2204 13900,2250 13900,2296 13890,2335 13867,2375 13844,2415 13815,2444 13775,2467 13735,2490 13696,2500 13650,2500 13604,2500 13565,2490 13525,2467 13485,2444 13456,2415 13433,2375 13410,2335 13399,2296 13399,2250 13399,2204 13410,2165 13433,2125 13456,2085 13485,2056 13525,2033 13565,2010 13604,1999 13650,1999 Z"/>
       </g>
      </g>
      <g class="com.sun.star.drawing.CustomShape">
       <g id="id27">
        <rect class="BoundingBox" stroke="none" fill="none" x="8049" y="2349" width="603" height="603"/>
        <path fill="none" stroke="rgb(28,28,28)" stroke-width="100" stroke-linejoin="round" d="M 8350,2400 C 8396,2400 8435,2410 8475,2433 8515,2456 8544,2485 8567,2525 8590,2565 8600,2604 8600,2650 8600,2696 8590,2735 8567,2775 8544,2815 8515,2844 8475,2867 8435,2890 8396,2901 8350,2901 8304,2901 8265,2890 8225,2867 8185,2844 8156,2815 8133,2775 8110,2735 8099,2696 8099,2650 8099,2604 8110,2565 8133,2525 8156,2485 8185,2456 8225,2433 8265,2410 8304,2400 8350,2400 Z"/>
       </g>
      </g>
      <g class="com.sun.star.drawing.CustomShape">
       <g id="id28">
        <rect class="BoundingBox" stroke="none" fill="none" x="11249" y="2249" width="603" height="603"/>
        <path fill="none" stroke="rgb(28,28,28)" stroke-width="100" stroke-linejoin="round" d="M 11550,2300 C 11596,2300 11635,2310 11675,2333 11715,2356 11744,2385 11767,2425 11790,2465 11801,2504 11801,2550 11801,2596 11790,2635 11767,2675 11744,2715 11715,2744 11675,2767 11635,2790 11596,2801 11550,2801 11504,2801 11465,2790 11425,2767 11385,2744 11356,2715 11333,2675 11310,2635 11300,2596 11300,2550 11300,2504 11310,2465 11333,2425 11356,2385 11385,2356 11425,2333 11465,2310 11504,2300 11550,2300 Z"/>
       </g>
      </g>
     </g>
    </g>
   </g>
  </g>
 </g>
</svg>