<?xml version="1.0" encoding="UTF-8"?>
<!DOCTYPE svg PUBLIC "-//W3C//DTD SVG 1.1//EN" "http://www.w3.org/Graphics/SVG/1.1/DTD/svg11.dtd">
<svg version="1.2" width="125.59mm" height="37.59mm" viewBox="2421 6421 12559 3759" preserveAspectRatio="xMidYMid" fill-rule="evenodd" stroke-width="28.222" stroke-linejoin="round" xmlns="http://www.w3.org/2000/svg" xmlns:ooo="http://xml.openoffice.org/svg/export" xmlns:xlink="http://www.w3.org/1999/xlink" xmlns:presentation="http://sun.com/xmlns/staroffice/presentation" xmlns:smil="http://www.w3.org/2001/SMIL20/" xmlns:anim="urn:oasis:names:tc:opendocument:xmlns:animation:1.0" xml:space="preserve">
 <defs class="ClipPathGroup">
  <clipPath id="presentation_clip_path" clipPathUnits="userSpaceOnUse">
   <rect x="2421" y="6421" width="12559" height="3759"/>
  </clipPath>
  <clipPath id="presentation_clip_path_shrink" clipPathUnits="userSpaceOnUse">
   <rect x="2433" y="6424" width="12534" height="3752"/>
  </clipPath>
 </defs>
 <defs class="TextShapeIndex">
  <g ooo:slide="id1" ooo:id-list="id3 id4 id5 id6 id7 id8"/>
 </defs>
 <defs class="EmbeddedBulletChars">
  <g id="bullet-char-template-57356" transform="scale(0.00048828125,-0.00048828125)">
   <path d="M 580,1141 L 1163,571 580,0 -4,571 580,1141 Z"/>
  </g>
  <g id="bullet-char-template-57354" transform="scale(0.00048828125,-0.00048828125)">
   <path d="M 8,1128 L 1137,1128 1137,0 8,0 8,1128 Z"/>
  </g>
  <g id="bullet-char-template-10146" transform="scale(0.00048828125,-0.00048828125)">
   <path d="M 174,0 L 602,739 174,1481 1456,739 174,0 Z M 1358,739 L 309,1346 659,739 1358,739 Z"/>
  </g>
  <g id="bullet-char-template-10132" transform="scale(0.00048828125,-0.00048828125)">
   <path d="M 2015,739 L 1276,0 717,0 1260,543 174,543 174,936 1260,936 717,1481 1274,1481 2015,739 Z"/>
  </g>
  <g id="bullet-char-template-10007" transform="scale(0.00048828125,-0.00048828125)">
   <path d="M 0,-2 C -7,14 -16,27 -25,37 L 356,567 C 262,823 215,952 215,954 215,979 228,992 255,992 264,992 276,990 289,987 310,991 331,999 354,1012 L 381,999 492,748 772,1049 836,1024 860,1049 C 881,1039 901,1025 922,1006 886,937 835,863 770,784 769,783 710,716 594,584 L 774,223 C 774,196 753,168 711,139 L 727,119 C 717,90 699,76 672,76 641,76 570,178 457,381 L 164,-76 C 142,-110 111,-127 72,-127 30,-127 9,-110 8,-76 1,-67 -2,-52 -2,-32 -2,-23 -1,-13 0,-2 Z"/>
  </g>
  <g id="bullet-char-template-10004" transform="scale(0.00048828125,-0.00048828125)">
   <path d="M 285,-33 C 182,-33 111,30 74,156 52,228 41,333 41,471 41,549 55,616 82,672 116,743 169,778 240,778 293,778 328,747 346,684 L 369,508 C 377,444 397,411 428,410 L 1163,1116 C 1174,1127 1196,1133 1229,1133 1271,1133 1292,1118 1292,1087 L 1292,965 C 1292,929 1282,901 1262,881 L 442,47 C 390,-6 338,-33 285,-33 Z"/>
  </g>
  <g id="bullet-char-template-9679" transform="scale(0.00048828125,-0.00048828125)">
   <path d="M 813,0 C 632,0 489,54 383,161 276,268 223,411 223,592 223,773 276,916 383,1023 489,1130 632,1184 813,1184 992,1184 1136,1130 1245,1023 1353,916 1407,772 1407,592 1407,412 1353,268 1245,161 1136,54 992,0 813,0 Z"/>
  </g>
  <g id="bullet-char-template-8226" transform="scale(0.00048828125,-0.00048828125)">
   <path d="M 346,457 C 273,457 209,483 155,535 101,586 74,649 74,723 74,796 101,859 155,911 209,963 273,989 346,989 419,989 480,963 531,910 582,859 608,796 608,723 608,648 583,586 532,535 482,483 420,457 346,457 Z"/>
  </g>
  <g id="bullet-char-template-8211" transform="scale(0.00048828125,-0.00048828125)">
   <path d="M -4,459 L 1135,459 1135,606 -4,606 -4,459 Z"/>
  </g>
  <g id="bullet-char-template-61548" transform="scale(0.00048828125,-0.00048828125)">
   <path d="M 173,740 C 173,903 231,1043 346,1159 462,1274 601,1332 765,1332 928,1332 1067,1274 1183,1159 1299,1043 1357,903 1357,740 1357,577 1299,437 1183,322 1067,206 928,148 765,148 601,148 462,206 346,322 231,437 173,577 173,740 Z"/>
  </g>
 </defs>
 <defs class="TextEmbeddedBitmaps"/>
 <g class="SlideGroup">
  <g>
   <g id="container-id1">
    <g id="id1" class="Slide" clip-path="url(#presentation_clip_path)">
     <g class="Page">
      <g class="com.sun.star.drawing.CustomShape">
       <g id="id3">
        <rect class="BoundingBox" stroke="none" fill="none" x="2420" y="6720" width="3161" height="3161"/>
        <path fill="none" stroke="rgb(89,131,176)" stroke-width="159" stroke-linejoin="round" d="M 4000,9800 L 2500,9800 2500,6800 5500,6800 5500,9800 4000,9800 Z"/>
       </g>
      </g>
      <g class="com.sun.star.drawing.CustomShape">
       <g id="id4">
        <rect class="BoundingBox" stroke="none" fill="none" x="11420" y="6620" width="3561" height="3361"/>
        <path fill="none" stroke="rgb(255,212,40)" stroke-width="159" stroke-linejoin="round" d="M 13200,6700 C 13513,6700 13779,6767 14050,6914 14321,7061 14516,7245 14673,7500 14829,7755 14900,8005 14900,8300 14900,8595 14829,8845 14673,9100 14516,9355 14321,9539 14050,9686 13779,9833 13513,9901 13200,9901 12887,9901 12621,9833 12350,9686 12079,9539 11884,9355 11727,9100 11571,8845 11500,8595 11500,8300 11500,8005 11571,7755 11727,7500 11884,7245 12079,7061 12350,6914 12621,6767 12887,6700 13200,6700 L 13200,6700 Z"/>
       </g>
      </g>
      <g class="com.sun.star.drawing.CustomShape">
       <g id="id5">
        <rect class="BoundingBox" stroke="none" fill="none" x="3320" y="6420" width="3761" height="3562"/>
        <path fill="none" stroke="rgb(89,147,176)" stroke-width="159" stroke-linejoin="round" d="M 5200,6500 L 3400,7800 4105,9901 6295,9901 7000,7800 5200,6500 5200,6500 Z"/>
       </g>
      </g>
      <g class="com.sun.star.drawing.CustomShape">
       <g id="id6">
        <rect class="BoundingBox" stroke="none" fill="none" x="4620" y="6620" width="4161" height="3462"/>
        <path fill="none" stroke="rgb(89,175,176)" stroke-width="159" stroke-linejoin="round" d="M 5700,6700 L 7700,6700 8700,8350 7700,10001 5700,10001 4700,8350 5700,6700 Z"/>
       </g>
      </g>
      <g class="com.sun.star.drawing.CustomShape">
       <g id="id7">
        <rect class="BoundingBox" stroke="none" fill="none" x="6220" y="6488" width="3562" height="3693"/>
        <path fill="none" stroke="rgb(89,176,153)" stroke-width="159" stroke-linejoin="round" d="M 7296,6568 L 8704,6568 9701,7564 9701,9104 8704,10100 7296,10100 6300,9104 6300,7564 7296,6568 Z"/>
       </g>
      </g>
      <g class="com.sun.star.drawing.LineShape">
       <g id="id8">
        <rect class="BoundingBox" stroke="none" fill="none" x="7647" y="8070" width="3228" height="461"/>
        <path fill="none" stroke="rgb(102,102,102)" stroke-width="106" stroke-linejoin="round" d="M 7700,8300 L 7909,8300"/>
        <path fill="none" stroke="rgb(102,102,102)" stroke-width="106" stroke-linejoin="round" d="M 8118,8300 L 8326,8300"/>
        <path fill="none" stroke="rgb(102,102,102)" stroke-width="106" stroke-linejoin="round" d="M 8535,8300 L 8744,8300"/>
        <path fill="none" stroke="rgb(102,102,102)" stroke-width="106" stroke-linejoin="round" d="M 8953,8300 L 9162,8300"/>
        <path fill="none" stroke="rgb(102,102,102)" stroke-width="106" stroke-linejoin="round" d="M 9371,8300 L 9579,8300"/>
        <path fill="none" stroke="rgb(102,102,102)" stroke-width="106" stroke-linejoin="round" d="M 9788,8300 L 9997,8300"/>
        <path fill="none" stroke="rgb(102,102,102)" stroke-width="106" stroke-linejoin="round" d="M 10206,8300 L 10216,8300"/>
        <path fill="rgb(102,102,102)" stroke="none" d="M 10874,8300 L 10186,8071 10186,8530 10874,8300 Z"/>
       </g>
      </g>
     </g>
    </g>
   </g>
  </g>
 </g>
</svg>